%TF.GenerationSoftware,KiCad,Pcbnew,7.0.11-2.fc38*%
%TF.CreationDate,2024-03-11T20:51:48+00:00*%
%TF.ProjectId,tonie-charger-pd,746f6e69-652d-4636-9861-726765722d70,rev?*%
%TF.SameCoordinates,Original*%
%TF.FileFunction,Legend,Top*%
%TF.FilePolarity,Positive*%
%FSLAX46Y46*%
G04 Gerber Fmt 4.6, Leading zero omitted, Abs format (unit mm)*
G04 Created by KiCad (PCBNEW 7.0.11-2.fc38) date 2024-03-11 20:51:48*
%MOMM*%
%LPD*%
G01*
G04 APERTURE LIST*
%ADD10C,0.100000*%
G04 APERTURE END LIST*
D10*
X105882466Y-116840877D02*
X105849133Y-116907544D01*
X105849133Y-116907544D02*
X105849133Y-117007544D01*
X105849133Y-117007544D02*
X105882466Y-117107544D01*
X105882466Y-117107544D02*
X105949133Y-117174211D01*
X105949133Y-117174211D02*
X106015800Y-117207544D01*
X106015800Y-117207544D02*
X106149133Y-117240877D01*
X106149133Y-117240877D02*
X106249133Y-117240877D01*
X106249133Y-117240877D02*
X106382466Y-117207544D01*
X106382466Y-117207544D02*
X106449133Y-117174211D01*
X106449133Y-117174211D02*
X106515800Y-117107544D01*
X106515800Y-117107544D02*
X106549133Y-117007544D01*
X106549133Y-117007544D02*
X106549133Y-116940877D01*
X106549133Y-116940877D02*
X106515800Y-116840877D01*
X106515800Y-116840877D02*
X106482466Y-116807544D01*
X106482466Y-116807544D02*
X106249133Y-116807544D01*
X106249133Y-116807544D02*
X106249133Y-116940877D01*
X106549133Y-116507544D02*
X105849133Y-116507544D01*
X105849133Y-116507544D02*
X106549133Y-116107544D01*
X106549133Y-116107544D02*
X105849133Y-116107544D01*
X106549133Y-115774211D02*
X105849133Y-115774211D01*
X105849133Y-115774211D02*
X105849133Y-115607544D01*
X105849133Y-115607544D02*
X105882466Y-115507544D01*
X105882466Y-115507544D02*
X105949133Y-115440878D01*
X105949133Y-115440878D02*
X106015800Y-115407544D01*
X106015800Y-115407544D02*
X106149133Y-115374211D01*
X106149133Y-115374211D02*
X106249133Y-115374211D01*
X106249133Y-115374211D02*
X106382466Y-115407544D01*
X106382466Y-115407544D02*
X106449133Y-115440878D01*
X106449133Y-115440878D02*
X106515800Y-115507544D01*
X106515800Y-115507544D02*
X106549133Y-115607544D01*
X106549133Y-115607544D02*
X106549133Y-115774211D01*
X105849133Y-114437544D02*
X106549133Y-114204211D01*
X106549133Y-114204211D02*
X105849133Y-113970877D01*
X106549133Y-113737544D02*
X105849133Y-113737544D01*
X105849133Y-113737544D02*
X105849133Y-113570877D01*
X105849133Y-113570877D02*
X105882466Y-113470877D01*
X105882466Y-113470877D02*
X105949133Y-113404211D01*
X105949133Y-113404211D02*
X106015800Y-113370877D01*
X106015800Y-113370877D02*
X106149133Y-113337544D01*
X106149133Y-113337544D02*
X106249133Y-113337544D01*
X106249133Y-113337544D02*
X106382466Y-113370877D01*
X106382466Y-113370877D02*
X106449133Y-113404211D01*
X106449133Y-113404211D02*
X106515800Y-113470877D01*
X106515800Y-113470877D02*
X106549133Y-113570877D01*
X106549133Y-113570877D02*
X106549133Y-113737544D01*
X106549133Y-113037544D02*
X105849133Y-113037544D01*
X105849133Y-113037544D02*
X105849133Y-112870877D01*
X105849133Y-112870877D02*
X105882466Y-112770877D01*
X105882466Y-112770877D02*
X105949133Y-112704211D01*
X105949133Y-112704211D02*
X106015800Y-112670877D01*
X106015800Y-112670877D02*
X106149133Y-112637544D01*
X106149133Y-112637544D02*
X106249133Y-112637544D01*
X106249133Y-112637544D02*
X106382466Y-112670877D01*
X106382466Y-112670877D02*
X106449133Y-112704211D01*
X106449133Y-112704211D02*
X106515800Y-112770877D01*
X106515800Y-112770877D02*
X106549133Y-112870877D01*
X106549133Y-112870877D02*
X106549133Y-113037544D01*
X106515800Y-111940877D02*
X106549133Y-111840877D01*
X106549133Y-111840877D02*
X106549133Y-111674211D01*
X106549133Y-111674211D02*
X106515800Y-111607544D01*
X106515800Y-111607544D02*
X106482466Y-111574211D01*
X106482466Y-111574211D02*
X106415800Y-111540877D01*
X106415800Y-111540877D02*
X106349133Y-111540877D01*
X106349133Y-111540877D02*
X106282466Y-111574211D01*
X106282466Y-111574211D02*
X106249133Y-111607544D01*
X106249133Y-111607544D02*
X106215800Y-111674211D01*
X106215800Y-111674211D02*
X106182466Y-111807544D01*
X106182466Y-111807544D02*
X106149133Y-111874211D01*
X106149133Y-111874211D02*
X106115800Y-111907544D01*
X106115800Y-111907544D02*
X106049133Y-111940877D01*
X106049133Y-111940877D02*
X105982466Y-111940877D01*
X105982466Y-111940877D02*
X105915800Y-111907544D01*
X105915800Y-111907544D02*
X105882466Y-111874211D01*
X105882466Y-111874211D02*
X105849133Y-111807544D01*
X105849133Y-111807544D02*
X105849133Y-111640877D01*
X105849133Y-111640877D02*
X105882466Y-111540877D01*
X106549133Y-111240877D02*
X105849133Y-111240877D01*
X105849133Y-111240877D02*
X105849133Y-111074210D01*
X105849133Y-111074210D02*
X105882466Y-110974210D01*
X105882466Y-110974210D02*
X105949133Y-110907544D01*
X105949133Y-110907544D02*
X106015800Y-110874210D01*
X106015800Y-110874210D02*
X106149133Y-110840877D01*
X106149133Y-110840877D02*
X106249133Y-110840877D01*
X106249133Y-110840877D02*
X106382466Y-110874210D01*
X106382466Y-110874210D02*
X106449133Y-110907544D01*
X106449133Y-110907544D02*
X106515800Y-110974210D01*
X106515800Y-110974210D02*
X106549133Y-111074210D01*
X106549133Y-111074210D02*
X106549133Y-111240877D01*
X106349133Y-110574210D02*
X106349133Y-110240877D01*
X106549133Y-110640877D02*
X105849133Y-110407544D01*
X105849133Y-110407544D02*
X106549133Y-110174210D01*
X112752455Y-122132466D02*
X113285789Y-122132466D01*
X114285789Y-121699133D02*
X114419122Y-121699133D01*
X114419122Y-121699133D02*
X114485789Y-121732466D01*
X114485789Y-121732466D02*
X114552455Y-121799133D01*
X114552455Y-121799133D02*
X114585789Y-121932466D01*
X114585789Y-121932466D02*
X114585789Y-122165800D01*
X114585789Y-122165800D02*
X114552455Y-122299133D01*
X114552455Y-122299133D02*
X114485789Y-122365800D01*
X114485789Y-122365800D02*
X114419122Y-122399133D01*
X114419122Y-122399133D02*
X114285789Y-122399133D01*
X114285789Y-122399133D02*
X114219122Y-122365800D01*
X114219122Y-122365800D02*
X114152455Y-122299133D01*
X114152455Y-122299133D02*
X114119122Y-122165800D01*
X114119122Y-122165800D02*
X114119122Y-121932466D01*
X114119122Y-121932466D02*
X114152455Y-121799133D01*
X114152455Y-121799133D02*
X114219122Y-121732466D01*
X114219122Y-121732466D02*
X114285789Y-121699133D01*
X114885788Y-121699133D02*
X114885788Y-122265800D01*
X114885788Y-122265800D02*
X114919122Y-122332466D01*
X114919122Y-122332466D02*
X114952455Y-122365800D01*
X114952455Y-122365800D02*
X115019122Y-122399133D01*
X115019122Y-122399133D02*
X115152455Y-122399133D01*
X115152455Y-122399133D02*
X115219122Y-122365800D01*
X115219122Y-122365800D02*
X115252455Y-122332466D01*
X115252455Y-122332466D02*
X115285788Y-122265800D01*
X115285788Y-122265800D02*
X115285788Y-121699133D01*
X115519121Y-121699133D02*
X115919121Y-121699133D01*
X115719121Y-122399133D02*
X115719121Y-121699133D01*
X116685787Y-122132466D02*
X117219121Y-122132466D01*
X116952454Y-122399133D02*
X116952454Y-121865800D01*
X106515800Y-109670877D02*
X106549133Y-109570877D01*
X106549133Y-109570877D02*
X106549133Y-109404211D01*
X106549133Y-109404211D02*
X106515800Y-109337544D01*
X106515800Y-109337544D02*
X106482466Y-109304211D01*
X106482466Y-109304211D02*
X106415800Y-109270877D01*
X106415800Y-109270877D02*
X106349133Y-109270877D01*
X106349133Y-109270877D02*
X106282466Y-109304211D01*
X106282466Y-109304211D02*
X106249133Y-109337544D01*
X106249133Y-109337544D02*
X106215800Y-109404211D01*
X106215800Y-109404211D02*
X106182466Y-109537544D01*
X106182466Y-109537544D02*
X106149133Y-109604211D01*
X106149133Y-109604211D02*
X106115800Y-109637544D01*
X106115800Y-109637544D02*
X106049133Y-109670877D01*
X106049133Y-109670877D02*
X105982466Y-109670877D01*
X105982466Y-109670877D02*
X105915800Y-109637544D01*
X105915800Y-109637544D02*
X105882466Y-109604211D01*
X105882466Y-109604211D02*
X105849133Y-109537544D01*
X105849133Y-109537544D02*
X105849133Y-109370877D01*
X105849133Y-109370877D02*
X105882466Y-109270877D01*
X106482466Y-108570877D02*
X106515800Y-108604210D01*
X106515800Y-108604210D02*
X106549133Y-108704210D01*
X106549133Y-108704210D02*
X106549133Y-108770877D01*
X106549133Y-108770877D02*
X106515800Y-108870877D01*
X106515800Y-108870877D02*
X106449133Y-108937544D01*
X106449133Y-108937544D02*
X106382466Y-108970877D01*
X106382466Y-108970877D02*
X106249133Y-109004210D01*
X106249133Y-109004210D02*
X106149133Y-109004210D01*
X106149133Y-109004210D02*
X106015800Y-108970877D01*
X106015800Y-108970877D02*
X105949133Y-108937544D01*
X105949133Y-108937544D02*
X105882466Y-108870877D01*
X105882466Y-108870877D02*
X105849133Y-108770877D01*
X105849133Y-108770877D02*
X105849133Y-108704210D01*
X105849133Y-108704210D02*
X105882466Y-108604210D01*
X105882466Y-108604210D02*
X105915800Y-108570877D01*
X106549133Y-107937544D02*
X106549133Y-108270877D01*
X106549133Y-108270877D02*
X105849133Y-108270877D01*
X118963333Y-120975300D02*
X118896666Y-120941966D01*
X118896666Y-120941966D02*
X118830000Y-120875300D01*
X118830000Y-120875300D02*
X118730000Y-120775300D01*
X118730000Y-120775300D02*
X118663333Y-120741966D01*
X118663333Y-120741966D02*
X118596666Y-120741966D01*
X118630000Y-120908633D02*
X118563333Y-120875300D01*
X118563333Y-120875300D02*
X118496666Y-120808633D01*
X118496666Y-120808633D02*
X118463333Y-120675300D01*
X118463333Y-120675300D02*
X118463333Y-120441966D01*
X118463333Y-120441966D02*
X118496666Y-120308633D01*
X118496666Y-120308633D02*
X118563333Y-120241966D01*
X118563333Y-120241966D02*
X118630000Y-120208633D01*
X118630000Y-120208633D02*
X118763333Y-120208633D01*
X118763333Y-120208633D02*
X118830000Y-120241966D01*
X118830000Y-120241966D02*
X118896666Y-120308633D01*
X118896666Y-120308633D02*
X118930000Y-120441966D01*
X118930000Y-120441966D02*
X118930000Y-120675300D01*
X118930000Y-120675300D02*
X118896666Y-120808633D01*
X118896666Y-120808633D02*
X118830000Y-120875300D01*
X118830000Y-120875300D02*
X118763333Y-120908633D01*
X118763333Y-120908633D02*
X118630000Y-120908633D01*
X119596666Y-120908633D02*
X119196666Y-120908633D01*
X119396666Y-120908633D02*
X119396666Y-120208633D01*
X119396666Y-120208633D02*
X119329999Y-120308633D01*
X119329999Y-120308633D02*
X119263333Y-120375300D01*
X119263333Y-120375300D02*
X119196666Y-120408633D01*
X107218633Y-103426666D02*
X106885300Y-103659999D01*
X107218633Y-103826666D02*
X106518633Y-103826666D01*
X106518633Y-103826666D02*
X106518633Y-103559999D01*
X106518633Y-103559999D02*
X106551966Y-103493333D01*
X106551966Y-103493333D02*
X106585300Y-103459999D01*
X106585300Y-103459999D02*
X106651966Y-103426666D01*
X106651966Y-103426666D02*
X106751966Y-103426666D01*
X106751966Y-103426666D02*
X106818633Y-103459999D01*
X106818633Y-103459999D02*
X106851966Y-103493333D01*
X106851966Y-103493333D02*
X106885300Y-103559999D01*
X106885300Y-103559999D02*
X106885300Y-103826666D01*
X107218633Y-102759999D02*
X107218633Y-103159999D01*
X107218633Y-102959999D02*
X106518633Y-102959999D01*
X106518633Y-102959999D02*
X106618633Y-103026666D01*
X106618633Y-103026666D02*
X106685300Y-103093333D01*
X106685300Y-103093333D02*
X106718633Y-103159999D01*
X118853333Y-117168633D02*
X118620000Y-116835300D01*
X118453333Y-117168633D02*
X118453333Y-116468633D01*
X118453333Y-116468633D02*
X118720000Y-116468633D01*
X118720000Y-116468633D02*
X118786667Y-116501966D01*
X118786667Y-116501966D02*
X118820000Y-116535300D01*
X118820000Y-116535300D02*
X118853333Y-116601966D01*
X118853333Y-116601966D02*
X118853333Y-116701966D01*
X118853333Y-116701966D02*
X118820000Y-116768633D01*
X118820000Y-116768633D02*
X118786667Y-116801966D01*
X118786667Y-116801966D02*
X118720000Y-116835300D01*
X118720000Y-116835300D02*
X118453333Y-116835300D01*
X119253333Y-116768633D02*
X119186667Y-116735300D01*
X119186667Y-116735300D02*
X119153333Y-116701966D01*
X119153333Y-116701966D02*
X119120000Y-116635300D01*
X119120000Y-116635300D02*
X119120000Y-116601966D01*
X119120000Y-116601966D02*
X119153333Y-116535300D01*
X119153333Y-116535300D02*
X119186667Y-116501966D01*
X119186667Y-116501966D02*
X119253333Y-116468633D01*
X119253333Y-116468633D02*
X119386667Y-116468633D01*
X119386667Y-116468633D02*
X119453333Y-116501966D01*
X119453333Y-116501966D02*
X119486667Y-116535300D01*
X119486667Y-116535300D02*
X119520000Y-116601966D01*
X119520000Y-116601966D02*
X119520000Y-116635300D01*
X119520000Y-116635300D02*
X119486667Y-116701966D01*
X119486667Y-116701966D02*
X119453333Y-116735300D01*
X119453333Y-116735300D02*
X119386667Y-116768633D01*
X119386667Y-116768633D02*
X119253333Y-116768633D01*
X119253333Y-116768633D02*
X119186667Y-116801966D01*
X119186667Y-116801966D02*
X119153333Y-116835300D01*
X119153333Y-116835300D02*
X119120000Y-116901966D01*
X119120000Y-116901966D02*
X119120000Y-117035300D01*
X119120000Y-117035300D02*
X119153333Y-117101966D01*
X119153333Y-117101966D02*
X119186667Y-117135300D01*
X119186667Y-117135300D02*
X119253333Y-117168633D01*
X119253333Y-117168633D02*
X119386667Y-117168633D01*
X119386667Y-117168633D02*
X119453333Y-117135300D01*
X119453333Y-117135300D02*
X119486667Y-117101966D01*
X119486667Y-117101966D02*
X119520000Y-117035300D01*
X119520000Y-117035300D02*
X119520000Y-116901966D01*
X119520000Y-116901966D02*
X119486667Y-116835300D01*
X119486667Y-116835300D02*
X119453333Y-116801966D01*
X119453333Y-116801966D02*
X119386667Y-116768633D01*
X114838633Y-119256666D02*
X114505300Y-119489999D01*
X114838633Y-119656666D02*
X114138633Y-119656666D01*
X114138633Y-119656666D02*
X114138633Y-119389999D01*
X114138633Y-119389999D02*
X114171966Y-119323333D01*
X114171966Y-119323333D02*
X114205300Y-119289999D01*
X114205300Y-119289999D02*
X114271966Y-119256666D01*
X114271966Y-119256666D02*
X114371966Y-119256666D01*
X114371966Y-119256666D02*
X114438633Y-119289999D01*
X114438633Y-119289999D02*
X114471966Y-119323333D01*
X114471966Y-119323333D02*
X114505300Y-119389999D01*
X114505300Y-119389999D02*
X114505300Y-119656666D01*
X114138633Y-119023333D02*
X114138633Y-118556666D01*
X114138633Y-118556666D02*
X114838633Y-118856666D01*
X113258633Y-119236666D02*
X112925300Y-119469999D01*
X113258633Y-119636666D02*
X112558633Y-119636666D01*
X112558633Y-119636666D02*
X112558633Y-119369999D01*
X112558633Y-119369999D02*
X112591966Y-119303333D01*
X112591966Y-119303333D02*
X112625300Y-119269999D01*
X112625300Y-119269999D02*
X112691966Y-119236666D01*
X112691966Y-119236666D02*
X112791966Y-119236666D01*
X112791966Y-119236666D02*
X112858633Y-119269999D01*
X112858633Y-119269999D02*
X112891966Y-119303333D01*
X112891966Y-119303333D02*
X112925300Y-119369999D01*
X112925300Y-119369999D02*
X112925300Y-119636666D01*
X112558633Y-118636666D02*
X112558633Y-118769999D01*
X112558633Y-118769999D02*
X112591966Y-118836666D01*
X112591966Y-118836666D02*
X112625300Y-118869999D01*
X112625300Y-118869999D02*
X112725300Y-118936666D01*
X112725300Y-118936666D02*
X112858633Y-118969999D01*
X112858633Y-118969999D02*
X113125300Y-118969999D01*
X113125300Y-118969999D02*
X113191966Y-118936666D01*
X113191966Y-118936666D02*
X113225300Y-118903333D01*
X113225300Y-118903333D02*
X113258633Y-118836666D01*
X113258633Y-118836666D02*
X113258633Y-118703333D01*
X113258633Y-118703333D02*
X113225300Y-118636666D01*
X113225300Y-118636666D02*
X113191966Y-118603333D01*
X113191966Y-118603333D02*
X113125300Y-118569999D01*
X113125300Y-118569999D02*
X112958633Y-118569999D01*
X112958633Y-118569999D02*
X112891966Y-118603333D01*
X112891966Y-118603333D02*
X112858633Y-118636666D01*
X112858633Y-118636666D02*
X112825300Y-118703333D01*
X112825300Y-118703333D02*
X112825300Y-118836666D01*
X112825300Y-118836666D02*
X112858633Y-118903333D01*
X112858633Y-118903333D02*
X112891966Y-118936666D01*
X112891966Y-118936666D02*
X112958633Y-118969999D01*
X127213333Y-115748633D02*
X126980000Y-115415300D01*
X126813333Y-115748633D02*
X126813333Y-115048633D01*
X126813333Y-115048633D02*
X127080000Y-115048633D01*
X127080000Y-115048633D02*
X127146667Y-115081966D01*
X127146667Y-115081966D02*
X127180000Y-115115300D01*
X127180000Y-115115300D02*
X127213333Y-115181966D01*
X127213333Y-115181966D02*
X127213333Y-115281966D01*
X127213333Y-115281966D02*
X127180000Y-115348633D01*
X127180000Y-115348633D02*
X127146667Y-115381966D01*
X127146667Y-115381966D02*
X127080000Y-115415300D01*
X127080000Y-115415300D02*
X126813333Y-115415300D01*
X127846667Y-115048633D02*
X127513333Y-115048633D01*
X127513333Y-115048633D02*
X127480000Y-115381966D01*
X127480000Y-115381966D02*
X127513333Y-115348633D01*
X127513333Y-115348633D02*
X127580000Y-115315300D01*
X127580000Y-115315300D02*
X127746667Y-115315300D01*
X127746667Y-115315300D02*
X127813333Y-115348633D01*
X127813333Y-115348633D02*
X127846667Y-115381966D01*
X127846667Y-115381966D02*
X127880000Y-115448633D01*
X127880000Y-115448633D02*
X127880000Y-115615300D01*
X127880000Y-115615300D02*
X127846667Y-115681966D01*
X127846667Y-115681966D02*
X127813333Y-115715300D01*
X127813333Y-115715300D02*
X127746667Y-115748633D01*
X127746667Y-115748633D02*
X127580000Y-115748633D01*
X127580000Y-115748633D02*
X127513333Y-115715300D01*
X127513333Y-115715300D02*
X127480000Y-115681966D01*
X122948633Y-119886666D02*
X122615300Y-120119999D01*
X122948633Y-120286666D02*
X122248633Y-120286666D01*
X122248633Y-120286666D02*
X122248633Y-120019999D01*
X122248633Y-120019999D02*
X122281966Y-119953333D01*
X122281966Y-119953333D02*
X122315300Y-119919999D01*
X122315300Y-119919999D02*
X122381966Y-119886666D01*
X122381966Y-119886666D02*
X122481966Y-119886666D01*
X122481966Y-119886666D02*
X122548633Y-119919999D01*
X122548633Y-119919999D02*
X122581966Y-119953333D01*
X122581966Y-119953333D02*
X122615300Y-120019999D01*
X122615300Y-120019999D02*
X122615300Y-120286666D01*
X122481966Y-119286666D02*
X122948633Y-119286666D01*
X122215300Y-119453333D02*
X122715300Y-119619999D01*
X122715300Y-119619999D02*
X122715300Y-119186666D01*
X108568633Y-114716666D02*
X108235300Y-114949999D01*
X108568633Y-115116666D02*
X107868633Y-115116666D01*
X107868633Y-115116666D02*
X107868633Y-114849999D01*
X107868633Y-114849999D02*
X107901966Y-114783333D01*
X107901966Y-114783333D02*
X107935300Y-114749999D01*
X107935300Y-114749999D02*
X108001966Y-114716666D01*
X108001966Y-114716666D02*
X108101966Y-114716666D01*
X108101966Y-114716666D02*
X108168633Y-114749999D01*
X108168633Y-114749999D02*
X108201966Y-114783333D01*
X108201966Y-114783333D02*
X108235300Y-114849999D01*
X108235300Y-114849999D02*
X108235300Y-115116666D01*
X107868633Y-114483333D02*
X107868633Y-114049999D01*
X107868633Y-114049999D02*
X108135300Y-114283333D01*
X108135300Y-114283333D02*
X108135300Y-114183333D01*
X108135300Y-114183333D02*
X108168633Y-114116666D01*
X108168633Y-114116666D02*
X108201966Y-114083333D01*
X108201966Y-114083333D02*
X108268633Y-114049999D01*
X108268633Y-114049999D02*
X108435300Y-114049999D01*
X108435300Y-114049999D02*
X108501966Y-114083333D01*
X108501966Y-114083333D02*
X108535300Y-114116666D01*
X108535300Y-114116666D02*
X108568633Y-114183333D01*
X108568633Y-114183333D02*
X108568633Y-114383333D01*
X108568633Y-114383333D02*
X108535300Y-114449999D01*
X108535300Y-114449999D02*
X108501966Y-114483333D01*
X108628633Y-106416666D02*
X108295300Y-106649999D01*
X108628633Y-106816666D02*
X107928633Y-106816666D01*
X107928633Y-106816666D02*
X107928633Y-106549999D01*
X107928633Y-106549999D02*
X107961966Y-106483333D01*
X107961966Y-106483333D02*
X107995300Y-106449999D01*
X107995300Y-106449999D02*
X108061966Y-106416666D01*
X108061966Y-106416666D02*
X108161966Y-106416666D01*
X108161966Y-106416666D02*
X108228633Y-106449999D01*
X108228633Y-106449999D02*
X108261966Y-106483333D01*
X108261966Y-106483333D02*
X108295300Y-106549999D01*
X108295300Y-106549999D02*
X108295300Y-106816666D01*
X107995300Y-106149999D02*
X107961966Y-106116666D01*
X107961966Y-106116666D02*
X107928633Y-106049999D01*
X107928633Y-106049999D02*
X107928633Y-105883333D01*
X107928633Y-105883333D02*
X107961966Y-105816666D01*
X107961966Y-105816666D02*
X107995300Y-105783333D01*
X107995300Y-105783333D02*
X108061966Y-105749999D01*
X108061966Y-105749999D02*
X108128633Y-105749999D01*
X108128633Y-105749999D02*
X108228633Y-105783333D01*
X108228633Y-105783333D02*
X108628633Y-106183333D01*
X108628633Y-106183333D02*
X108628633Y-105749999D01*
X115286666Y-109128633D02*
X115286666Y-108428633D01*
X116019999Y-109061966D02*
X115986666Y-109095300D01*
X115986666Y-109095300D02*
X115886666Y-109128633D01*
X115886666Y-109128633D02*
X115819999Y-109128633D01*
X115819999Y-109128633D02*
X115719999Y-109095300D01*
X115719999Y-109095300D02*
X115653333Y-109028633D01*
X115653333Y-109028633D02*
X115619999Y-108961966D01*
X115619999Y-108961966D02*
X115586666Y-108828633D01*
X115586666Y-108828633D02*
X115586666Y-108728633D01*
X115586666Y-108728633D02*
X115619999Y-108595300D01*
X115619999Y-108595300D02*
X115653333Y-108528633D01*
X115653333Y-108528633D02*
X115719999Y-108461966D01*
X115719999Y-108461966D02*
X115819999Y-108428633D01*
X115819999Y-108428633D02*
X115886666Y-108428633D01*
X115886666Y-108428633D02*
X115986666Y-108461966D01*
X115986666Y-108461966D02*
X116019999Y-108495300D01*
X116686666Y-109128633D02*
X116286666Y-109128633D01*
X116486666Y-109128633D02*
X116486666Y-108428633D01*
X116486666Y-108428633D02*
X116419999Y-108528633D01*
X116419999Y-108528633D02*
X116353333Y-108595300D01*
X116353333Y-108595300D02*
X116286666Y-108628633D01*
X126328633Y-110066666D02*
X125628633Y-110066666D01*
X125628633Y-110066666D02*
X125628633Y-109899999D01*
X125628633Y-109899999D02*
X125661966Y-109799999D01*
X125661966Y-109799999D02*
X125728633Y-109733333D01*
X125728633Y-109733333D02*
X125795300Y-109699999D01*
X125795300Y-109699999D02*
X125928633Y-109666666D01*
X125928633Y-109666666D02*
X126028633Y-109666666D01*
X126028633Y-109666666D02*
X126161966Y-109699999D01*
X126161966Y-109699999D02*
X126228633Y-109733333D01*
X126228633Y-109733333D02*
X126295300Y-109799999D01*
X126295300Y-109799999D02*
X126328633Y-109899999D01*
X126328633Y-109899999D02*
X126328633Y-110066666D01*
X126328633Y-108999999D02*
X126328633Y-109399999D01*
X126328633Y-109199999D02*
X125628633Y-109199999D01*
X125628633Y-109199999D02*
X125728633Y-109266666D01*
X125728633Y-109266666D02*
X125795300Y-109333333D01*
X125795300Y-109333333D02*
X125828633Y-109399999D01*
X120901966Y-119886666D02*
X120935300Y-119919999D01*
X120935300Y-119919999D02*
X120968633Y-120019999D01*
X120968633Y-120019999D02*
X120968633Y-120086666D01*
X120968633Y-120086666D02*
X120935300Y-120186666D01*
X120935300Y-120186666D02*
X120868633Y-120253333D01*
X120868633Y-120253333D02*
X120801966Y-120286666D01*
X120801966Y-120286666D02*
X120668633Y-120319999D01*
X120668633Y-120319999D02*
X120568633Y-120319999D01*
X120568633Y-120319999D02*
X120435300Y-120286666D01*
X120435300Y-120286666D02*
X120368633Y-120253333D01*
X120368633Y-120253333D02*
X120301966Y-120186666D01*
X120301966Y-120186666D02*
X120268633Y-120086666D01*
X120268633Y-120086666D02*
X120268633Y-120019999D01*
X120268633Y-120019999D02*
X120301966Y-119919999D01*
X120301966Y-119919999D02*
X120335300Y-119886666D01*
X120501966Y-119286666D02*
X120968633Y-119286666D01*
X120235300Y-119453333D02*
X120735300Y-119619999D01*
X120735300Y-119619999D02*
X120735300Y-119186666D01*
X123013333Y-114031966D02*
X122980000Y-114065300D01*
X122980000Y-114065300D02*
X122880000Y-114098633D01*
X122880000Y-114098633D02*
X122813333Y-114098633D01*
X122813333Y-114098633D02*
X122713333Y-114065300D01*
X122713333Y-114065300D02*
X122646667Y-113998633D01*
X122646667Y-113998633D02*
X122613333Y-113931966D01*
X122613333Y-113931966D02*
X122580000Y-113798633D01*
X122580000Y-113798633D02*
X122580000Y-113698633D01*
X122580000Y-113698633D02*
X122613333Y-113565300D01*
X122613333Y-113565300D02*
X122646667Y-113498633D01*
X122646667Y-113498633D02*
X122713333Y-113431966D01*
X122713333Y-113431966D02*
X122813333Y-113398633D01*
X122813333Y-113398633D02*
X122880000Y-113398633D01*
X122880000Y-113398633D02*
X122980000Y-113431966D01*
X122980000Y-113431966D02*
X123013333Y-113465300D01*
X123246667Y-113398633D02*
X123680000Y-113398633D01*
X123680000Y-113398633D02*
X123446667Y-113665300D01*
X123446667Y-113665300D02*
X123546667Y-113665300D01*
X123546667Y-113665300D02*
X123613333Y-113698633D01*
X123613333Y-113698633D02*
X123646667Y-113731966D01*
X123646667Y-113731966D02*
X123680000Y-113798633D01*
X123680000Y-113798633D02*
X123680000Y-113965300D01*
X123680000Y-113965300D02*
X123646667Y-114031966D01*
X123646667Y-114031966D02*
X123613333Y-114065300D01*
X123613333Y-114065300D02*
X123546667Y-114098633D01*
X123546667Y-114098633D02*
X123346667Y-114098633D01*
X123346667Y-114098633D02*
X123280000Y-114065300D01*
X123280000Y-114065300D02*
X123246667Y-114031966D01*
X122973333Y-111281966D02*
X122940000Y-111315300D01*
X122940000Y-111315300D02*
X122840000Y-111348633D01*
X122840000Y-111348633D02*
X122773333Y-111348633D01*
X122773333Y-111348633D02*
X122673333Y-111315300D01*
X122673333Y-111315300D02*
X122606667Y-111248633D01*
X122606667Y-111248633D02*
X122573333Y-111181966D01*
X122573333Y-111181966D02*
X122540000Y-111048633D01*
X122540000Y-111048633D02*
X122540000Y-110948633D01*
X122540000Y-110948633D02*
X122573333Y-110815300D01*
X122573333Y-110815300D02*
X122606667Y-110748633D01*
X122606667Y-110748633D02*
X122673333Y-110681966D01*
X122673333Y-110681966D02*
X122773333Y-110648633D01*
X122773333Y-110648633D02*
X122840000Y-110648633D01*
X122840000Y-110648633D02*
X122940000Y-110681966D01*
X122940000Y-110681966D02*
X122973333Y-110715300D01*
X123240000Y-110715300D02*
X123273333Y-110681966D01*
X123273333Y-110681966D02*
X123340000Y-110648633D01*
X123340000Y-110648633D02*
X123506667Y-110648633D01*
X123506667Y-110648633D02*
X123573333Y-110681966D01*
X123573333Y-110681966D02*
X123606667Y-110715300D01*
X123606667Y-110715300D02*
X123640000Y-110781966D01*
X123640000Y-110781966D02*
X123640000Y-110848633D01*
X123640000Y-110848633D02*
X123606667Y-110948633D01*
X123606667Y-110948633D02*
X123206667Y-111348633D01*
X123206667Y-111348633D02*
X123640000Y-111348633D01*
X123008333Y-109641966D02*
X122975000Y-109675300D01*
X122975000Y-109675300D02*
X122875000Y-109708633D01*
X122875000Y-109708633D02*
X122808333Y-109708633D01*
X122808333Y-109708633D02*
X122708333Y-109675300D01*
X122708333Y-109675300D02*
X122641667Y-109608633D01*
X122641667Y-109608633D02*
X122608333Y-109541966D01*
X122608333Y-109541966D02*
X122575000Y-109408633D01*
X122575000Y-109408633D02*
X122575000Y-109308633D01*
X122575000Y-109308633D02*
X122608333Y-109175300D01*
X122608333Y-109175300D02*
X122641667Y-109108633D01*
X122641667Y-109108633D02*
X122708333Y-109041966D01*
X122708333Y-109041966D02*
X122808333Y-109008633D01*
X122808333Y-109008633D02*
X122875000Y-109008633D01*
X122875000Y-109008633D02*
X122975000Y-109041966D01*
X122975000Y-109041966D02*
X123008333Y-109075300D01*
X123675000Y-109708633D02*
X123275000Y-109708633D01*
X123475000Y-109708633D02*
X123475000Y-109008633D01*
X123475000Y-109008633D02*
X123408333Y-109108633D01*
X123408333Y-109108633D02*
X123341667Y-109175300D01*
X123341667Y-109175300D02*
X123275000Y-109208633D01*
%TO.C,Q1*%
X117310000Y-121090000D02*
X117760000Y-121090000D01*
X117760000Y-121090000D02*
X117760000Y-120790000D01*
X116710000Y-121090000D02*
X116260000Y-121090000D01*
X116260000Y-121090000D02*
X116260000Y-120790000D01*
X117210000Y-119090000D02*
X116810000Y-119090000D01*
X117610000Y-118790000D02*
X117610000Y-118790000D01*
X117510000Y-118790000D02*
X117510000Y-118790000D01*
X117510000Y-118790000D02*
G75*
G03*
X117610000Y-118790000I50000J0D01*
G01*
X117610000Y-118790000D02*
G75*
G03*
X117510000Y-118790000I-50000J0D01*
G01*
%TO.C,J1*%
X118239135Y-106606994D02*
X118617651Y-106606994D01*
X119597400Y-105822366D02*
X119597400Y-99393394D01*
X111382349Y-106606994D02*
X111760865Y-106606994D01*
X110402600Y-99393394D02*
X110402600Y-105822366D01*
X119597400Y-99393394D02*
X110402600Y-99393394D01*
%TO.C,R1*%
X107787500Y-102982742D02*
X107787500Y-103457258D01*
X108832500Y-102982742D02*
X108832500Y-103457258D01*
%TO.C,R8*%
X116587742Y-117352500D02*
X117062258Y-117352500D01*
X116587742Y-116307500D02*
X117062258Y-116307500D01*
%TO.C,R7*%
X115027500Y-117157258D02*
X115027500Y-116682742D01*
X113982500Y-117157258D02*
X113982500Y-116682742D01*
%TO.C,R6*%
X113392500Y-117157258D02*
X113392500Y-116682742D01*
X112347500Y-117157258D02*
X112347500Y-116682742D01*
%TO.C,R5*%
X125382258Y-114817500D02*
X124907742Y-114817500D01*
X125382258Y-115862500D02*
X124907742Y-115862500D01*
%TO.C,R4*%
X122107500Y-117337742D02*
X122107500Y-117812258D01*
X123152500Y-117337742D02*
X123152500Y-117812258D01*
%TO.C,R3*%
X107727500Y-111982742D02*
X107727500Y-112457258D01*
X108772500Y-111982742D02*
X108772500Y-112457258D01*
%TO.C,R2*%
X107727500Y-108362742D02*
X107727500Y-108837258D01*
X108772500Y-108362742D02*
X108772500Y-108837258D01*
%TO.C,J3*%
X118860000Y-129600000D02*
X118860000Y-122980000D01*
X116600000Y-123980000D02*
X115400000Y-123980000D01*
X115400000Y-123980000D02*
X115400000Y-123380000D01*
X118860000Y-126290000D02*
X117850000Y-126290000D01*
X111140000Y-126290000D02*
X112150000Y-126290000D01*
X112090000Y-122680000D02*
X110840000Y-122680000D01*
X113400000Y-122980000D02*
X111140000Y-122980000D01*
X118860000Y-122980000D02*
X116600000Y-122980000D01*
X117850000Y-124590000D02*
X112150000Y-124590000D01*
X111140000Y-129600000D02*
X118860000Y-129600000D01*
X116600000Y-122980000D02*
X116600000Y-123980000D01*
X111140000Y-122980000D02*
X111140000Y-129600000D01*
X115400000Y-123380000D02*
X114600000Y-123380000D01*
X113400000Y-123980000D02*
X113400000Y-122980000D01*
X112150000Y-124590000D02*
X112150000Y-128890000D01*
X112150000Y-128890000D02*
X117850000Y-128890000D01*
X110840000Y-122680000D02*
X110840000Y-123930000D01*
X114600000Y-123380000D02*
X114600000Y-123980000D01*
X114600000Y-123980000D02*
X113400000Y-123980000D01*
X117850000Y-128890000D02*
X117850000Y-124590000D01*
%TO.C,J2*%
X101090000Y-110440000D02*
X100480000Y-110440000D01*
X104090000Y-112840000D02*
X104590000Y-112840000D01*
X100480000Y-115440000D02*
X101090000Y-115440000D01*
X100180000Y-118300000D02*
X101430000Y-118300000D01*
X104590000Y-117390000D02*
X104590000Y-108490000D01*
X100280000Y-116240000D02*
X100280000Y-116540000D01*
X103090000Y-107880000D02*
X103090000Y-108490000D01*
X104590000Y-113040000D02*
X104090000Y-113040000D01*
X104590000Y-112940000D02*
X104090000Y-112940000D01*
X104090000Y-111040000D02*
X104090000Y-110840000D01*
X100180000Y-117050000D02*
X100180000Y-118300000D01*
X103090000Y-118000000D02*
X103090000Y-117390000D01*
X100480000Y-107880000D02*
X100480000Y-118000000D01*
X100480000Y-118000000D02*
X105200000Y-118000000D01*
X101090000Y-117390000D02*
X104590000Y-117390000D01*
X104090000Y-113040000D02*
X104090000Y-112840000D01*
X104090000Y-114840000D02*
X104590000Y-114840000D01*
X100280000Y-116540000D02*
X100480000Y-116540000D01*
X105200000Y-118000000D02*
X105200000Y-107880000D01*
X101790000Y-118000000D02*
X101790000Y-117390000D01*
X100380000Y-116240000D02*
X100380000Y-116540000D01*
X104590000Y-111040000D02*
X104090000Y-111040000D01*
X104090000Y-110840000D02*
X104590000Y-110840000D01*
X104590000Y-114940000D02*
X104090000Y-114940000D01*
X101090000Y-115440000D02*
X101090000Y-117390000D01*
X104590000Y-108490000D02*
X101090000Y-108490000D01*
X104590000Y-115040000D02*
X104090000Y-115040000D01*
X101090000Y-108490000D02*
X101090000Y-110440000D01*
X105200000Y-107880000D02*
X100480000Y-107880000D01*
X104590000Y-110940000D02*
X104090000Y-110940000D01*
X101790000Y-107880000D02*
X101790000Y-108490000D01*
X104090000Y-115040000D02*
X104090000Y-114840000D01*
X100480000Y-116240000D02*
X100280000Y-116240000D01*
%TO.C,IC1*%
X117505000Y-109500000D02*
G75*
G03*
X117255000Y-109500000I-125000J0D01*
G01*
X117255000Y-109500000D02*
G75*
G03*
X117505000Y-109500000I125000J0D01*
G01*
%TO.C,D1*%
X126020000Y-113705000D02*
X126020000Y-113705000D01*
X126020000Y-113805000D02*
X126020000Y-113805000D01*
X126020000Y-113705000D02*
G75*
G03*
X126020000Y-113805000I0J-50000D01*
G01*
X126020000Y-113805000D02*
G75*
G03*
X126020000Y-113705000I0J50000D01*
G01*
%TO.C,C4*%
X121080000Y-117755580D02*
X121080000Y-117474420D01*
X120060000Y-117755580D02*
X120060000Y-117474420D01*
%TO.C,C3*%
X120735580Y-113270000D02*
X120454420Y-113270000D01*
X120735580Y-114290000D02*
X120454420Y-114290000D01*
%TO.C,C2*%
X120715580Y-110460000D02*
X120434420Y-110460000D01*
X120715580Y-111480000D02*
X120434420Y-111480000D01*
%TO.C,C1*%
X120449420Y-109960000D02*
X120730580Y-109960000D01*
X120449420Y-108940000D02*
X120730580Y-108940000D01*
%TD*%
M02*
