%TF.GenerationSoftware,KiCad,Pcbnew,7.0.11-2.fc38*%
%TF.CreationDate,2024-03-11T20:51:48+00:00*%
%TF.ProjectId,tonie-charger-pd,746f6e69-652d-4636-9861-726765722d70,rev?*%
%TF.SameCoordinates,Original*%
%TF.FileFunction,Legend,Bot*%
%TF.FilePolarity,Positive*%
%FSLAX46Y46*%
G04 Gerber Fmt 4.6, Leading zero omitted, Abs format (unit mm)*
G04 Created by KiCad (PCBNEW 7.0.11-2.fc38) date 2024-03-11 20:51:48*
%MOMM*%
%LPD*%
G01*
G04 APERTURE LIST*
%ADD10C,0.100000*%
G04 APERTURE END LIST*
D10*
X127869133Y-106202455D02*
X127869133Y-106602455D01*
X128569133Y-106402455D02*
X127869133Y-106402455D01*
X128569133Y-106935788D02*
X128535800Y-106869122D01*
X128535800Y-106869122D02*
X128502466Y-106835788D01*
X128502466Y-106835788D02*
X128435800Y-106802455D01*
X128435800Y-106802455D02*
X128235800Y-106802455D01*
X128235800Y-106802455D02*
X128169133Y-106835788D01*
X128169133Y-106835788D02*
X128135800Y-106869122D01*
X128135800Y-106869122D02*
X128102466Y-106935788D01*
X128102466Y-106935788D02*
X128102466Y-107035788D01*
X128102466Y-107035788D02*
X128135800Y-107102455D01*
X128135800Y-107102455D02*
X128169133Y-107135788D01*
X128169133Y-107135788D02*
X128235800Y-107169122D01*
X128235800Y-107169122D02*
X128435800Y-107169122D01*
X128435800Y-107169122D02*
X128502466Y-107135788D01*
X128502466Y-107135788D02*
X128535800Y-107102455D01*
X128535800Y-107102455D02*
X128569133Y-107035788D01*
X128569133Y-107035788D02*
X128569133Y-106935788D01*
X128102466Y-107469121D02*
X128569133Y-107469121D01*
X128169133Y-107469121D02*
X128135800Y-107502455D01*
X128135800Y-107502455D02*
X128102466Y-107569121D01*
X128102466Y-107569121D02*
X128102466Y-107669121D01*
X128102466Y-107669121D02*
X128135800Y-107735788D01*
X128135800Y-107735788D02*
X128202466Y-107769121D01*
X128202466Y-107769121D02*
X128569133Y-107769121D01*
X128569133Y-108102454D02*
X128102466Y-108102454D01*
X127869133Y-108102454D02*
X127902466Y-108069121D01*
X127902466Y-108069121D02*
X127935800Y-108102454D01*
X127935800Y-108102454D02*
X127902466Y-108135788D01*
X127902466Y-108135788D02*
X127869133Y-108102454D01*
X127869133Y-108102454D02*
X127935800Y-108102454D01*
X128535800Y-108702454D02*
X128569133Y-108635787D01*
X128569133Y-108635787D02*
X128569133Y-108502454D01*
X128569133Y-108502454D02*
X128535800Y-108435787D01*
X128535800Y-108435787D02*
X128469133Y-108402454D01*
X128469133Y-108402454D02*
X128202466Y-108402454D01*
X128202466Y-108402454D02*
X128135800Y-108435787D01*
X128135800Y-108435787D02*
X128102466Y-108502454D01*
X128102466Y-108502454D02*
X128102466Y-108635787D01*
X128102466Y-108635787D02*
X128135800Y-108702454D01*
X128135800Y-108702454D02*
X128202466Y-108735787D01*
X128202466Y-108735787D02*
X128269133Y-108735787D01*
X128269133Y-108735787D02*
X128335800Y-108402454D01*
X128502466Y-109969120D02*
X128535800Y-109935787D01*
X128535800Y-109935787D02*
X128569133Y-109835787D01*
X128569133Y-109835787D02*
X128569133Y-109769120D01*
X128569133Y-109769120D02*
X128535800Y-109669120D01*
X128535800Y-109669120D02*
X128469133Y-109602454D01*
X128469133Y-109602454D02*
X128402466Y-109569120D01*
X128402466Y-109569120D02*
X128269133Y-109535787D01*
X128269133Y-109535787D02*
X128169133Y-109535787D01*
X128169133Y-109535787D02*
X128035800Y-109569120D01*
X128035800Y-109569120D02*
X127969133Y-109602454D01*
X127969133Y-109602454D02*
X127902466Y-109669120D01*
X127902466Y-109669120D02*
X127869133Y-109769120D01*
X127869133Y-109769120D02*
X127869133Y-109835787D01*
X127869133Y-109835787D02*
X127902466Y-109935787D01*
X127902466Y-109935787D02*
X127935800Y-109969120D01*
X128569133Y-110269120D02*
X127869133Y-110269120D01*
X128569133Y-110569120D02*
X128202466Y-110569120D01*
X128202466Y-110569120D02*
X128135800Y-110535787D01*
X128135800Y-110535787D02*
X128102466Y-110469120D01*
X128102466Y-110469120D02*
X128102466Y-110369120D01*
X128102466Y-110369120D02*
X128135800Y-110302454D01*
X128135800Y-110302454D02*
X128169133Y-110269120D01*
X128569133Y-111202453D02*
X128202466Y-111202453D01*
X128202466Y-111202453D02*
X128135800Y-111169120D01*
X128135800Y-111169120D02*
X128102466Y-111102453D01*
X128102466Y-111102453D02*
X128102466Y-110969120D01*
X128102466Y-110969120D02*
X128135800Y-110902453D01*
X128535800Y-111202453D02*
X128569133Y-111135787D01*
X128569133Y-111135787D02*
X128569133Y-110969120D01*
X128569133Y-110969120D02*
X128535800Y-110902453D01*
X128535800Y-110902453D02*
X128469133Y-110869120D01*
X128469133Y-110869120D02*
X128402466Y-110869120D01*
X128402466Y-110869120D02*
X128335800Y-110902453D01*
X128335800Y-110902453D02*
X128302466Y-110969120D01*
X128302466Y-110969120D02*
X128302466Y-111135787D01*
X128302466Y-111135787D02*
X128269133Y-111202453D01*
X128569133Y-111535786D02*
X128102466Y-111535786D01*
X128235800Y-111535786D02*
X128169133Y-111569120D01*
X128169133Y-111569120D02*
X128135800Y-111602453D01*
X128135800Y-111602453D02*
X128102466Y-111669120D01*
X128102466Y-111669120D02*
X128102466Y-111735786D01*
X128102466Y-112269119D02*
X128669133Y-112269119D01*
X128669133Y-112269119D02*
X128735800Y-112235786D01*
X128735800Y-112235786D02*
X128769133Y-112202453D01*
X128769133Y-112202453D02*
X128802466Y-112135786D01*
X128802466Y-112135786D02*
X128802466Y-112035786D01*
X128802466Y-112035786D02*
X128769133Y-111969119D01*
X128535800Y-112269119D02*
X128569133Y-112202453D01*
X128569133Y-112202453D02*
X128569133Y-112069119D01*
X128569133Y-112069119D02*
X128535800Y-112002453D01*
X128535800Y-112002453D02*
X128502466Y-111969119D01*
X128502466Y-111969119D02*
X128435800Y-111935786D01*
X128435800Y-111935786D02*
X128235800Y-111935786D01*
X128235800Y-111935786D02*
X128169133Y-111969119D01*
X128169133Y-111969119D02*
X128135800Y-112002453D01*
X128135800Y-112002453D02*
X128102466Y-112069119D01*
X128102466Y-112069119D02*
X128102466Y-112202453D01*
X128102466Y-112202453D02*
X128135800Y-112269119D01*
X128535800Y-112869119D02*
X128569133Y-112802452D01*
X128569133Y-112802452D02*
X128569133Y-112669119D01*
X128569133Y-112669119D02*
X128535800Y-112602452D01*
X128535800Y-112602452D02*
X128469133Y-112569119D01*
X128469133Y-112569119D02*
X128202466Y-112569119D01*
X128202466Y-112569119D02*
X128135800Y-112602452D01*
X128135800Y-112602452D02*
X128102466Y-112669119D01*
X128102466Y-112669119D02*
X128102466Y-112802452D01*
X128102466Y-112802452D02*
X128135800Y-112869119D01*
X128135800Y-112869119D02*
X128202466Y-112902452D01*
X128202466Y-112902452D02*
X128269133Y-112902452D01*
X128269133Y-112902452D02*
X128335800Y-112569119D01*
X128569133Y-113202452D02*
X128102466Y-113202452D01*
X128235800Y-113202452D02*
X128169133Y-113235786D01*
X128169133Y-113235786D02*
X128135800Y-113269119D01*
X128135800Y-113269119D02*
X128102466Y-113335786D01*
X128102466Y-113335786D02*
X128102466Y-113402452D01*
X128569133Y-114169118D02*
X127869133Y-114169118D01*
X127869133Y-114169118D02*
X127869133Y-114435785D01*
X127869133Y-114435785D02*
X127902466Y-114502452D01*
X127902466Y-114502452D02*
X127935800Y-114535785D01*
X127935800Y-114535785D02*
X128002466Y-114569118D01*
X128002466Y-114569118D02*
X128102466Y-114569118D01*
X128102466Y-114569118D02*
X128169133Y-114535785D01*
X128169133Y-114535785D02*
X128202466Y-114502452D01*
X128202466Y-114502452D02*
X128235800Y-114435785D01*
X128235800Y-114435785D02*
X128235800Y-114169118D01*
X128569133Y-114869118D02*
X127869133Y-114869118D01*
X127869133Y-114869118D02*
X127869133Y-115035785D01*
X127869133Y-115035785D02*
X127902466Y-115135785D01*
X127902466Y-115135785D02*
X127969133Y-115202452D01*
X127969133Y-115202452D02*
X128035800Y-115235785D01*
X128035800Y-115235785D02*
X128169133Y-115269118D01*
X128169133Y-115269118D02*
X128269133Y-115269118D01*
X128269133Y-115269118D02*
X128402466Y-115235785D01*
X128402466Y-115235785D02*
X128469133Y-115202452D01*
X128469133Y-115202452D02*
X128535800Y-115135785D01*
X128535800Y-115135785D02*
X128569133Y-115035785D01*
X128569133Y-115035785D02*
X128569133Y-114869118D01*
X128569133Y-116469118D02*
X128569133Y-116069118D01*
X128569133Y-116269118D02*
X127869133Y-116269118D01*
X127869133Y-116269118D02*
X127969133Y-116202451D01*
X127969133Y-116202451D02*
X128035800Y-116135785D01*
X128035800Y-116135785D02*
X128069133Y-116069118D01*
X128502466Y-116769118D02*
X128535800Y-116802452D01*
X128535800Y-116802452D02*
X128569133Y-116769118D01*
X128569133Y-116769118D02*
X128535800Y-116735785D01*
X128535800Y-116735785D02*
X128502466Y-116769118D01*
X128502466Y-116769118D02*
X128569133Y-116769118D01*
X127869133Y-117235785D02*
X127869133Y-117302451D01*
X127869133Y-117302451D02*
X127902466Y-117369118D01*
X127902466Y-117369118D02*
X127935800Y-117402451D01*
X127935800Y-117402451D02*
X128002466Y-117435785D01*
X128002466Y-117435785D02*
X128135800Y-117469118D01*
X128135800Y-117469118D02*
X128302466Y-117469118D01*
X128302466Y-117469118D02*
X128435800Y-117435785D01*
X128435800Y-117435785D02*
X128502466Y-117402451D01*
X128502466Y-117402451D02*
X128535800Y-117369118D01*
X128535800Y-117369118D02*
X128569133Y-117302451D01*
X128569133Y-117302451D02*
X128569133Y-117235785D01*
X128569133Y-117235785D02*
X128535800Y-117169118D01*
X128535800Y-117169118D02*
X128502466Y-117135785D01*
X128502466Y-117135785D02*
X128435800Y-117102451D01*
X128435800Y-117102451D02*
X128302466Y-117069118D01*
X128302466Y-117069118D02*
X128135800Y-117069118D01*
X128135800Y-117069118D02*
X128002466Y-117102451D01*
X128002466Y-117102451D02*
X127935800Y-117135785D01*
X127935800Y-117135785D02*
X127902466Y-117169118D01*
X127902466Y-117169118D02*
X127869133Y-117235785D01*
X127935800Y-118269118D02*
X127902466Y-118302451D01*
X127902466Y-118302451D02*
X127869133Y-118369118D01*
X127869133Y-118369118D02*
X127869133Y-118535785D01*
X127869133Y-118535785D02*
X127902466Y-118602451D01*
X127902466Y-118602451D02*
X127935800Y-118635785D01*
X127935800Y-118635785D02*
X128002466Y-118669118D01*
X128002466Y-118669118D02*
X128069133Y-118669118D01*
X128069133Y-118669118D02*
X128169133Y-118635785D01*
X128169133Y-118635785D02*
X128569133Y-118235785D01*
X128569133Y-118235785D02*
X128569133Y-118669118D01*
X127869133Y-119102452D02*
X127869133Y-119169118D01*
X127869133Y-119169118D02*
X127902466Y-119235785D01*
X127902466Y-119235785D02*
X127935800Y-119269118D01*
X127935800Y-119269118D02*
X128002466Y-119302452D01*
X128002466Y-119302452D02*
X128135800Y-119335785D01*
X128135800Y-119335785D02*
X128302466Y-119335785D01*
X128302466Y-119335785D02*
X128435800Y-119302452D01*
X128435800Y-119302452D02*
X128502466Y-119269118D01*
X128502466Y-119269118D02*
X128535800Y-119235785D01*
X128535800Y-119235785D02*
X128569133Y-119169118D01*
X128569133Y-119169118D02*
X128569133Y-119102452D01*
X128569133Y-119102452D02*
X128535800Y-119035785D01*
X128535800Y-119035785D02*
X128502466Y-119002452D01*
X128502466Y-119002452D02*
X128435800Y-118969118D01*
X128435800Y-118969118D02*
X128302466Y-118935785D01*
X128302466Y-118935785D02*
X128135800Y-118935785D01*
X128135800Y-118935785D02*
X128002466Y-118969118D01*
X128002466Y-118969118D02*
X127935800Y-119002452D01*
X127935800Y-119002452D02*
X127902466Y-119035785D01*
X127902466Y-119035785D02*
X127869133Y-119102452D01*
X127935800Y-119602452D02*
X127902466Y-119635785D01*
X127902466Y-119635785D02*
X127869133Y-119702452D01*
X127869133Y-119702452D02*
X127869133Y-119869119D01*
X127869133Y-119869119D02*
X127902466Y-119935785D01*
X127902466Y-119935785D02*
X127935800Y-119969119D01*
X127935800Y-119969119D02*
X128002466Y-120002452D01*
X128002466Y-120002452D02*
X128069133Y-120002452D01*
X128069133Y-120002452D02*
X128169133Y-119969119D01*
X128169133Y-119969119D02*
X128569133Y-119569119D01*
X128569133Y-119569119D02*
X128569133Y-120002452D01*
X128102466Y-120602452D02*
X128569133Y-120602452D01*
X127835800Y-120435786D02*
X128335800Y-120269119D01*
X128335800Y-120269119D02*
X128335800Y-120702452D01*
X127869133Y-121102453D02*
X127869133Y-121169119D01*
X127869133Y-121169119D02*
X127902466Y-121235786D01*
X127902466Y-121235786D02*
X127935800Y-121269119D01*
X127935800Y-121269119D02*
X128002466Y-121302453D01*
X128002466Y-121302453D02*
X128135800Y-121335786D01*
X128135800Y-121335786D02*
X128302466Y-121335786D01*
X128302466Y-121335786D02*
X128435800Y-121302453D01*
X128435800Y-121302453D02*
X128502466Y-121269119D01*
X128502466Y-121269119D02*
X128535800Y-121235786D01*
X128535800Y-121235786D02*
X128569133Y-121169119D01*
X128569133Y-121169119D02*
X128569133Y-121102453D01*
X128569133Y-121102453D02*
X128535800Y-121035786D01*
X128535800Y-121035786D02*
X128502466Y-121002453D01*
X128502466Y-121002453D02*
X128435800Y-120969119D01*
X128435800Y-120969119D02*
X128302466Y-120935786D01*
X128302466Y-120935786D02*
X128135800Y-120935786D01*
X128135800Y-120935786D02*
X128002466Y-120969119D01*
X128002466Y-120969119D02*
X127935800Y-121002453D01*
X127935800Y-121002453D02*
X127902466Y-121035786D01*
X127902466Y-121035786D02*
X127869133Y-121102453D01*
X127869133Y-121569120D02*
X127869133Y-122002453D01*
X127869133Y-122002453D02*
X128135800Y-121769120D01*
X128135800Y-121769120D02*
X128135800Y-121869120D01*
X128135800Y-121869120D02*
X128169133Y-121935786D01*
X128169133Y-121935786D02*
X128202466Y-121969120D01*
X128202466Y-121969120D02*
X128269133Y-122002453D01*
X128269133Y-122002453D02*
X128435800Y-122002453D01*
X128435800Y-122002453D02*
X128502466Y-121969120D01*
X128502466Y-121969120D02*
X128535800Y-121935786D01*
X128535800Y-121935786D02*
X128569133Y-121869120D01*
X128569133Y-121869120D02*
X128569133Y-121669120D01*
X128569133Y-121669120D02*
X128535800Y-121602453D01*
X128535800Y-121602453D02*
X128502466Y-121569120D01*
X128569133Y-122669120D02*
X128569133Y-122269120D01*
X128569133Y-122469120D02*
X127869133Y-122469120D01*
X127869133Y-122469120D02*
X127969133Y-122402453D01*
X127969133Y-122402453D02*
X128035800Y-122335787D01*
X128035800Y-122335787D02*
X128069133Y-122269120D01*
X128569133Y-123335787D02*
X128569133Y-122935787D01*
X128569133Y-123135787D02*
X127869133Y-123135787D01*
X127869133Y-123135787D02*
X127969133Y-123069120D01*
X127969133Y-123069120D02*
X128035800Y-123002454D01*
X128035800Y-123002454D02*
X128069133Y-122935787D01*
M02*
