M48
; DRILL file {KiCad 7.0.11-2.fc38} date Mon 11 Mar 2024 20:51:42 GMT
; FORMAT={-:-/ absolute / inch / decimal}
; #@! TF.CreationDate,2024-03-11T20:51:42+00:00
; #@! TF.GenerationSoftware,Kicad,Pcbnew,7.0.11-2.fc38
; #@! TF.FileFunction,Plated,1,2,PTH
FMAT,2
INCH
; #@! TA.AperFunction,Plated,PTH,ComponentDrill
T1C0.0010
; #@! TA.AperFunction,Plated,PTH,ViaDrill
T2C0.0118
; #@! TA.AperFunction,Plated,PTH,ViaDrill
T3C0.0197
; #@! TA.AperFunction,Plated,PTH,ComponentDrill
T4C0.0200
; #@! TA.AperFunction,Plated,PTH,ComponentDrill
T5C0.0295
; #@! TA.AperFunction,Plated,PTH,ComponentDrill
T6C0.0374
%
G90
G05
T1
X4.3575Y-4.0205
X4.3575Y-4.1701
X4.6976Y-4.1701
T2
X4.0799Y-4.7724
X4.1154Y-4.7724
X4.1496Y-4.7724
X4.1894Y-4.5224
X4.2004Y-4.2024
X4.3272Y-4.4803
X4.3461Y-4.5236
X4.348Y-4.6063
X4.3618Y-4.4539
X4.3941Y-4.4843
X4.3957Y-4.4217
X4.7012Y-4.5559
X4.75Y-4.4382
X4.8866Y-4.2252
T3
X4.2783Y-4.6303
X4.463Y-4.2563
X4.6358Y-4.2567
X4.9591Y-4.6248
T4
X4.6976Y-4.0205
T5
X4.0272Y-4.3283
X4.0272Y-4.4071
X4.0272Y-4.4858
X4.0272Y-4.5646
T6
X4.4783Y-4.972
X4.5768Y-4.972
T1
G00X4.6976Y-4.0205
M15
G01X4.6976Y-4.0205
M16
G05
M30
