%TF.GenerationSoftware,KiCad,Pcbnew,7.0.11-2.fc38*%
%TF.CreationDate,2024-03-11T20:51:48+00:00*%
%TF.ProjectId,tonie-charger-pd,746f6e69-652d-4636-9861-726765722d70,rev?*%
%TF.SameCoordinates,Original*%
%TF.FileFunction,Copper,L2,Bot*%
%TF.FilePolarity,Positive*%
%FSLAX46Y46*%
G04 Gerber Fmt 4.6, Leading zero omitted, Abs format (unit mm)*
G04 Created by KiCad (PCBNEW 7.0.11-2.fc38) date 2024-03-11 20:51:48*
%MOMM*%
%LPD*%
G01*
G04 APERTURE LIST*
G04 Aperture macros list*
%AMRoundRect*
0 Rectangle with rounded corners*
0 $1 Rounding radius*
0 $2 $3 $4 $5 $6 $7 $8 $9 X,Y pos of 4 corners*
0 Add a 4 corners polygon primitive as box body*
4,1,4,$2,$3,$4,$5,$6,$7,$8,$9,$2,$3,0*
0 Add four circle primitives for the rounded corners*
1,1,$1+$1,$2,$3*
1,1,$1+$1,$4,$5*
1,1,$1+$1,$6,$7*
1,1,$1+$1,$8,$9*
0 Add four rect primitives between the rounded corners*
20,1,$1+$1,$2,$3,$4,$5,0*
20,1,$1+$1,$4,$5,$6,$7,0*
20,1,$1+$1,$6,$7,$8,$9,0*
20,1,$1+$1,$8,$9,$2,$3,0*%
G04 Aperture macros list end*
%TA.AperFunction,ComponentPad*%
%ADD10O,1.117600X1.701800*%
%TD*%
%TA.AperFunction,ComponentPad*%
%ADD11C,0.762000*%
%TD*%
%TA.AperFunction,ComponentPad*%
%ADD12RoundRect,0.250000X-0.600000X-0.725000X0.600000X-0.725000X0.600000X0.725000X-0.600000X0.725000X0*%
%TD*%
%TA.AperFunction,ComponentPad*%
%ADD13O,1.700000X1.950000*%
%TD*%
%TA.AperFunction,ComponentPad*%
%ADD14RoundRect,0.250000X0.625000X-0.350000X0.625000X0.350000X-0.625000X0.350000X-0.625000X-0.350000X0*%
%TD*%
%TA.AperFunction,ComponentPad*%
%ADD15O,1.750000X1.200000*%
%TD*%
%TA.AperFunction,ViaPad*%
%ADD16C,0.600000*%
%TD*%
%TA.AperFunction,ViaPad*%
%ADD17C,0.800000*%
%TD*%
%TA.AperFunction,Conductor*%
%ADD18C,0.400000*%
%TD*%
%TA.AperFunction,Conductor*%
%ADD19C,0.200000*%
%TD*%
G04 APERTURE END LIST*
D10*
%TO.P,J1,10,PAD*%
%TO.N,GND*%
X110679998Y-102119994D03*
%TO.P,J1,9,PAD*%
X110679998Y-105920000D03*
%TO.P,J1,7,PAD*%
X119320002Y-105920000D03*
%TO.P,J1,8,PAD*%
%TO.N,unconnected-(J1-PAD-Pad8)*%
X119320002Y-102119994D03*
D11*
%TO.P,J1,13*%
%TO.N,N/C*%
X119320002Y-102119994D03*
%TD*%
D12*
%TO.P,J3,1,Pin_1*%
%TO.N,GND*%
X113750000Y-126290000D03*
D13*
%TO.P,J3,2,Pin_2*%
%TO.N,/VSINK*%
X116250000Y-126290000D03*
%TD*%
D14*
%TO.P,J2,1,Pin_1*%
%TO.N,GND*%
X102290000Y-115940000D03*
D15*
%TO.P,J2,2,Pin_2*%
%TO.N,VDD*%
X102290000Y-113940000D03*
%TO.P,J2,3,Pin_3*%
%TO.N,/SDA*%
X102290000Y-111940000D03*
%TO.P,J2,4,Pin_4*%
%TO.N,/SCL*%
X102290000Y-109940000D03*
%TD*%
D16*
%TO.N,GND*%
X110440000Y-117000000D03*
X105400000Y-121220000D03*
X104530000Y-121220000D03*
X103630000Y-121220000D03*
D17*
%TO.N,VBUS*%
X125960000Y-117470000D03*
D16*
%TO.N,Net-(IC1-DISCH)*%
X109910000Y-113800000D03*
X119410000Y-115720000D03*
%TO.N,GND*%
X110790000Y-113130000D03*
X111610000Y-113900000D03*
X111650000Y-112310000D03*
D17*
%TO.N,VBUS*%
X108670000Y-117610000D03*
X113360000Y-108110000D03*
D16*
%TO.N,GND*%
X124120000Y-107320000D03*
%TO.N,VDD*%
X110390000Y-114900000D03*
X106410000Y-114870000D03*
X106690000Y-106740000D03*
D17*
%TO.N,VBUS*%
X117750000Y-108120000D03*
D16*
%TO.N,VDD*%
X120650000Y-112730000D03*
%TD*%
D18*
%TO.N,VBUS*%
X125960000Y-117470000D02*
X125960000Y-116330000D01*
X125960000Y-116330000D02*
X117750000Y-108120000D01*
D19*
%TO.N,Net-(IC1-DISCH)*%
X109910000Y-113800000D02*
X109790000Y-113920000D01*
X109790000Y-113920000D02*
X109790000Y-115180000D01*
X110330000Y-115720000D02*
X119410000Y-115720000D01*
X109790000Y-115180000D02*
X110330000Y-115720000D01*
%TO.N,VDD*%
X110390000Y-114900000D02*
X118480000Y-114900000D01*
X118480000Y-114900000D02*
X120650000Y-112730000D01*
D18*
%TO.N,VBUS*%
X108700000Y-117640000D02*
X108700000Y-117720000D01*
X108670000Y-117610000D02*
X108700000Y-117640000D01*
X108700000Y-117580000D02*
X108670000Y-117610000D01*
X108700000Y-112770000D02*
X108700000Y-117580000D01*
X113360000Y-108110000D02*
X108700000Y-112770000D01*
D19*
%TO.N,VDD*%
X106690000Y-106740000D02*
X106690000Y-114590000D01*
X106690000Y-114590000D02*
X106410000Y-114870000D01*
%TD*%
%TA.AperFunction,Conductor*%
%TO.N,GND*%
G36*
X129442539Y-100520185D02*
G01*
X129488294Y-100572989D01*
X129499500Y-100624500D01*
X129499500Y-129375500D01*
X129479815Y-129442539D01*
X129427011Y-129488294D01*
X129375500Y-129499500D01*
X100624500Y-129499500D01*
X100557461Y-129479815D01*
X100511706Y-129427011D01*
X100500500Y-129375500D01*
X100500500Y-127000000D01*
X101644341Y-127000000D01*
X101664936Y-127235403D01*
X101664938Y-127235413D01*
X101726094Y-127463655D01*
X101726096Y-127463659D01*
X101726097Y-127463663D01*
X101735275Y-127483345D01*
X101825964Y-127677828D01*
X101825965Y-127677830D01*
X101961505Y-127871402D01*
X102128597Y-128038494D01*
X102322169Y-128174034D01*
X102322171Y-128174035D01*
X102536337Y-128273903D01*
X102764592Y-128335063D01*
X102941032Y-128350499D01*
X102941033Y-128350500D01*
X102941034Y-128350500D01*
X103058967Y-128350500D01*
X103058967Y-128350499D01*
X103235408Y-128335063D01*
X103463663Y-128273903D01*
X103677829Y-128174035D01*
X103871401Y-128038495D01*
X104038495Y-127871401D01*
X104174035Y-127677830D01*
X104273903Y-127463663D01*
X104335063Y-127235408D01*
X104355659Y-127000000D01*
X104335063Y-126764592D01*
X104288626Y-126591285D01*
X104273905Y-126536344D01*
X104273904Y-126536343D01*
X104273903Y-126536337D01*
X104174035Y-126322171D01*
X104174034Y-126322169D01*
X104038494Y-126128597D01*
X103949897Y-126040000D01*
X112400000Y-126040000D01*
X113346031Y-126040000D01*
X113313481Y-126090649D01*
X113275000Y-126221705D01*
X113275000Y-126358295D01*
X113313481Y-126489351D01*
X113346031Y-126540000D01*
X112400001Y-126540000D01*
X112400001Y-127064986D01*
X112410494Y-127167697D01*
X112465641Y-127334119D01*
X112465643Y-127334124D01*
X112557684Y-127483345D01*
X112681654Y-127607315D01*
X112830875Y-127699356D01*
X112830880Y-127699358D01*
X112997302Y-127754505D01*
X112997309Y-127754506D01*
X113100019Y-127764999D01*
X113499999Y-127764999D01*
X113500000Y-127764998D01*
X113500000Y-126698018D01*
X113614801Y-126750446D01*
X113716025Y-126765000D01*
X113783975Y-126765000D01*
X113885199Y-126750446D01*
X114000000Y-126698018D01*
X114000000Y-127764999D01*
X114399972Y-127764999D01*
X114399986Y-127764998D01*
X114502697Y-127754505D01*
X114669119Y-127699358D01*
X114669124Y-127699356D01*
X114818345Y-127607315D01*
X114942315Y-127483345D01*
X115037815Y-127328516D01*
X115089763Y-127281792D01*
X115158726Y-127270569D01*
X115222808Y-127298413D01*
X115231035Y-127305931D01*
X115378599Y-127453495D01*
X115378602Y-127453497D01*
X115378603Y-127453498D01*
X115572165Y-127589032D01*
X115572167Y-127589033D01*
X115572170Y-127589035D01*
X115786337Y-127688903D01*
X115786343Y-127688904D01*
X115786344Y-127688905D01*
X115825356Y-127699358D01*
X116014592Y-127750063D01*
X116202918Y-127766539D01*
X116249999Y-127770659D01*
X116250000Y-127770659D01*
X116250001Y-127770659D01*
X116289234Y-127767226D01*
X116485408Y-127750063D01*
X116713663Y-127688903D01*
X116927829Y-127589035D01*
X117121401Y-127453495D01*
X117288495Y-127286401D01*
X117424035Y-127092829D01*
X117467322Y-127000000D01*
X125644341Y-127000000D01*
X125664936Y-127235403D01*
X125664938Y-127235413D01*
X125726094Y-127463655D01*
X125726096Y-127463659D01*
X125726097Y-127463663D01*
X125735275Y-127483345D01*
X125825964Y-127677828D01*
X125825965Y-127677830D01*
X125961505Y-127871402D01*
X126128597Y-128038494D01*
X126322169Y-128174034D01*
X126322171Y-128174035D01*
X126536337Y-128273903D01*
X126764592Y-128335063D01*
X126941032Y-128350499D01*
X126941033Y-128350500D01*
X126941034Y-128350500D01*
X127058967Y-128350500D01*
X127058967Y-128350499D01*
X127235408Y-128335063D01*
X127463663Y-128273903D01*
X127677829Y-128174035D01*
X127871401Y-128038495D01*
X128038495Y-127871401D01*
X128174035Y-127677830D01*
X128273903Y-127463663D01*
X128335063Y-127235408D01*
X128355659Y-127000000D01*
X128335063Y-126764592D01*
X128288626Y-126591285D01*
X128273905Y-126536344D01*
X128273904Y-126536343D01*
X128273903Y-126536337D01*
X128174035Y-126322171D01*
X128174034Y-126322169D01*
X128038494Y-126128597D01*
X127871402Y-125961505D01*
X127677830Y-125825965D01*
X127677828Y-125825964D01*
X127570746Y-125776031D01*
X127463663Y-125726097D01*
X127463659Y-125726096D01*
X127463655Y-125726094D01*
X127235413Y-125664938D01*
X127235403Y-125664936D01*
X127058967Y-125649500D01*
X127058966Y-125649500D01*
X126941034Y-125649500D01*
X126941033Y-125649500D01*
X126764596Y-125664936D01*
X126764586Y-125664938D01*
X126536344Y-125726094D01*
X126536335Y-125726098D01*
X126322171Y-125825964D01*
X126322169Y-125825965D01*
X126128597Y-125961505D01*
X125961506Y-126128597D01*
X125961501Y-126128604D01*
X125825967Y-126322165D01*
X125825965Y-126322169D01*
X125726098Y-126536335D01*
X125726094Y-126536344D01*
X125664938Y-126764586D01*
X125664936Y-126764596D01*
X125644341Y-126999999D01*
X125644341Y-127000000D01*
X117467322Y-127000000D01*
X117523903Y-126878663D01*
X117585063Y-126650408D01*
X117600500Y-126473966D01*
X117600500Y-126106034D01*
X117585063Y-125929592D01*
X117523903Y-125701337D01*
X117424035Y-125487171D01*
X117371617Y-125412309D01*
X117288494Y-125293597D01*
X117121402Y-125126506D01*
X117121395Y-125126501D01*
X116927834Y-124990967D01*
X116927830Y-124990965D01*
X116888626Y-124972684D01*
X116713663Y-124891097D01*
X116713659Y-124891096D01*
X116713655Y-124891094D01*
X116485413Y-124829938D01*
X116485403Y-124829936D01*
X116250001Y-124809341D01*
X116249999Y-124809341D01*
X116014596Y-124829936D01*
X116014586Y-124829938D01*
X115786344Y-124891094D01*
X115786335Y-124891098D01*
X115572171Y-124990964D01*
X115572169Y-124990965D01*
X115378597Y-125126505D01*
X115231035Y-125274068D01*
X115169712Y-125307553D01*
X115100020Y-125302569D01*
X115044087Y-125260697D01*
X115037815Y-125251484D01*
X114942315Y-125096654D01*
X114818345Y-124972684D01*
X114669124Y-124880643D01*
X114669119Y-124880641D01*
X114502697Y-124825494D01*
X114502690Y-124825493D01*
X114399986Y-124815000D01*
X114000000Y-124815000D01*
X114000000Y-125881981D01*
X113885199Y-125829554D01*
X113783975Y-125815000D01*
X113716025Y-125815000D01*
X113614801Y-125829554D01*
X113500000Y-125881981D01*
X113500000Y-124815000D01*
X113100028Y-124815000D01*
X113100012Y-124815001D01*
X112997302Y-124825494D01*
X112830880Y-124880641D01*
X112830875Y-124880643D01*
X112681654Y-124972684D01*
X112557684Y-125096654D01*
X112465643Y-125245875D01*
X112465641Y-125245880D01*
X112410494Y-125412302D01*
X112410493Y-125412309D01*
X112400000Y-125515013D01*
X112400000Y-126040000D01*
X103949897Y-126040000D01*
X103871402Y-125961505D01*
X103677830Y-125825965D01*
X103677828Y-125825964D01*
X103570746Y-125776031D01*
X103463663Y-125726097D01*
X103463659Y-125726096D01*
X103463655Y-125726094D01*
X103235413Y-125664938D01*
X103235403Y-125664936D01*
X103058967Y-125649500D01*
X103058966Y-125649500D01*
X102941034Y-125649500D01*
X102941033Y-125649500D01*
X102764596Y-125664936D01*
X102764586Y-125664938D01*
X102536344Y-125726094D01*
X102536335Y-125726098D01*
X102322171Y-125825964D01*
X102322169Y-125825965D01*
X102128597Y-125961505D01*
X101961506Y-126128597D01*
X101961501Y-126128604D01*
X101825967Y-126322165D01*
X101825965Y-126322169D01*
X101726098Y-126536335D01*
X101726094Y-126536344D01*
X101664938Y-126764586D01*
X101664936Y-126764596D01*
X101644341Y-126999999D01*
X101644341Y-127000000D01*
X100500500Y-127000000D01*
X100500500Y-117610000D01*
X107764540Y-117610000D01*
X107784326Y-117798256D01*
X107784327Y-117798259D01*
X107842818Y-117978277D01*
X107842821Y-117978284D01*
X107937467Y-118142216D01*
X108038251Y-118254148D01*
X108064129Y-118282888D01*
X108217265Y-118394148D01*
X108217270Y-118394151D01*
X108390192Y-118471142D01*
X108390197Y-118471144D01*
X108575354Y-118510500D01*
X108575355Y-118510500D01*
X108764644Y-118510500D01*
X108764646Y-118510500D01*
X108949803Y-118471144D01*
X109122730Y-118394151D01*
X109275871Y-118282888D01*
X109402533Y-118142216D01*
X109497179Y-117978284D01*
X109555674Y-117798256D01*
X109575460Y-117610000D01*
X109555674Y-117421744D01*
X109497179Y-117241716D01*
X109417113Y-117103037D01*
X109400500Y-117041037D01*
X109400500Y-115939097D01*
X109420185Y-115872058D01*
X109472989Y-115826303D01*
X109542147Y-115816359D01*
X109605703Y-115845384D01*
X109612181Y-115851416D01*
X109871799Y-116111034D01*
X109882493Y-116123228D01*
X109901718Y-116148282D01*
X109998131Y-116222262D01*
X110027159Y-116244536D01*
X110027162Y-116244537D01*
X110027163Y-116244538D01*
X110099168Y-116274363D01*
X110173238Y-116305044D01*
X110248862Y-116315000D01*
X110329999Y-116325682D01*
X110330000Y-116325682D01*
X110361302Y-116321560D01*
X110377487Y-116320500D01*
X118827588Y-116320500D01*
X118894627Y-116340185D01*
X118904903Y-116347555D01*
X118907736Y-116349814D01*
X118907738Y-116349816D01*
X119060478Y-116445789D01*
X119230745Y-116505368D01*
X119230750Y-116505369D01*
X119409996Y-116525565D01*
X119410000Y-116525565D01*
X119410004Y-116525565D01*
X119589249Y-116505369D01*
X119589252Y-116505368D01*
X119589255Y-116505368D01*
X119759522Y-116445789D01*
X119912262Y-116349816D01*
X120039816Y-116222262D01*
X120135789Y-116069522D01*
X120195368Y-115899255D01*
X120195369Y-115899249D01*
X120215565Y-115720003D01*
X120215565Y-115719996D01*
X120195369Y-115540750D01*
X120195368Y-115540745D01*
X120135788Y-115370476D01*
X120073204Y-115270875D01*
X120039816Y-115217738D01*
X119912262Y-115090184D01*
X119847124Y-115049255D01*
X119759523Y-114994211D01*
X119589252Y-114934631D01*
X119580306Y-114933623D01*
X119515892Y-114906555D01*
X119476339Y-114848959D01*
X119474202Y-114779122D01*
X119506509Y-114722724D01*
X120668535Y-113560698D01*
X120729856Y-113527215D01*
X120742311Y-113525163D01*
X120829255Y-113515368D01*
X120999522Y-113455789D01*
X121152262Y-113359816D01*
X121279816Y-113232262D01*
X121375789Y-113079522D01*
X121399539Y-113011645D01*
X121440260Y-112954870D01*
X121505212Y-112929122D01*
X121573774Y-112942577D01*
X121604262Y-112964919D01*
X125223181Y-116583838D01*
X125256666Y-116645161D01*
X125259500Y-116671519D01*
X125259500Y-116854608D01*
X125239815Y-116921647D01*
X125227656Y-116937574D01*
X125227468Y-116937782D01*
X125227464Y-116937787D01*
X125132821Y-117101715D01*
X125132818Y-117101722D01*
X125087330Y-117241722D01*
X125074326Y-117281744D01*
X125054540Y-117470000D01*
X125074326Y-117658256D01*
X125074327Y-117658259D01*
X125132818Y-117838277D01*
X125132821Y-117838284D01*
X125227467Y-118002216D01*
X125353522Y-118142214D01*
X125354129Y-118142888D01*
X125507265Y-118254148D01*
X125507270Y-118254151D01*
X125680192Y-118331142D01*
X125680197Y-118331144D01*
X125865354Y-118370500D01*
X125865355Y-118370500D01*
X126054644Y-118370500D01*
X126054646Y-118370500D01*
X126239803Y-118331144D01*
X126412730Y-118254151D01*
X126565871Y-118142888D01*
X126692533Y-118002216D01*
X126787179Y-117838284D01*
X126845674Y-117658256D01*
X126865460Y-117470000D01*
X126845674Y-117281744D01*
X126787179Y-117101716D01*
X126692533Y-116937784D01*
X126692344Y-116937574D01*
X126692273Y-116937427D01*
X126688714Y-116932528D01*
X126689610Y-116931876D01*
X126662119Y-116874580D01*
X126660500Y-116854608D01*
X126660500Y-116354908D01*
X126660726Y-116347421D01*
X126664357Y-116287394D01*
X126664356Y-116287391D01*
X126653516Y-116228235D01*
X126652389Y-116220830D01*
X126645140Y-116161129D01*
X126645139Y-116161125D01*
X126641546Y-116151651D01*
X126635519Y-116130029D01*
X126633694Y-116120070D01*
X126633694Y-116120068D01*
X126609012Y-116065228D01*
X126606151Y-116058322D01*
X126584818Y-116002070D01*
X126579059Y-115993727D01*
X126568030Y-115974172D01*
X126566780Y-115971395D01*
X126563877Y-115964943D01*
X126563874Y-115964938D01*
X126526788Y-115917601D01*
X126522349Y-115911569D01*
X126513845Y-115899249D01*
X126488183Y-115862071D01*
X126443153Y-115822178D01*
X126437715Y-115817058D01*
X118676503Y-108055846D01*
X118643018Y-107994523D01*
X118640865Y-107981143D01*
X118635674Y-107931744D01*
X118632423Y-107921740D01*
X118577181Y-107751722D01*
X118577180Y-107751721D01*
X118577179Y-107751716D01*
X118482533Y-107587784D01*
X118355871Y-107447112D01*
X118355870Y-107447111D01*
X118202734Y-107335851D01*
X118202729Y-107335848D01*
X118029807Y-107258857D01*
X118029802Y-107258855D01*
X117884001Y-107227865D01*
X117844646Y-107219500D01*
X117655354Y-107219500D01*
X117622897Y-107226398D01*
X117470197Y-107258855D01*
X117470192Y-107258857D01*
X117297270Y-107335848D01*
X117297265Y-107335851D01*
X117144129Y-107447111D01*
X117017466Y-107587785D01*
X116922821Y-107751715D01*
X116922818Y-107751722D01*
X116867575Y-107921744D01*
X116864326Y-107931744D01*
X116844540Y-108120000D01*
X116864326Y-108308256D01*
X116864327Y-108308259D01*
X116922818Y-108488277D01*
X116922821Y-108488284D01*
X117017467Y-108652216D01*
X117135125Y-108782888D01*
X117144129Y-108792888D01*
X117297265Y-108904148D01*
X117297270Y-108904151D01*
X117470191Y-108981142D01*
X117470193Y-108981142D01*
X117470197Y-108981144D01*
X117625130Y-109014075D01*
X117686607Y-109047266D01*
X117687026Y-109047683D01*
X120415080Y-111775737D01*
X120448565Y-111837060D01*
X120443581Y-111906752D01*
X120401709Y-111962685D01*
X120368354Y-111980459D01*
X120300480Y-112004209D01*
X120147737Y-112100184D01*
X120020184Y-112227737D01*
X119924210Y-112380478D01*
X119864630Y-112550750D01*
X119854837Y-112637668D01*
X119827770Y-112702082D01*
X119819298Y-112711465D01*
X118267584Y-114263181D01*
X118206261Y-114296666D01*
X118179903Y-114299500D01*
X110972412Y-114299500D01*
X110905373Y-114279815D01*
X110895097Y-114272445D01*
X110892263Y-114270185D01*
X110892262Y-114270184D01*
X110739522Y-114174211D01*
X110733626Y-114170506D01*
X110734893Y-114168488D01*
X110691324Y-114129140D01*
X110673021Y-114061711D01*
X110679952Y-114023308D01*
X110695368Y-113979255D01*
X110695369Y-113979248D01*
X110715565Y-113800003D01*
X110715565Y-113799996D01*
X110695369Y-113620750D01*
X110695368Y-113620745D01*
X110674357Y-113560700D01*
X110635789Y-113450478D01*
X110539816Y-113297738D01*
X110412262Y-113170184D01*
X110364078Y-113139908D01*
X110259523Y-113074211D01*
X110089254Y-113014631D01*
X110089249Y-113014630D01*
X109910004Y-112994435D01*
X109909996Y-112994435D01*
X109762013Y-113011108D01*
X109693191Y-112999053D01*
X109641812Y-112951704D01*
X109624188Y-112884094D01*
X109645915Y-112817688D01*
X109660444Y-112800212D01*
X113422975Y-109037681D01*
X113484296Y-109004198D01*
X113484362Y-109004183D01*
X113639803Y-108971144D01*
X113639807Y-108971142D01*
X113639808Y-108971142D01*
X113698058Y-108945206D01*
X113812730Y-108894151D01*
X113965871Y-108782888D01*
X114092533Y-108642216D01*
X114187179Y-108478284D01*
X114245674Y-108298256D01*
X114265460Y-108110000D01*
X114245674Y-107921744D01*
X114187179Y-107741716D01*
X114092533Y-107577784D01*
X113965871Y-107437112D01*
X113965870Y-107437111D01*
X113812734Y-107325851D01*
X113812729Y-107325848D01*
X113639807Y-107248857D01*
X113639802Y-107248855D01*
X113494001Y-107217865D01*
X113454646Y-107209500D01*
X113265354Y-107209500D01*
X113232897Y-107216398D01*
X113080197Y-107248855D01*
X113080192Y-107248857D01*
X112907270Y-107325848D01*
X112907265Y-107325851D01*
X112754129Y-107437111D01*
X112627466Y-107577785D01*
X112532821Y-107741715D01*
X112532818Y-107741722D01*
X112474327Y-107921739D01*
X112474325Y-107921750D01*
X112469134Y-107971129D01*
X112442549Y-108035743D01*
X112433495Y-108045846D01*
X108222290Y-112257051D01*
X108216838Y-112262183D01*
X108171819Y-112302068D01*
X108137649Y-112351569D01*
X108133213Y-112357597D01*
X108096124Y-112404938D01*
X108096119Y-112404948D01*
X108091960Y-112414188D01*
X108080942Y-112433723D01*
X108075187Y-112442061D01*
X108075179Y-112442076D01*
X108053853Y-112498305D01*
X108050989Y-112505220D01*
X108026305Y-112560068D01*
X108024477Y-112570042D01*
X108018453Y-112591653D01*
X108014860Y-112601127D01*
X108014860Y-112601128D01*
X108007610Y-112660827D01*
X108006483Y-112668227D01*
X107995642Y-112727389D01*
X107995642Y-112727395D01*
X107999274Y-112787432D01*
X107999500Y-112794920D01*
X107999500Y-116961289D01*
X107979815Y-117028328D01*
X107967650Y-117044261D01*
X107937470Y-117077778D01*
X107937465Y-117077785D01*
X107842821Y-117241715D01*
X107842818Y-117241722D01*
X107784327Y-117421740D01*
X107784326Y-117421744D01*
X107764540Y-117610000D01*
X100500500Y-117610000D01*
X100500500Y-113887401D01*
X100910746Y-113887401D01*
X100920745Y-114097327D01*
X100970296Y-114301578D01*
X100970298Y-114301582D01*
X101057598Y-114492743D01*
X101057601Y-114492748D01*
X101057602Y-114492750D01*
X101057604Y-114492753D01*
X101154882Y-114629361D01*
X101179515Y-114663953D01*
X101282456Y-114762107D01*
X101317391Y-114822616D01*
X101314066Y-114892406D01*
X101273538Y-114949321D01*
X101261983Y-114957388D01*
X101196659Y-114997680D01*
X101196655Y-114997683D01*
X101072684Y-115121654D01*
X100980643Y-115270875D01*
X100980641Y-115270880D01*
X100925494Y-115437302D01*
X100925493Y-115437309D01*
X100915000Y-115540013D01*
X100915000Y-115690000D01*
X102010440Y-115690000D01*
X101971722Y-115732059D01*
X101921449Y-115846670D01*
X101911114Y-115971395D01*
X101941837Y-116092719D01*
X102005394Y-116190000D01*
X100915001Y-116190000D01*
X100915001Y-116339986D01*
X100925494Y-116442697D01*
X100980641Y-116609119D01*
X100980643Y-116609124D01*
X101072684Y-116758345D01*
X101196654Y-116882315D01*
X101345875Y-116974356D01*
X101345880Y-116974358D01*
X101512302Y-117029505D01*
X101512309Y-117029506D01*
X101615019Y-117039999D01*
X102039999Y-117039999D01*
X102040000Y-117039998D01*
X102040000Y-116220617D01*
X102109052Y-116274363D01*
X102227424Y-116315000D01*
X102321073Y-116315000D01*
X102413446Y-116299586D01*
X102523514Y-116240019D01*
X102540000Y-116222110D01*
X102540000Y-117039999D01*
X102964972Y-117039999D01*
X102964986Y-117039998D01*
X103067697Y-117029505D01*
X103234119Y-116974358D01*
X103234124Y-116974356D01*
X103383345Y-116882315D01*
X103507315Y-116758345D01*
X103599356Y-116609124D01*
X103599358Y-116609119D01*
X103654505Y-116442697D01*
X103654506Y-116442690D01*
X103664999Y-116339986D01*
X103665000Y-116339973D01*
X103665000Y-116190000D01*
X102569560Y-116190000D01*
X102608278Y-116147941D01*
X102658551Y-116033330D01*
X102668886Y-115908605D01*
X102638163Y-115787281D01*
X102574606Y-115690000D01*
X103664999Y-115690000D01*
X103664999Y-115540028D01*
X103664998Y-115540013D01*
X103654505Y-115437302D01*
X103599358Y-115270880D01*
X103599356Y-115270875D01*
X103507315Y-115121654D01*
X103383344Y-114997683D01*
X103383340Y-114997680D01*
X103319841Y-114958513D01*
X103273116Y-114906565D01*
X103267167Y-114870003D01*
X105604435Y-114870003D01*
X105624630Y-115049249D01*
X105624631Y-115049254D01*
X105684211Y-115219523D01*
X105716478Y-115270875D01*
X105780184Y-115372262D01*
X105907738Y-115499816D01*
X106060478Y-115595789D01*
X106230745Y-115655368D01*
X106230750Y-115655369D01*
X106409996Y-115675565D01*
X106410000Y-115675565D01*
X106410004Y-115675565D01*
X106589249Y-115655369D01*
X106589252Y-115655368D01*
X106589255Y-115655368D01*
X106759522Y-115595789D01*
X106912262Y-115499816D01*
X107039816Y-115372262D01*
X107135789Y-115219522D01*
X107195368Y-115049255D01*
X107210454Y-114915352D01*
X107219110Y-114881797D01*
X107275044Y-114746762D01*
X107290500Y-114629361D01*
X107295682Y-114590000D01*
X107294530Y-114581253D01*
X107291561Y-114558697D01*
X107290500Y-114542512D01*
X107290500Y-107322412D01*
X107310185Y-107255373D01*
X107317555Y-107245097D01*
X107319810Y-107242267D01*
X107319816Y-107242262D01*
X107415789Y-107089522D01*
X107475368Y-106919255D01*
X107475369Y-106919249D01*
X107495565Y-106740003D01*
X107495565Y-106739996D01*
X107475369Y-106560750D01*
X107475368Y-106560745D01*
X107415788Y-106390476D01*
X107336387Y-106264111D01*
X109621198Y-106264111D01*
X109636517Y-106419659D01*
X109697062Y-106619250D01*
X109795374Y-106803178D01*
X109795378Y-106803185D01*
X109927690Y-106964407D01*
X110088912Y-107096719D01*
X110088919Y-107096723D01*
X110272844Y-107195033D01*
X110272847Y-107195034D01*
X110429998Y-107242705D01*
X110429998Y-106882250D01*
X110449683Y-106815211D01*
X110502487Y-106769456D01*
X110571645Y-106759512D01*
X110587445Y-106762846D01*
X110603674Y-106767394D01*
X110603676Y-106767394D01*
X110717983Y-106767394D01*
X110789113Y-106757617D01*
X110858208Y-106767989D01*
X110910727Y-106814071D01*
X110929998Y-106880462D01*
X110929998Y-107242705D01*
X111087148Y-107195034D01*
X111087151Y-107195033D01*
X111271076Y-107096723D01*
X111271083Y-107096719D01*
X111432305Y-106964407D01*
X111564617Y-106803185D01*
X111564621Y-106803178D01*
X111662933Y-106619250D01*
X111723478Y-106419659D01*
X111738798Y-106264111D01*
X118261202Y-106264111D01*
X118276521Y-106419659D01*
X118337066Y-106619250D01*
X118435378Y-106803178D01*
X118435382Y-106803185D01*
X118567694Y-106964407D01*
X118728916Y-107096719D01*
X118728923Y-107096723D01*
X118912848Y-107195033D01*
X118912851Y-107195034D01*
X119070002Y-107242705D01*
X119070002Y-106882250D01*
X119089687Y-106815211D01*
X119142491Y-106769456D01*
X119211649Y-106759512D01*
X119227449Y-106762846D01*
X119243678Y-106767394D01*
X119243680Y-106767394D01*
X119357987Y-106767394D01*
X119429117Y-106757617D01*
X119498212Y-106767989D01*
X119550731Y-106814071D01*
X119570002Y-106880462D01*
X119570002Y-107242705D01*
X119727152Y-107195034D01*
X119727155Y-107195033D01*
X119911080Y-107096723D01*
X119911087Y-107096719D01*
X120072309Y-106964407D01*
X120204621Y-106803185D01*
X120204625Y-106803178D01*
X120302937Y-106619250D01*
X120363482Y-106419659D01*
X120378802Y-106264111D01*
X120378802Y-106170000D01*
X119979299Y-106170000D01*
X119912260Y-106150315D01*
X119866505Y-106097511D01*
X119857893Y-106071232D01*
X119848159Y-106024387D01*
X119848156Y-106024382D01*
X119848156Y-106024380D01*
X119834404Y-105997840D01*
X119820502Y-105940793D01*
X119820502Y-105899208D01*
X119827662Y-105857682D01*
X119865054Y-105752474D01*
X119906053Y-105695898D01*
X119971130Y-105670468D01*
X119981894Y-105670000D01*
X120378802Y-105670000D01*
X120378802Y-105575888D01*
X120363482Y-105420340D01*
X120302937Y-105220749D01*
X120204625Y-105036821D01*
X120204621Y-105036814D01*
X120072309Y-104875592D01*
X119911087Y-104743280D01*
X119911080Y-104743276D01*
X119727154Y-104644965D01*
X119570002Y-104597293D01*
X119570002Y-104957737D01*
X119550317Y-105024776D01*
X119497513Y-105070531D01*
X119428355Y-105080475D01*
X119412549Y-105077139D01*
X119396328Y-105072594D01*
X119396326Y-105072594D01*
X119282017Y-105072594D01*
X119282015Y-105072594D01*
X119210886Y-105082370D01*
X119141791Y-105071997D01*
X119089272Y-105025915D01*
X119070002Y-104959525D01*
X119070002Y-104597293D01*
X119070001Y-104597293D01*
X118912849Y-104644965D01*
X118728923Y-104743276D01*
X118728916Y-104743280D01*
X118567694Y-104875592D01*
X118435382Y-105036814D01*
X118435378Y-105036821D01*
X118337066Y-105220749D01*
X118276521Y-105420340D01*
X118261202Y-105575888D01*
X118261202Y-105670000D01*
X118660707Y-105670000D01*
X118727746Y-105689685D01*
X118773501Y-105742489D01*
X118782113Y-105768771D01*
X118791843Y-105815594D01*
X118791847Y-105815607D01*
X118805599Y-105842146D01*
X118819502Y-105899195D01*
X118819502Y-105940779D01*
X118812342Y-105982303D01*
X118795721Y-106029069D01*
X118774946Y-106087526D01*
X118733948Y-106144102D01*
X118668870Y-106169532D01*
X118658106Y-106170000D01*
X118261202Y-106170000D01*
X118261202Y-106264111D01*
X111738798Y-106264111D01*
X111738798Y-106170000D01*
X111339295Y-106170000D01*
X111272256Y-106150315D01*
X111226501Y-106097511D01*
X111217889Y-106071232D01*
X111208155Y-106024387D01*
X111208152Y-106024382D01*
X111208152Y-106024380D01*
X111194400Y-105997840D01*
X111180498Y-105940793D01*
X111180498Y-105899208D01*
X111187658Y-105857682D01*
X111225050Y-105752474D01*
X111266049Y-105695898D01*
X111331126Y-105670468D01*
X111341890Y-105670000D01*
X111738798Y-105670000D01*
X111738798Y-105575888D01*
X111723478Y-105420340D01*
X111662933Y-105220749D01*
X111564621Y-105036821D01*
X111564617Y-105036814D01*
X111432305Y-104875592D01*
X111271083Y-104743280D01*
X111271076Y-104743276D01*
X111087150Y-104644965D01*
X110929998Y-104597293D01*
X110929998Y-104957737D01*
X110910313Y-105024776D01*
X110857509Y-105070531D01*
X110788351Y-105080475D01*
X110772545Y-105077139D01*
X110756324Y-105072594D01*
X110756322Y-105072594D01*
X110642013Y-105072594D01*
X110642011Y-105072594D01*
X110570882Y-105082370D01*
X110501787Y-105071997D01*
X110449268Y-105025915D01*
X110429998Y-104959525D01*
X110429998Y-104597293D01*
X110429997Y-104597293D01*
X110272845Y-104644965D01*
X110088919Y-104743276D01*
X110088912Y-104743280D01*
X109927690Y-104875592D01*
X109795378Y-105036814D01*
X109795374Y-105036821D01*
X109697062Y-105220749D01*
X109636517Y-105420340D01*
X109621198Y-105575888D01*
X109621198Y-105670000D01*
X110020703Y-105670000D01*
X110087742Y-105689685D01*
X110133497Y-105742489D01*
X110142109Y-105768771D01*
X110151839Y-105815594D01*
X110151843Y-105815607D01*
X110165595Y-105842146D01*
X110179498Y-105899195D01*
X110179498Y-105940779D01*
X110172338Y-105982303D01*
X110155717Y-106029069D01*
X110134942Y-106087526D01*
X110093944Y-106144102D01*
X110028866Y-106169532D01*
X110018102Y-106170000D01*
X109621198Y-106170000D01*
X109621198Y-106264111D01*
X107336387Y-106264111D01*
X107319816Y-106237738D01*
X107192262Y-106110184D01*
X107055719Y-106024388D01*
X107039523Y-106014211D01*
X106869254Y-105954631D01*
X106869249Y-105954630D01*
X106690004Y-105934435D01*
X106689996Y-105934435D01*
X106510750Y-105954630D01*
X106510745Y-105954631D01*
X106340476Y-106014211D01*
X106187737Y-106110184D01*
X106060184Y-106237737D01*
X105964211Y-106390476D01*
X105904631Y-106560745D01*
X105904630Y-106560750D01*
X105884435Y-106739996D01*
X105884435Y-106740003D01*
X105904630Y-106919249D01*
X105904631Y-106919254D01*
X105964211Y-107089523D01*
X106060185Y-107242263D01*
X106062445Y-107245097D01*
X106063334Y-107247275D01*
X106063889Y-107248158D01*
X106063734Y-107248255D01*
X106088855Y-107309783D01*
X106089500Y-107322412D01*
X106089500Y-114057443D01*
X106069815Y-114124482D01*
X106031472Y-114162436D01*
X105991145Y-114187775D01*
X105907737Y-114240184D01*
X105780184Y-114367737D01*
X105684211Y-114520476D01*
X105624631Y-114690745D01*
X105624630Y-114690750D01*
X105604435Y-114869996D01*
X105604435Y-114870003D01*
X103267167Y-114870003D01*
X103261895Y-114837603D01*
X103289738Y-114773521D01*
X103308289Y-114755503D01*
X103319406Y-114746761D01*
X103327886Y-114740092D01*
X103465519Y-114581256D01*
X103478544Y-114558697D01*
X103570601Y-114399249D01*
X103570600Y-114399249D01*
X103570604Y-114399244D01*
X103639344Y-114200633D01*
X103669254Y-113992602D01*
X103659254Y-113782670D01*
X103609704Y-113578424D01*
X103585379Y-113525160D01*
X103522401Y-113387256D01*
X103522398Y-113387251D01*
X103522397Y-113387250D01*
X103522396Y-113387247D01*
X103400486Y-113216048D01*
X103400484Y-113216046D01*
X103400479Y-113216040D01*
X103248379Y-113071014D01*
X103207057Y-113044458D01*
X103161302Y-112991654D01*
X103151359Y-112922496D01*
X103180384Y-112858940D01*
X103197445Y-112842673D01*
X103327883Y-112740094D01*
X103327886Y-112740092D01*
X103465519Y-112581256D01*
X103471994Y-112570042D01*
X103545878Y-112442070D01*
X103570604Y-112399244D01*
X103639344Y-112200633D01*
X103669254Y-111992602D01*
X103659254Y-111782670D01*
X103609704Y-111578424D01*
X103609701Y-111578417D01*
X103522401Y-111387256D01*
X103522398Y-111387251D01*
X103522397Y-111387250D01*
X103522396Y-111387247D01*
X103400486Y-111216048D01*
X103400484Y-111216046D01*
X103400479Y-111216040D01*
X103248379Y-111071014D01*
X103207057Y-111044458D01*
X103161302Y-110991654D01*
X103151359Y-110922496D01*
X103180384Y-110858940D01*
X103197445Y-110842673D01*
X103327883Y-110740094D01*
X103327886Y-110740092D01*
X103465519Y-110581256D01*
X103570604Y-110399244D01*
X103639344Y-110200633D01*
X103669254Y-109992602D01*
X103659254Y-109782670D01*
X103609704Y-109578424D01*
X103609701Y-109578417D01*
X103522401Y-109387256D01*
X103522398Y-109387251D01*
X103522397Y-109387250D01*
X103522396Y-109387247D01*
X103400486Y-109216048D01*
X103400484Y-109216046D01*
X103400479Y-109216040D01*
X103248379Y-109071014D01*
X103071574Y-108957388D01*
X102876455Y-108879274D01*
X102670086Y-108839500D01*
X102670085Y-108839500D01*
X101962575Y-108839500D01*
X101805782Y-108854472D01*
X101805778Y-108854473D01*
X101604127Y-108913683D01*
X101417313Y-109009991D01*
X101252116Y-109139905D01*
X101252112Y-109139909D01*
X101114478Y-109298746D01*
X101009398Y-109480750D01*
X100940656Y-109679365D01*
X100940656Y-109679367D01*
X100925804Y-109782670D01*
X100910746Y-109887401D01*
X100920745Y-110097327D01*
X100970296Y-110301578D01*
X100970298Y-110301582D01*
X101057598Y-110492743D01*
X101057601Y-110492748D01*
X101057602Y-110492750D01*
X101057604Y-110492753D01*
X101120627Y-110581256D01*
X101179515Y-110663953D01*
X101179520Y-110663959D01*
X101331619Y-110808984D01*
X101372941Y-110835540D01*
X101418696Y-110888344D01*
X101428640Y-110957503D01*
X101399615Y-111021059D01*
X101382555Y-111037326D01*
X101252112Y-111139909D01*
X101114478Y-111298746D01*
X101009398Y-111480750D01*
X100940656Y-111679365D01*
X100940656Y-111679367D01*
X100917984Y-111837060D01*
X100910746Y-111887401D01*
X100920745Y-112097327D01*
X100970296Y-112301578D01*
X100970298Y-112301582D01*
X101057598Y-112492743D01*
X101057601Y-112492748D01*
X101057602Y-112492750D01*
X101057604Y-112492753D01*
X101177289Y-112660827D01*
X101179515Y-112663953D01*
X101179520Y-112663959D01*
X101331619Y-112808984D01*
X101331621Y-112808985D01*
X101331622Y-112808986D01*
X101345162Y-112817688D01*
X101372941Y-112835540D01*
X101418696Y-112888344D01*
X101428640Y-112957503D01*
X101399615Y-113021059D01*
X101382555Y-113037326D01*
X101252112Y-113139909D01*
X101114478Y-113298746D01*
X101009398Y-113480750D01*
X100940656Y-113679365D01*
X100940656Y-113679367D01*
X100923312Y-113800003D01*
X100910746Y-113887401D01*
X100500500Y-113887401D01*
X100500500Y-103000000D01*
X101644341Y-103000000D01*
X101664936Y-103235403D01*
X101664938Y-103235413D01*
X101726094Y-103463655D01*
X101726096Y-103463659D01*
X101726097Y-103463663D01*
X101776031Y-103570746D01*
X101825964Y-103677828D01*
X101825965Y-103677830D01*
X101961505Y-103871402D01*
X102128597Y-104038494D01*
X102322169Y-104174034D01*
X102322171Y-104174035D01*
X102536337Y-104273903D01*
X102764592Y-104335063D01*
X102941032Y-104350499D01*
X102941033Y-104350500D01*
X102941034Y-104350500D01*
X103058967Y-104350500D01*
X103058967Y-104350499D01*
X103235408Y-104335063D01*
X103463663Y-104273903D01*
X103677829Y-104174035D01*
X103871401Y-104038495D01*
X104038495Y-103871401D01*
X104174035Y-103677830D01*
X104273903Y-103463663D01*
X104335063Y-103235408D01*
X104355659Y-103000000D01*
X104335063Y-102764592D01*
X104273903Y-102536337D01*
X104240220Y-102464105D01*
X109621198Y-102464105D01*
X109636517Y-102619653D01*
X109697062Y-102819244D01*
X109795374Y-103003172D01*
X109795378Y-103003179D01*
X109927690Y-103164401D01*
X110088912Y-103296713D01*
X110088919Y-103296717D01*
X110272844Y-103395027D01*
X110272847Y-103395028D01*
X110429998Y-103442699D01*
X110429998Y-103082250D01*
X110449683Y-103015211D01*
X110502487Y-102969456D01*
X110571645Y-102959512D01*
X110587445Y-102962846D01*
X110603674Y-102967394D01*
X110603676Y-102967394D01*
X110717983Y-102967394D01*
X110789113Y-102957617D01*
X110858208Y-102967989D01*
X110910727Y-103014071D01*
X110929998Y-103080462D01*
X110929998Y-103442699D01*
X111087148Y-103395028D01*
X111087151Y-103395027D01*
X111271076Y-103296717D01*
X111271083Y-103296713D01*
X111432305Y-103164401D01*
X111564617Y-103003179D01*
X111564621Y-103003172D01*
X111662933Y-102819244D01*
X111723478Y-102619653D01*
X111738798Y-102464105D01*
X111738798Y-102369994D01*
X111339294Y-102369994D01*
X111272255Y-102350309D01*
X111226500Y-102297505D01*
X111217887Y-102271222D01*
X111208155Y-102224387D01*
X111194400Y-102197840D01*
X111180498Y-102140793D01*
X111180498Y-102119994D01*
X118433646Y-102119994D01*
X118453015Y-102304280D01*
X118453016Y-102304282D01*
X118510276Y-102480508D01*
X118536619Y-102526135D01*
X118602925Y-102640981D01*
X118629027Y-102669970D01*
X118726908Y-102778680D01*
X118726911Y-102778682D01*
X118726914Y-102778685D01*
X118876824Y-102887601D01*
X119046097Y-102962967D01*
X119046100Y-102962967D01*
X119046103Y-102962969D01*
X119227353Y-103001494D01*
X119412651Y-103001494D01*
X119419680Y-103000000D01*
X125644341Y-103000000D01*
X125664936Y-103235403D01*
X125664938Y-103235413D01*
X125726094Y-103463655D01*
X125726096Y-103463659D01*
X125726097Y-103463663D01*
X125776031Y-103570746D01*
X125825964Y-103677828D01*
X125825965Y-103677830D01*
X125961505Y-103871402D01*
X126128597Y-104038494D01*
X126322169Y-104174034D01*
X126322171Y-104174035D01*
X126536337Y-104273903D01*
X126764592Y-104335063D01*
X126941032Y-104350499D01*
X126941033Y-104350500D01*
X126941034Y-104350500D01*
X127058967Y-104350500D01*
X127058967Y-104350499D01*
X127235408Y-104335063D01*
X127463663Y-104273903D01*
X127677829Y-104174035D01*
X127871401Y-104038495D01*
X128038495Y-103871401D01*
X128174035Y-103677830D01*
X128273903Y-103463663D01*
X128335063Y-103235408D01*
X128355659Y-103000000D01*
X128335063Y-102764592D01*
X128273903Y-102536337D01*
X128174035Y-102322171D01*
X128174034Y-102322169D01*
X128038494Y-102128597D01*
X127871402Y-101961505D01*
X127677830Y-101825965D01*
X127677828Y-101825964D01*
X127570426Y-101775882D01*
X127463663Y-101726097D01*
X127463659Y-101726096D01*
X127463655Y-101726094D01*
X127235413Y-101664938D01*
X127235403Y-101664936D01*
X127058967Y-101649500D01*
X127058966Y-101649500D01*
X126941034Y-101649500D01*
X126941033Y-101649500D01*
X126764596Y-101664936D01*
X126764586Y-101664938D01*
X126536344Y-101726094D01*
X126536335Y-101726098D01*
X126322171Y-101825964D01*
X126322169Y-101825965D01*
X126128597Y-101961505D01*
X125961506Y-102128597D01*
X125961501Y-102128604D01*
X125825967Y-102322165D01*
X125825965Y-102322169D01*
X125726098Y-102536335D01*
X125726094Y-102536344D01*
X125664938Y-102764586D01*
X125664936Y-102764596D01*
X125644341Y-102999999D01*
X125644341Y-103000000D01*
X119419680Y-103000000D01*
X119593901Y-102962969D01*
X119593904Y-102962967D01*
X119593906Y-102962967D01*
X119676463Y-102926210D01*
X119763180Y-102887601D01*
X119913090Y-102778685D01*
X119925780Y-102764592D01*
X119952122Y-102735335D01*
X120037079Y-102640981D01*
X120129728Y-102480507D01*
X120186989Y-102304278D01*
X120206358Y-102119994D01*
X120186989Y-101935710D01*
X120129728Y-101759481D01*
X120037079Y-101599007D01*
X119988516Y-101545072D01*
X119913095Y-101461307D01*
X119913092Y-101461305D01*
X119913091Y-101461304D01*
X119913090Y-101461303D01*
X119763180Y-101352387D01*
X119763179Y-101352386D01*
X119593906Y-101277020D01*
X119593898Y-101277018D01*
X119412651Y-101238494D01*
X119227353Y-101238494D01*
X119046105Y-101277018D01*
X119046097Y-101277020D01*
X118876824Y-101352386D01*
X118726911Y-101461305D01*
X118726908Y-101461307D01*
X118602924Y-101599008D01*
X118510276Y-101759479D01*
X118453016Y-101935705D01*
X118453015Y-101935707D01*
X118433646Y-102119994D01*
X111180498Y-102119994D01*
X111180498Y-102099208D01*
X111187658Y-102057682D01*
X111225052Y-101952468D01*
X111266051Y-101895892D01*
X111331128Y-101870462D01*
X111341892Y-101869994D01*
X111738798Y-101869994D01*
X111738798Y-101775882D01*
X111723478Y-101620334D01*
X111662933Y-101420743D01*
X111564621Y-101236815D01*
X111564617Y-101236808D01*
X111432305Y-101075586D01*
X111271083Y-100943274D01*
X111271076Y-100943270D01*
X111087150Y-100844959D01*
X110929998Y-100797287D01*
X110929998Y-101157737D01*
X110910313Y-101224776D01*
X110857509Y-101270531D01*
X110788351Y-101280475D01*
X110772545Y-101277139D01*
X110756324Y-101272594D01*
X110756322Y-101272594D01*
X110642013Y-101272594D01*
X110642011Y-101272594D01*
X110570882Y-101282370D01*
X110501787Y-101271997D01*
X110449268Y-101225915D01*
X110429998Y-101159525D01*
X110429998Y-100797287D01*
X110429997Y-100797287D01*
X110272845Y-100844959D01*
X110088919Y-100943270D01*
X110088912Y-100943274D01*
X109927690Y-101075586D01*
X109795378Y-101236808D01*
X109795374Y-101236815D01*
X109697062Y-101420743D01*
X109636517Y-101620334D01*
X109621198Y-101775882D01*
X109621198Y-101869994D01*
X110020702Y-101869994D01*
X110087741Y-101889679D01*
X110133496Y-101942483D01*
X110142109Y-101968766D01*
X110151841Y-102015601D01*
X110151842Y-102015603D01*
X110165595Y-102042145D01*
X110179498Y-102099194D01*
X110179498Y-102140779D01*
X110172338Y-102182305D01*
X110134944Y-102287520D01*
X110093946Y-102344096D01*
X110028868Y-102369526D01*
X110018104Y-102369994D01*
X109621198Y-102369994D01*
X109621198Y-102464105D01*
X104240220Y-102464105D01*
X104174035Y-102322171D01*
X104174034Y-102322169D01*
X104038494Y-102128597D01*
X103871402Y-101961505D01*
X103677830Y-101825965D01*
X103677828Y-101825964D01*
X103570426Y-101775882D01*
X103463663Y-101726097D01*
X103463659Y-101726096D01*
X103463655Y-101726094D01*
X103235413Y-101664938D01*
X103235403Y-101664936D01*
X103058967Y-101649500D01*
X103058966Y-101649500D01*
X102941034Y-101649500D01*
X102941033Y-101649500D01*
X102764596Y-101664936D01*
X102764586Y-101664938D01*
X102536344Y-101726094D01*
X102536335Y-101726098D01*
X102322171Y-101825964D01*
X102322169Y-101825965D01*
X102128597Y-101961505D01*
X101961506Y-102128597D01*
X101961501Y-102128604D01*
X101825967Y-102322165D01*
X101825965Y-102322169D01*
X101726098Y-102536335D01*
X101726094Y-102536344D01*
X101664938Y-102764586D01*
X101664936Y-102764596D01*
X101644341Y-102999999D01*
X101644341Y-103000000D01*
X100500500Y-103000000D01*
X100500500Y-100624500D01*
X100520185Y-100557461D01*
X100572989Y-100511706D01*
X100624500Y-100500500D01*
X129375500Y-100500500D01*
X129442539Y-100520185D01*
G37*
%TD.AperFunction*%
%TD*%
M02*
