%TF.GenerationSoftware,KiCad,Pcbnew,7.0.11-2.fc38*%
%TF.CreationDate,2024-03-11T20:51:48+00:00*%
%TF.ProjectId,tonie-charger-pd,746f6e69-652d-4636-9861-726765722d70,rev?*%
%TF.SameCoordinates,Original*%
%TF.FileFunction,Paste,Top*%
%TF.FilePolarity,Positive*%
%FSLAX46Y46*%
G04 Gerber Fmt 4.6, Leading zero omitted, Abs format (unit mm)*
G04 Created by KiCad (PCBNEW 7.0.11-2.fc38) date 2024-03-11 20:51:48*
%MOMM*%
%LPD*%
G01*
G04 APERTURE LIST*
G04 Aperture macros list*
%AMRoundRect*
0 Rectangle with rounded corners*
0 $1 Rounding radius*
0 $2 $3 $4 $5 $6 $7 $8 $9 X,Y pos of 4 corners*
0 Add a 4 corners polygon primitive as box body*
4,1,4,$2,$3,$4,$5,$6,$7,$8,$9,$2,$3,0*
0 Add four circle primitives for the rounded corners*
1,1,$1+$1,$2,$3*
1,1,$1+$1,$4,$5*
1,1,$1+$1,$6,$7*
1,1,$1+$1,$8,$9*
0 Add four rect primitives between the rounded corners*
20,1,$1+$1,$2,$3,$4,$5,0*
20,1,$1+$1,$4,$5,$6,$7,0*
20,1,$1+$1,$6,$7,$8,$9,0*
20,1,$1+$1,$8,$9,$2,$3,0*%
G04 Aperture macros list end*
%ADD10R,0.310000X0.500000*%
%ADD11R,0.310000X0.650000*%
%ADD12R,1.300000X1.000000*%
%ADD13R,0.812800X1.193800*%
%ADD14R,0.762000X1.193800*%
%ADD15R,0.711200X1.193800*%
%ADD16RoundRect,0.200000X-0.275000X0.200000X-0.275000X-0.200000X0.275000X-0.200000X0.275000X0.200000X0*%
%ADD17RoundRect,0.200000X-0.200000X-0.275000X0.200000X-0.275000X0.200000X0.275000X-0.200000X0.275000X0*%
%ADD18RoundRect,0.200000X0.275000X-0.200000X0.275000X0.200000X-0.275000X0.200000X-0.275000X-0.200000X0*%
%ADD19RoundRect,0.200000X0.200000X0.275000X-0.200000X0.275000X-0.200000X-0.275000X0.200000X-0.275000X0*%
%ADD20R,0.300000X0.800000*%
%ADD21R,0.800000X0.300000*%
%ADD22R,2.800000X2.800000*%
%ADD23R,0.800000X1.050000*%
%ADD24R,0.800000X0.650000*%
%ADD25RoundRect,0.225000X0.250000X-0.225000X0.250000X0.225000X-0.250000X0.225000X-0.250000X-0.225000X0*%
%ADD26RoundRect,0.225000X0.225000X0.250000X-0.225000X0.250000X-0.225000X-0.250000X0.225000X-0.250000X0*%
%ADD27RoundRect,0.225000X-0.225000X-0.250000X0.225000X-0.250000X0.225000X0.250000X-0.225000X0.250000X0*%
G04 APERTURE END LIST*
D10*
%TO.C,Q1*%
X117510000Y-119190000D03*
X116510000Y-119190000D03*
D11*
X117010000Y-120915000D03*
D12*
X117010000Y-120090000D03*
%TD*%
D13*
%TO.C,J1*%
X112250005Y-105920000D03*
D14*
X113480003Y-105920000D03*
D15*
X114500001Y-105920000D03*
X115499999Y-105920000D03*
D14*
X116519997Y-105920000D03*
D13*
X117749995Y-105920000D03*
%TD*%
D16*
%TO.C,R1*%
X108310000Y-102395000D03*
X108310000Y-104045000D03*
%TD*%
D17*
%TO.C,R8*%
X116000000Y-116830000D03*
X117650000Y-116830000D03*
%TD*%
D18*
%TO.C,R7*%
X114505000Y-117745000D03*
X114505000Y-116095000D03*
%TD*%
%TO.C,R6*%
X112870000Y-117745000D03*
X112870000Y-116095000D03*
%TD*%
D19*
%TO.C,R5*%
X125970000Y-115340000D03*
X124320000Y-115340000D03*
%TD*%
D16*
%TO.C,R4*%
X122630000Y-116750000D03*
X122630000Y-118400000D03*
%TD*%
%TO.C,R3*%
X108250000Y-111395000D03*
X108250000Y-113045000D03*
%TD*%
%TO.C,R2*%
X108250000Y-107775000D03*
X108250000Y-109425000D03*
%TD*%
D20*
%TO.C,IC1*%
X116630000Y-109900000D03*
X116130000Y-109900000D03*
X115630000Y-109900000D03*
X115130000Y-109900000D03*
X114630000Y-109900000D03*
X114130000Y-109900000D03*
D21*
X113380000Y-110650000D03*
X113380000Y-111150000D03*
X113380000Y-111650000D03*
X113380000Y-112150000D03*
X113380000Y-112650000D03*
X113380000Y-113150000D03*
D20*
X114130000Y-113900000D03*
X114630000Y-113900000D03*
X115130000Y-113900000D03*
X115630000Y-113900000D03*
X116130000Y-113900000D03*
X116630000Y-113900000D03*
D21*
X117380000Y-113150000D03*
X117380000Y-112650000D03*
X117380000Y-112150000D03*
X117380000Y-111650000D03*
X117380000Y-111150000D03*
X117380000Y-110650000D03*
D22*
X115380000Y-111900000D03*
%TD*%
D23*
%TO.C,D1*%
X126020000Y-112730000D03*
D24*
X126020000Y-111680000D03*
%TD*%
D25*
%TO.C,C4*%
X120570000Y-118390000D03*
X120570000Y-116840000D03*
%TD*%
D26*
%TO.C,C3*%
X121370000Y-113780000D03*
X119820000Y-113780000D03*
%TD*%
%TO.C,C2*%
X121350000Y-110970000D03*
X119800000Y-110970000D03*
%TD*%
D27*
%TO.C,C1*%
X119815000Y-109450000D03*
X121365000Y-109450000D03*
%TD*%
M02*
