%TF.GenerationSoftware,KiCad,Pcbnew,7.0.11-2.fc38*%
%TF.CreationDate,2024-03-11T20:51:48+00:00*%
%TF.ProjectId,tonie-charger-pd,746f6e69-652d-4636-9861-726765722d70,rev?*%
%TF.SameCoordinates,Original*%
%TF.FileFunction,Copper,L1,Top*%
%TF.FilePolarity,Positive*%
%FSLAX46Y46*%
G04 Gerber Fmt 4.6, Leading zero omitted, Abs format (unit mm)*
G04 Created by KiCad (PCBNEW 7.0.11-2.fc38) date 2024-03-11 20:51:48*
%MOMM*%
%LPD*%
G01*
G04 APERTURE LIST*
G04 Aperture macros list*
%AMRoundRect*
0 Rectangle with rounded corners*
0 $1 Rounding radius*
0 $2 $3 $4 $5 $6 $7 $8 $9 X,Y pos of 4 corners*
0 Add a 4 corners polygon primitive as box body*
4,1,4,$2,$3,$4,$5,$6,$7,$8,$9,$2,$3,0*
0 Add four circle primitives for the rounded corners*
1,1,$1+$1,$2,$3*
1,1,$1+$1,$4,$5*
1,1,$1+$1,$6,$7*
1,1,$1+$1,$8,$9*
0 Add four rect primitives between the rounded corners*
20,1,$1+$1,$2,$3,$4,$5,0*
20,1,$1+$1,$4,$5,$6,$7,0*
20,1,$1+$1,$6,$7,$8,$9,0*
20,1,$1+$1,$8,$9,$2,$3,0*%
G04 Aperture macros list end*
%TA.AperFunction,SMDPad,CuDef*%
%ADD10R,0.310000X0.500000*%
%TD*%
%TA.AperFunction,SMDPad,CuDef*%
%ADD11R,0.310000X0.650000*%
%TD*%
%TA.AperFunction,SMDPad,CuDef*%
%ADD12R,1.300000X1.000000*%
%TD*%
%TA.AperFunction,ComponentPad*%
%ADD13O,1.117600X1.701800*%
%TD*%
%TA.AperFunction,ComponentPad*%
%ADD14C,0.762000*%
%TD*%
%TA.AperFunction,SMDPad,CuDef*%
%ADD15R,0.812800X1.193800*%
%TD*%
%TA.AperFunction,SMDPad,CuDef*%
%ADD16R,0.762000X1.193800*%
%TD*%
%TA.AperFunction,SMDPad,CuDef*%
%ADD17R,0.711200X1.193800*%
%TD*%
%TA.AperFunction,SMDPad,CuDef*%
%ADD18RoundRect,0.200000X-0.275000X0.200000X-0.275000X-0.200000X0.275000X-0.200000X0.275000X0.200000X0*%
%TD*%
%TA.AperFunction,SMDPad,CuDef*%
%ADD19RoundRect,0.200000X-0.200000X-0.275000X0.200000X-0.275000X0.200000X0.275000X-0.200000X0.275000X0*%
%TD*%
%TA.AperFunction,SMDPad,CuDef*%
%ADD20RoundRect,0.200000X0.275000X-0.200000X0.275000X0.200000X-0.275000X0.200000X-0.275000X-0.200000X0*%
%TD*%
%TA.AperFunction,SMDPad,CuDef*%
%ADD21RoundRect,0.200000X0.200000X0.275000X-0.200000X0.275000X-0.200000X-0.275000X0.200000X-0.275000X0*%
%TD*%
%TA.AperFunction,ComponentPad*%
%ADD22RoundRect,0.250000X-0.600000X-0.725000X0.600000X-0.725000X0.600000X0.725000X-0.600000X0.725000X0*%
%TD*%
%TA.AperFunction,ComponentPad*%
%ADD23O,1.700000X1.950000*%
%TD*%
%TA.AperFunction,ComponentPad*%
%ADD24RoundRect,0.250000X0.625000X-0.350000X0.625000X0.350000X-0.625000X0.350000X-0.625000X-0.350000X0*%
%TD*%
%TA.AperFunction,ComponentPad*%
%ADD25O,1.750000X1.200000*%
%TD*%
%TA.AperFunction,SMDPad,CuDef*%
%ADD26R,0.300000X0.800000*%
%TD*%
%TA.AperFunction,SMDPad,CuDef*%
%ADD27R,0.800000X0.300000*%
%TD*%
%TA.AperFunction,SMDPad,CuDef*%
%ADD28R,2.800000X2.800000*%
%TD*%
%TA.AperFunction,SMDPad,CuDef*%
%ADD29R,0.800000X1.050000*%
%TD*%
%TA.AperFunction,SMDPad,CuDef*%
%ADD30R,0.800000X0.650000*%
%TD*%
%TA.AperFunction,SMDPad,CuDef*%
%ADD31RoundRect,0.225000X0.250000X-0.225000X0.250000X0.225000X-0.250000X0.225000X-0.250000X-0.225000X0*%
%TD*%
%TA.AperFunction,SMDPad,CuDef*%
%ADD32RoundRect,0.225000X0.225000X0.250000X-0.225000X0.250000X-0.225000X-0.250000X0.225000X-0.250000X0*%
%TD*%
%TA.AperFunction,SMDPad,CuDef*%
%ADD33RoundRect,0.225000X-0.225000X-0.250000X0.225000X-0.250000X0.225000X0.250000X-0.225000X0.250000X0*%
%TD*%
%TA.AperFunction,ViaPad*%
%ADD34C,0.600000*%
%TD*%
%TA.AperFunction,ViaPad*%
%ADD35C,0.800000*%
%TD*%
%TA.AperFunction,Conductor*%
%ADD36C,0.400000*%
%TD*%
%TA.AperFunction,Conductor*%
%ADD37C,0.200000*%
%TD*%
%TA.AperFunction,Conductor*%
%ADD38C,0.300000*%
%TD*%
G04 APERTURE END LIST*
D10*
%TO.P,Q1,1,G*%
%TO.N,Net-(Q1-G)*%
X117510000Y-119190000D03*
%TO.P,Q1,2,S*%
%TO.N,VBUS*%
X116510000Y-119190000D03*
D11*
%TO.P,Q1,3,D*%
%TO.N,/VSINK*%
X117010000Y-120915000D03*
D12*
X117010000Y-120090000D03*
%TD*%
D13*
%TO.P,J1,10,PAD*%
%TO.N,GND*%
X110679998Y-102119994D03*
%TO.P,J1,9,PAD*%
X110679998Y-105920000D03*
%TO.P,J1,7,PAD*%
X119320002Y-105920000D03*
%TO.P,J1,8,PAD*%
%TO.N,unconnected-(J1-PAD-Pad8)*%
X119320002Y-102119994D03*
D14*
%TO.P,J1,13*%
%TO.N,N/C*%
X119320002Y-102119994D03*
D15*
%TO.P,J1,6,GND*%
%TO.N,GND*%
X112250005Y-105920000D03*
D16*
%TO.P,J1,5,VBUS*%
%TO.N,VBUS*%
X113480003Y-105920000D03*
D17*
%TO.P,J1,4,CC2*%
%TO.N,/CC2*%
X114500001Y-105920000D03*
%TO.P,J1,3,CC1*%
%TO.N,/CC1*%
X115499999Y-105920000D03*
D16*
%TO.P,J1,2,VBUS*%
%TO.N,VBUS*%
X116519997Y-105920000D03*
D15*
%TO.P,J1,1,GND*%
%TO.N,GND*%
X117749995Y-105920000D03*
%TD*%
D18*
%TO.P,R1,1*%
%TO.N,GND*%
X108310000Y-102395000D03*
%TO.P,R1,2*%
%TO.N,Net-(IC1-RESET)*%
X108310000Y-104045000D03*
%TD*%
D19*
%TO.P,R8,1*%
%TO.N,Net-(Q1-G)*%
X116000000Y-116830000D03*
%TO.P,R8,2*%
%TO.N,Net-(C4-Pad2)*%
X117650000Y-116830000D03*
%TD*%
D20*
%TO.P,R7,1*%
%TO.N,Net-(Q1-G)*%
X114505000Y-117745000D03*
%TO.P,R7,2*%
%TO.N,Net-(IC1-VBUS_EN_SNK)*%
X114505000Y-116095000D03*
%TD*%
%TO.P,R6,1*%
%TO.N,VBUS*%
X112870000Y-117745000D03*
%TO.P,R6,2*%
%TO.N,Net-(Q1-G)*%
X112870000Y-116095000D03*
%TD*%
D21*
%TO.P,R5,1*%
%TO.N,VBUS*%
X125970000Y-115340000D03*
%TO.P,R5,2*%
%TO.N,Net-(IC1-VBUS_VS_DISCH)*%
X124320000Y-115340000D03*
%TD*%
D18*
%TO.P,R4,1*%
%TO.N,Net-(IC1-DISCH)*%
X122630000Y-116750000D03*
%TO.P,R4,2*%
%TO.N,/VSINK*%
X122630000Y-118400000D03*
%TD*%
%TO.P,R3,1*%
%TO.N,/SDA*%
X108250000Y-111395000D03*
%TO.P,R3,2*%
%TO.N,VDD*%
X108250000Y-113045000D03*
%TD*%
%TO.P,R2,1*%
%TO.N,VDD*%
X108250000Y-107775000D03*
%TO.P,R2,2*%
%TO.N,/SCL*%
X108250000Y-109425000D03*
%TD*%
D22*
%TO.P,J3,1,Pin_1*%
%TO.N,GND*%
X113750000Y-126290000D03*
D23*
%TO.P,J3,2,Pin_2*%
%TO.N,/VSINK*%
X116250000Y-126290000D03*
%TD*%
D24*
%TO.P,J2,1,Pin_1*%
%TO.N,GND*%
X102290000Y-115940000D03*
D25*
%TO.P,J2,2,Pin_2*%
%TO.N,VDD*%
X102290000Y-113940000D03*
%TO.P,J2,3,Pin_3*%
%TO.N,/SDA*%
X102290000Y-111940000D03*
%TO.P,J2,4,Pin_4*%
%TO.N,/SCL*%
X102290000Y-109940000D03*
%TD*%
D26*
%TO.P,IC1,1,CC1DB*%
%TO.N,/CC1*%
X116630000Y-109900000D03*
%TO.P,IC1,2,CC1*%
X116130000Y-109900000D03*
%TO.P,IC1,3,NC*%
%TO.N,unconnected-(IC1-NC-Pad3)*%
X115630000Y-109900000D03*
%TO.P,IC1,4,CC2*%
%TO.N,/CC2*%
X115130000Y-109900000D03*
%TO.P,IC1,5,CC2DB*%
X114630000Y-109900000D03*
%TO.P,IC1,6,RESET*%
%TO.N,Net-(IC1-RESET)*%
X114130000Y-109900000D03*
D27*
%TO.P,IC1,7,SCL*%
%TO.N,/SCL*%
X113380000Y-110650000D03*
%TO.P,IC1,8,SDA*%
%TO.N,/SDA*%
X113380000Y-111150000D03*
%TO.P,IC1,9,DISCH*%
%TO.N,Net-(IC1-DISCH)*%
X113380000Y-111650000D03*
%TO.P,IC1,10,GND*%
%TO.N,GND*%
X113380000Y-112150000D03*
%TO.P,IC1,11,ATTACH*%
%TO.N,unconnected-(IC1-ATTACH-Pad11)*%
X113380000Y-112650000D03*
%TO.P,IC1,12,ADDR0*%
%TO.N,GND*%
X113380000Y-113150000D03*
D26*
%TO.P,IC1,13,ADDR1*%
X114130000Y-113900000D03*
%TO.P,IC1,14,POWER_OK3*%
%TO.N,unconnected-(IC1-POWER_OK3-Pad14)*%
X114630000Y-113900000D03*
%TO.P,IC1,15,GPIO*%
%TO.N,unconnected-(IC1-GPIO-Pad15)*%
X115130000Y-113900000D03*
%TO.P,IC1,16,VBUS_EN_SNK*%
%TO.N,Net-(IC1-VBUS_EN_SNK)*%
X115630000Y-113900000D03*
%TO.P,IC1,17,A_B_SIDE*%
%TO.N,unconnected-(IC1-A_B_SIDE-Pad17)*%
X116130000Y-113900000D03*
%TO.P,IC1,18,VBUS_VS_DISCH*%
%TO.N,Net-(IC1-VBUS_VS_DISCH)*%
X116630000Y-113900000D03*
D27*
%TO.P,IC1,19,ALERT*%
%TO.N,unconnected-(IC1-ALERT-Pad19)*%
X117380000Y-113150000D03*
%TO.P,IC1,20,POWER_OK2*%
%TO.N,unconnected-(IC1-POWER_OK2-Pad20)*%
X117380000Y-112650000D03*
%TO.P,IC1,21,VREG_1V2*%
%TO.N,Net-(IC1-VREG_1V2)*%
X117380000Y-112150000D03*
%TO.P,IC1,22,VSYS*%
%TO.N,VDD*%
X117380000Y-111650000D03*
%TO.P,IC1,23,VREG_2V7*%
%TO.N,Net-(D1-A)*%
X117380000Y-111150000D03*
%TO.P,IC1,24,VDD*%
%TO.N,VBUS*%
X117380000Y-110650000D03*
D28*
%TO.P,IC1,25,EP*%
%TO.N,GND*%
X115380000Y-111900000D03*
%TD*%
D29*
%TO.P,D1,1,K*%
%TO.N,VDD*%
X126020000Y-112730000D03*
D30*
%TO.P,D1,2,A*%
%TO.N,Net-(D1-A)*%
X126020000Y-111680000D03*
%TD*%
D31*
%TO.P,C4,1*%
%TO.N,/VSINK*%
X120570000Y-118390000D03*
%TO.P,C4,2*%
%TO.N,Net-(C4-Pad2)*%
X120570000Y-116840000D03*
%TD*%
D32*
%TO.P,C3,1*%
%TO.N,GND*%
X121370000Y-113780000D03*
%TO.P,C3,2*%
%TO.N,Net-(IC1-VREG_1V2)*%
X119820000Y-113780000D03*
%TD*%
%TO.P,C2,1*%
%TO.N,GND*%
X121350000Y-110970000D03*
%TO.P,C2,2*%
%TO.N,Net-(D1-A)*%
X119800000Y-110970000D03*
%TD*%
D33*
%TO.P,C1,1*%
%TO.N,VBUS*%
X119815000Y-109450000D03*
%TO.P,C1,2*%
%TO.N,GND*%
X121365000Y-109450000D03*
%TD*%
D34*
%TO.N,GND*%
X110440000Y-117000000D03*
X105400000Y-121220000D03*
X104530000Y-121220000D03*
X103630000Y-121220000D03*
D35*
%TO.N,VBUS*%
X125960000Y-117470000D03*
D34*
%TO.N,Net-(IC1-DISCH)*%
X109910000Y-113800000D03*
X119410000Y-115720000D03*
%TO.N,GND*%
X110790000Y-113130000D03*
X111610000Y-113900000D03*
X111650000Y-112310000D03*
D35*
%TO.N,VBUS*%
X108670000Y-117610000D03*
X113360000Y-108110000D03*
D34*
%TO.N,GND*%
X124120000Y-107320000D03*
%TO.N,VDD*%
X110390000Y-114900000D03*
X106410000Y-114870000D03*
X106690000Y-106740000D03*
D35*
%TO.N,VBUS*%
X117750000Y-108120000D03*
D34*
%TO.N,VDD*%
X120650000Y-112730000D03*
%TD*%
D36*
%TO.N,VBUS*%
X125970000Y-117480000D02*
X125970000Y-117530000D01*
X125960000Y-117470000D02*
X125970000Y-117480000D01*
X125970000Y-117460000D02*
X125960000Y-117470000D01*
X125970000Y-117530000D02*
X125980000Y-117540000D01*
X125970000Y-115340000D02*
X125970000Y-117460000D01*
%TO.N,Net-(IC1-VBUS_VS_DISCH)*%
X124320000Y-115340000D02*
X123850000Y-114870000D01*
X123850000Y-114870000D02*
X117600000Y-114870000D01*
X117600000Y-114870000D02*
X116630000Y-113900000D01*
D37*
%TO.N,Net-(IC1-DISCH)*%
X109910000Y-113800000D02*
X109910000Y-113720000D01*
X109910000Y-113161471D02*
X109910000Y-113800000D01*
X111421471Y-111650000D02*
X109910000Y-113161471D01*
X113380000Y-111650000D02*
X111421471Y-111650000D01*
X119400000Y-115730000D02*
X119380000Y-115730000D01*
X119410000Y-115720000D02*
X119400000Y-115730000D01*
X119420000Y-115730000D02*
X119410000Y-115720000D01*
X121610000Y-115730000D02*
X119420000Y-115730000D01*
X122630000Y-116750000D02*
X121610000Y-115730000D01*
%TO.N,GND*%
X110770000Y-113150000D02*
X110710000Y-113150000D01*
X110790000Y-113130000D02*
X110770000Y-113150000D01*
X110810000Y-113150000D02*
X110790000Y-113130000D01*
X113380000Y-113150000D02*
X110810000Y-113150000D01*
X111610000Y-113870000D02*
X111630000Y-113890000D01*
X111610000Y-113900000D02*
X111610000Y-113870000D01*
X111640000Y-113900000D02*
X111610000Y-113900000D01*
X111640000Y-113900000D02*
X111640000Y-113900000D01*
X114130000Y-113900000D02*
X111640000Y-113900000D01*
X113380000Y-112150000D02*
X115130000Y-112150000D01*
X115130000Y-112150000D02*
X115380000Y-111900000D01*
X111620000Y-112310000D02*
X111650000Y-112280000D01*
X111650000Y-112310000D02*
X111620000Y-112310000D01*
X111650000Y-112280000D02*
X111650000Y-112310000D01*
X111780000Y-112150000D02*
X111650000Y-112280000D01*
X113380000Y-112150000D02*
X111780000Y-112150000D01*
D36*
%TO.N,VBUS*%
X110100000Y-119040000D02*
X110900000Y-119040000D01*
X110900000Y-119040000D02*
X116510000Y-119040000D01*
X112195000Y-117745000D02*
X110900000Y-119040000D01*
X112870000Y-117745000D02*
X112195000Y-117745000D01*
X108670000Y-117610000D02*
X110100000Y-119040000D01*
X113320000Y-108110000D02*
X113320000Y-108110000D01*
X113360000Y-108110000D02*
X113320000Y-108110000D01*
X113360000Y-108070000D02*
X113360000Y-108110000D01*
X113480003Y-107949997D02*
X113360000Y-108070000D01*
X113480003Y-105920000D02*
X113480003Y-107949997D01*
%TO.N,/VSINK*%
X117010000Y-125530000D02*
X116250000Y-126290000D01*
%TO.N,GND*%
X124130000Y-107310000D02*
X124170000Y-107310000D01*
X124120000Y-107320000D02*
X124130000Y-107310000D01*
X124110000Y-107310000D02*
X124120000Y-107320000D01*
X119139995Y-107310000D02*
X124110000Y-107310000D01*
X117749995Y-105920000D02*
X119139995Y-107310000D01*
X112250005Y-105920000D02*
X112250005Y-103469995D01*
X112250005Y-103469995D02*
X113520000Y-102200000D01*
X113520000Y-102200000D02*
X116750000Y-102200000D01*
X116750000Y-102200000D02*
X117749995Y-103199995D01*
X117749995Y-103199995D02*
X117749995Y-105920000D01*
D37*
%TO.N,Net-(IC1-RESET)*%
X114130000Y-109900000D02*
X113153371Y-109900000D01*
X113153371Y-109900000D02*
X108310000Y-105056629D01*
X108310000Y-105056629D02*
X108310000Y-104045000D01*
%TO.N,VDD*%
X110360000Y-114910000D02*
X110350000Y-114910000D01*
X110390000Y-114900000D02*
X110360000Y-114910000D01*
X110340000Y-114910000D02*
X110390000Y-114900000D01*
X106450000Y-114910000D02*
X107980000Y-114910000D01*
X106410000Y-114870000D02*
X106450000Y-114910000D01*
X106370000Y-114910000D02*
X106410000Y-114870000D01*
X106660000Y-106740000D02*
X106690000Y-106770000D01*
X106690000Y-106740000D02*
X106660000Y-106740000D01*
X106690000Y-106770000D02*
X106690000Y-106740000D01*
X107695000Y-107775000D02*
X106690000Y-106770000D01*
X108250000Y-107775000D02*
X107695000Y-107775000D01*
X108250000Y-113045000D02*
X108250000Y-114640000D01*
X108250000Y-114640000D02*
X107980000Y-114910000D01*
%TO.N,/SDA*%
X108250000Y-111395000D02*
X102835000Y-111395000D01*
X102835000Y-111395000D02*
X102290000Y-111940000D01*
X113380000Y-111150000D02*
X108495000Y-111150000D01*
X108495000Y-111150000D02*
X108250000Y-111395000D01*
%TO.N,/SCL*%
X108250000Y-109425000D02*
X102805000Y-109425000D01*
X102805000Y-109425000D02*
X102290000Y-109940000D01*
X113380000Y-110650000D02*
X109475000Y-110650000D01*
X109475000Y-110650000D02*
X108250000Y-109425000D01*
%TO.N,VDD*%
X105220000Y-114910000D02*
X106370000Y-114910000D01*
X107980000Y-114910000D02*
X110340000Y-114910000D01*
X102290000Y-113940000D02*
X104250000Y-113940000D01*
X104250000Y-113940000D02*
X105220000Y-114910000D01*
D36*
%TO.N,VBUS*%
X117750000Y-108146903D02*
X119053097Y-109450000D01*
X117750000Y-108120000D02*
X117750000Y-108146903D01*
X117723097Y-108120000D02*
X117750000Y-108120000D01*
D37*
%TO.N,VDD*%
X120650000Y-112730000D02*
X119570000Y-112730000D01*
%TO.N,Net-(D1-A)*%
X119800000Y-110970000D02*
X120575000Y-111745000D01*
X120575000Y-111745000D02*
X125955000Y-111745000D01*
X125955000Y-111745000D02*
X126020000Y-111680000D01*
%TO.N,VDD*%
X126020000Y-112730000D02*
X120650000Y-112730000D01*
X119570000Y-112730000D02*
X119560000Y-112740000D01*
X118470000Y-111650000D02*
X119560000Y-112740000D01*
X117380000Y-111650000D02*
X118470000Y-111650000D01*
%TO.N,Net-(IC1-VREG_1V2)*%
X119820000Y-113780000D02*
X118190000Y-112150000D01*
X118190000Y-112150000D02*
X117380000Y-112150000D01*
%TO.N,Net-(D1-A)*%
X117380000Y-111150000D02*
X119620000Y-111150000D01*
X119620000Y-111150000D02*
X119800000Y-110970000D01*
D36*
%TO.N,VBUS*%
X119815000Y-109450000D02*
X118380000Y-109450000D01*
X118380000Y-109450000D02*
X117380000Y-110450000D01*
X116519997Y-105920000D02*
X116519997Y-106916900D01*
X116519997Y-106916900D02*
X117723097Y-108120000D01*
X119053097Y-109450000D02*
X119815000Y-109450000D01*
X113480003Y-105920000D02*
X113480003Y-104419997D01*
X113480003Y-104419997D02*
X114130000Y-103770000D01*
X114130000Y-103770000D02*
X115970000Y-103770000D01*
X115970000Y-103770000D02*
X116519997Y-104319997D01*
X116519997Y-104319997D02*
X116519997Y-105920000D01*
D38*
%TO.N,/CC1*%
X116630000Y-109900000D02*
X116630000Y-109650000D01*
X116630000Y-109650000D02*
X116130000Y-109150000D01*
X115499999Y-105920000D02*
X115499999Y-108519999D01*
X115499999Y-108519999D02*
X116130000Y-109150000D01*
X116130000Y-109150000D02*
X116130000Y-109900000D01*
%TO.N,/CC2*%
X114630000Y-106946899D02*
X114630000Y-108930000D01*
X115130000Y-109900000D02*
X115130000Y-109430000D01*
X114630000Y-108930000D02*
X114630000Y-109900000D01*
X115130000Y-109430000D02*
X114630000Y-108930000D01*
X114500001Y-105920000D02*
X114500001Y-106816900D01*
X114500001Y-106816900D02*
X114630000Y-106946899D01*
D37*
%TO.N,Net-(Q1-G)*%
X114505000Y-117745000D02*
X114505000Y-117730000D01*
X114505000Y-117730000D02*
X112870000Y-116095000D01*
X117510000Y-119190000D02*
X117510000Y-118340000D01*
X117510000Y-118340000D02*
X116000000Y-116830000D01*
%TO.N,Net-(C4-Pad2)*%
X117650000Y-116830000D02*
X120560000Y-116830000D01*
X120560000Y-116830000D02*
X120570000Y-116840000D01*
%TO.N,Net-(Q1-G)*%
X114505000Y-117745000D02*
X115085000Y-117745000D01*
X115085000Y-117745000D02*
X116000000Y-116830000D01*
%TO.N,Net-(IC1-VBUS_EN_SNK)*%
X115630000Y-113900000D02*
X115630000Y-114970000D01*
X115630000Y-114970000D02*
X114505000Y-116095000D01*
%TD*%
%TA.AperFunction,Conductor*%
%TO.N,/VSINK*%
G36*
X125013453Y-117543008D02*
G01*
X125060318Y-117594830D01*
X125071961Y-117635756D01*
X125074326Y-117658256D01*
X125074327Y-117658259D01*
X125127900Y-117823140D01*
X125133309Y-117874233D01*
X124081520Y-128028775D01*
X124055033Y-128093430D01*
X123997796Y-128133501D01*
X123958180Y-128140000D01*
X115166688Y-128140000D01*
X115099649Y-128120315D01*
X115053894Y-128067511D01*
X115042717Y-128013340D01*
X115055314Y-127426173D01*
X115076431Y-127359573D01*
X115130205Y-127314962D01*
X115199561Y-127306504D01*
X115262479Y-127336885D01*
X115266966Y-127341154D01*
X115378917Y-127453105D01*
X115572421Y-127588600D01*
X115786507Y-127688429D01*
X115786516Y-127688433D01*
X116000000Y-127745634D01*
X116000000Y-126698018D01*
X116114801Y-126750446D01*
X116216025Y-126765000D01*
X116283975Y-126765000D01*
X116385199Y-126750446D01*
X116500000Y-126698018D01*
X116500000Y-127745633D01*
X116713483Y-127688433D01*
X116713492Y-127688429D01*
X116927577Y-127588600D01*
X116927579Y-127588599D01*
X117121073Y-127453113D01*
X117121079Y-127453108D01*
X117288108Y-127286079D01*
X117288113Y-127286073D01*
X117423599Y-127092579D01*
X117423600Y-127092577D01*
X117523429Y-126878492D01*
X117523433Y-126878483D01*
X117584567Y-126650326D01*
X117584569Y-126650316D01*
X117594221Y-126540000D01*
X116653969Y-126540000D01*
X116686519Y-126489351D01*
X116725000Y-126358295D01*
X116725000Y-126221705D01*
X116686519Y-126090649D01*
X116653969Y-126040000D01*
X117594221Y-126040000D01*
X117584569Y-125929683D01*
X117584567Y-125929673D01*
X117523433Y-125701516D01*
X117523429Y-125701507D01*
X117423600Y-125487422D01*
X117423599Y-125487420D01*
X117288113Y-125293926D01*
X117288108Y-125293920D01*
X117121082Y-125126894D01*
X116927578Y-124991399D01*
X116713492Y-124891570D01*
X116713486Y-124891567D01*
X116500000Y-124834364D01*
X116500000Y-125881981D01*
X116385199Y-125829554D01*
X116283975Y-125815000D01*
X116216025Y-125815000D01*
X116114801Y-125829554D01*
X116000000Y-125881981D01*
X116000000Y-124834364D01*
X115999999Y-124834364D01*
X115786513Y-124891567D01*
X115786507Y-124891570D01*
X115572422Y-124991399D01*
X115572420Y-124991400D01*
X115378926Y-125126886D01*
X115316902Y-125188910D01*
X115255578Y-125222394D01*
X115185887Y-125217409D01*
X115129953Y-125175538D01*
X115105537Y-125110073D01*
X115105250Y-125098594D01*
X115207341Y-120340000D01*
X115860000Y-120340000D01*
X115860000Y-120637844D01*
X115866401Y-120697372D01*
X115866403Y-120697379D01*
X115916645Y-120832086D01*
X115916649Y-120832093D01*
X116002809Y-120947187D01*
X116002812Y-120947190D01*
X116117906Y-121033350D01*
X116117913Y-121033354D01*
X116252620Y-121083596D01*
X116259505Y-121085223D01*
X116320224Y-121119791D01*
X116352615Y-121181699D01*
X116355000Y-121205902D01*
X116355000Y-121287844D01*
X116361401Y-121347372D01*
X116361403Y-121347379D01*
X116411645Y-121482086D01*
X116411649Y-121482093D01*
X116497809Y-121597187D01*
X116497812Y-121597190D01*
X116612906Y-121683350D01*
X116612913Y-121683354D01*
X116747620Y-121733596D01*
X116747627Y-121733598D01*
X116807155Y-121739999D01*
X116807172Y-121740000D01*
X116855000Y-121740000D01*
X116855000Y-120884000D01*
X116874685Y-120816961D01*
X116927489Y-120771206D01*
X116979000Y-120760000D01*
X117041000Y-120760000D01*
X117108039Y-120779685D01*
X117153794Y-120832489D01*
X117165000Y-120884000D01*
X117165000Y-121740000D01*
X117212828Y-121740000D01*
X117212844Y-121739999D01*
X117272372Y-121733598D01*
X117272379Y-121733596D01*
X117407086Y-121683354D01*
X117407093Y-121683350D01*
X117522187Y-121597190D01*
X117522190Y-121597187D01*
X117608350Y-121482093D01*
X117608354Y-121482086D01*
X117658596Y-121347379D01*
X117658598Y-121347372D01*
X117664999Y-121287844D01*
X117665000Y-121287827D01*
X117665000Y-121205902D01*
X117684685Y-121138863D01*
X117737489Y-121093108D01*
X117760495Y-121085223D01*
X117767379Y-121083596D01*
X117902086Y-121033354D01*
X117902093Y-121033350D01*
X118017187Y-120947190D01*
X118017190Y-120947187D01*
X118103350Y-120832093D01*
X118103354Y-120832086D01*
X118153596Y-120697379D01*
X118153598Y-120697372D01*
X118159999Y-120637844D01*
X118160000Y-120637827D01*
X118160000Y-120340000D01*
X115860000Y-120340000D01*
X115207341Y-120340000D01*
X115217314Y-119875160D01*
X115238432Y-119808561D01*
X115292205Y-119763950D01*
X115345129Y-119753883D01*
X115739846Y-119766133D01*
X115806243Y-119787887D01*
X115821151Y-119806210D01*
X115823681Y-119803681D01*
X115860000Y-119840000D01*
X116012893Y-119840000D01*
X116079932Y-119859685D01*
X116087204Y-119864733D01*
X116112668Y-119883795D01*
X116112671Y-119883797D01*
X116157618Y-119900561D01*
X116247517Y-119934091D01*
X116307127Y-119940500D01*
X116712872Y-119940499D01*
X116772483Y-119934091D01*
X116772488Y-119934089D01*
X116907329Y-119883797D01*
X116907329Y-119883796D01*
X116907331Y-119883796D01*
X116932794Y-119864733D01*
X116998258Y-119840316D01*
X117007106Y-119840000D01*
X117012894Y-119840000D01*
X117079933Y-119859685D01*
X117087203Y-119864732D01*
X117112669Y-119883796D01*
X117112670Y-119883796D01*
X117112670Y-119883797D01*
X117187155Y-119911577D01*
X117247517Y-119934091D01*
X117307127Y-119940500D01*
X117712872Y-119940499D01*
X117772483Y-119934091D01*
X117907331Y-119883796D01*
X117932796Y-119864733D01*
X117998261Y-119840316D01*
X118007107Y-119840000D01*
X118160000Y-119840000D01*
X118160000Y-119658888D01*
X118162560Y-119633820D01*
X118254675Y-119187575D01*
X118367706Y-118640000D01*
X119595001Y-118640000D01*
X119595001Y-118663322D01*
X119605144Y-118762607D01*
X119658452Y-118923481D01*
X119658457Y-118923492D01*
X119747424Y-119067728D01*
X119747427Y-119067732D01*
X119867267Y-119187572D01*
X119867271Y-119187575D01*
X120011507Y-119276542D01*
X120011518Y-119276547D01*
X120172393Y-119329855D01*
X120271683Y-119339999D01*
X120319999Y-119339998D01*
X120320000Y-119339998D01*
X120320000Y-118640000D01*
X119595001Y-118640000D01*
X118367706Y-118640000D01*
X118550017Y-117756804D01*
X118582847Y-117695131D01*
X118643811Y-117660996D01*
X118668819Y-117657903D01*
X119567936Y-117638831D01*
X119635376Y-117657089D01*
X119682241Y-117708911D01*
X119693649Y-117777843D01*
X119676104Y-117827898D01*
X119658456Y-117856511D01*
X119658452Y-117856518D01*
X119605144Y-118017393D01*
X119595000Y-118116677D01*
X119595000Y-118140000D01*
X120696000Y-118140000D01*
X120763039Y-118159685D01*
X120808794Y-118212489D01*
X120820000Y-118264000D01*
X120820000Y-119339999D01*
X120868308Y-119339999D01*
X120868322Y-119339998D01*
X120967607Y-119329855D01*
X121128481Y-119276547D01*
X121128492Y-119276542D01*
X121272728Y-119187575D01*
X121272732Y-119187572D01*
X121392572Y-119067732D01*
X121392575Y-119067728D01*
X121481542Y-118923492D01*
X121481549Y-118923477D01*
X121485801Y-118910646D01*
X121525572Y-118853200D01*
X121590088Y-118826376D01*
X121658864Y-118838690D01*
X121709624Y-118885498D01*
X121799927Y-119034877D01*
X121920122Y-119155072D01*
X122065604Y-119243019D01*
X122065603Y-119243019D01*
X122227894Y-119293590D01*
X122227892Y-119293590D01*
X122298418Y-119299999D01*
X122379999Y-119299998D01*
X122380000Y-119299998D01*
X122380000Y-118650000D01*
X122880000Y-118650000D01*
X122880000Y-119299999D01*
X122961581Y-119299999D01*
X123032102Y-119293591D01*
X123032107Y-119293590D01*
X123194396Y-119243018D01*
X123339877Y-119155072D01*
X123460072Y-119034877D01*
X123548019Y-118889395D01*
X123598590Y-118727106D01*
X123605000Y-118656572D01*
X123605000Y-118650000D01*
X122880000Y-118650000D01*
X122380000Y-118650000D01*
X122380000Y-118274000D01*
X122399685Y-118206961D01*
X122452489Y-118161206D01*
X122504000Y-118150000D01*
X123604999Y-118150000D01*
X123604999Y-118143417D01*
X123598591Y-118072897D01*
X123598590Y-118072892D01*
X123548018Y-117910603D01*
X123460072Y-117765122D01*
X123455446Y-117759217D01*
X123456738Y-117758204D01*
X123427563Y-117704775D01*
X123432547Y-117635083D01*
X123474419Y-117579150D01*
X123539883Y-117554733D01*
X123546043Y-117554447D01*
X124946015Y-117524751D01*
X125013453Y-117543008D01*
G37*
%TD.AperFunction*%
%TD*%
%TA.AperFunction,Conductor*%
%TO.N,GND*%
G36*
X129442539Y-100520185D02*
G01*
X129488294Y-100572989D01*
X129499500Y-100624500D01*
X129499500Y-129375500D01*
X129479815Y-129442539D01*
X129427011Y-129488294D01*
X129375500Y-129499500D01*
X100624500Y-129499500D01*
X100557461Y-129479815D01*
X100511706Y-129427011D01*
X100500500Y-129375500D01*
X100500500Y-127000000D01*
X101644341Y-127000000D01*
X101664936Y-127235403D01*
X101664938Y-127235413D01*
X101726094Y-127463655D01*
X101726096Y-127463659D01*
X101726097Y-127463663D01*
X101735275Y-127483345D01*
X101825964Y-127677828D01*
X101825965Y-127677830D01*
X101961505Y-127871402D01*
X102128597Y-128038494D01*
X102322169Y-128174034D01*
X102322171Y-128174035D01*
X102536337Y-128273903D01*
X102536343Y-128273904D01*
X102536344Y-128273905D01*
X102549776Y-128277504D01*
X102764592Y-128335063D01*
X102941032Y-128350499D01*
X102941033Y-128350500D01*
X102941034Y-128350500D01*
X103058967Y-128350500D01*
X103058967Y-128350499D01*
X103235408Y-128335063D01*
X103463663Y-128273903D01*
X103677829Y-128174035D01*
X103871401Y-128038495D01*
X104038495Y-127871401D01*
X104174035Y-127677830D01*
X104273903Y-127463663D01*
X104335063Y-127235408D01*
X104355659Y-127000000D01*
X104335063Y-126764592D01*
X104288626Y-126591285D01*
X104273905Y-126536344D01*
X104273904Y-126536343D01*
X104273903Y-126536337D01*
X104174035Y-126322171D01*
X104174034Y-126322169D01*
X104038494Y-126128597D01*
X103871402Y-125961505D01*
X103677830Y-125825965D01*
X103677828Y-125825964D01*
X103570746Y-125776031D01*
X103463663Y-125726097D01*
X103463659Y-125726096D01*
X103463655Y-125726094D01*
X103235413Y-125664938D01*
X103235403Y-125664936D01*
X103058967Y-125649500D01*
X103058966Y-125649500D01*
X102941034Y-125649500D01*
X102941033Y-125649500D01*
X102764596Y-125664936D01*
X102764586Y-125664938D01*
X102536344Y-125726094D01*
X102536335Y-125726098D01*
X102322171Y-125825964D01*
X102322169Y-125825965D01*
X102128597Y-125961505D01*
X101961506Y-126128597D01*
X101961501Y-126128604D01*
X101825967Y-126322165D01*
X101825965Y-126322169D01*
X101726098Y-126536335D01*
X101726094Y-126536344D01*
X101664938Y-126764586D01*
X101664936Y-126764596D01*
X101644341Y-126999999D01*
X101644341Y-127000000D01*
X100500500Y-127000000D01*
X100500500Y-113887401D01*
X100910746Y-113887401D01*
X100920745Y-114097327D01*
X100970296Y-114301578D01*
X100970298Y-114301582D01*
X101057598Y-114492743D01*
X101057601Y-114492748D01*
X101057602Y-114492750D01*
X101057604Y-114492753D01*
X101174697Y-114657187D01*
X101179515Y-114663953D01*
X101282456Y-114762107D01*
X101317391Y-114822616D01*
X101314066Y-114892406D01*
X101273538Y-114949321D01*
X101261983Y-114957388D01*
X101196659Y-114997680D01*
X101196655Y-114997683D01*
X101072684Y-115121654D01*
X100980643Y-115270875D01*
X100980641Y-115270880D01*
X100925494Y-115437302D01*
X100925493Y-115437309D01*
X100915000Y-115540013D01*
X100915000Y-115690000D01*
X102010440Y-115690000D01*
X101971722Y-115732059D01*
X101921449Y-115846670D01*
X101911114Y-115971395D01*
X101941837Y-116092719D01*
X102005394Y-116190000D01*
X100915001Y-116190000D01*
X100915001Y-116339986D01*
X100925494Y-116442697D01*
X100980641Y-116609119D01*
X100980643Y-116609124D01*
X101072684Y-116758345D01*
X101196654Y-116882315D01*
X101345875Y-116974356D01*
X101345880Y-116974358D01*
X101512302Y-117029505D01*
X101512309Y-117029506D01*
X101615019Y-117039999D01*
X102039999Y-117039999D01*
X102040000Y-117039998D01*
X102040000Y-116220617D01*
X102109052Y-116274363D01*
X102227424Y-116315000D01*
X102321073Y-116315000D01*
X102413446Y-116299586D01*
X102523514Y-116240019D01*
X102540000Y-116222110D01*
X102540000Y-117039999D01*
X102964972Y-117039999D01*
X102964986Y-117039998D01*
X103067697Y-117029505D01*
X103234119Y-116974358D01*
X103234124Y-116974356D01*
X103383345Y-116882315D01*
X103507315Y-116758345D01*
X103599356Y-116609124D01*
X103599358Y-116609119D01*
X103654505Y-116442697D01*
X103654506Y-116442690D01*
X103664999Y-116339986D01*
X103665000Y-116339973D01*
X103665000Y-116190000D01*
X102569560Y-116190000D01*
X102608278Y-116147941D01*
X102658551Y-116033330D01*
X102668886Y-115908605D01*
X102638163Y-115787281D01*
X102574606Y-115690000D01*
X103664999Y-115690000D01*
X103664999Y-115540028D01*
X103664998Y-115540013D01*
X103654505Y-115437302D01*
X103599358Y-115270880D01*
X103599356Y-115270875D01*
X103507315Y-115121654D01*
X103383344Y-114997683D01*
X103383340Y-114997680D01*
X103319841Y-114958513D01*
X103273116Y-114906565D01*
X103261895Y-114837603D01*
X103289738Y-114773521D01*
X103308289Y-114755503D01*
X103327882Y-114740095D01*
X103327881Y-114740095D01*
X103327886Y-114740092D01*
X103463751Y-114583296D01*
X103522528Y-114545523D01*
X103557463Y-114540500D01*
X103949903Y-114540500D01*
X104016942Y-114560185D01*
X104037584Y-114576819D01*
X104761799Y-115301034D01*
X104772493Y-115313228D01*
X104791718Y-115338282D01*
X104818929Y-115359161D01*
X104869782Y-115398182D01*
X104869783Y-115398184D01*
X104908215Y-115427673D01*
X104917159Y-115434536D01*
X104917161Y-115434536D01*
X104917163Y-115434538D01*
X104978178Y-115459811D01*
X105063238Y-115495044D01*
X105141619Y-115505363D01*
X105219999Y-115515682D01*
X105220000Y-115515682D01*
X105251302Y-115511560D01*
X105267487Y-115510500D01*
X105889017Y-115510500D01*
X105954989Y-115529506D01*
X106060477Y-115595789D01*
X106060481Y-115595790D01*
X106230737Y-115655366D01*
X106230743Y-115655367D01*
X106230745Y-115655368D01*
X106230746Y-115655368D01*
X106230750Y-115655369D01*
X106409996Y-115675565D01*
X106410000Y-115675565D01*
X106410004Y-115675565D01*
X106589249Y-115655369D01*
X106589251Y-115655368D01*
X106589255Y-115655368D01*
X106589258Y-115655366D01*
X106589262Y-115655366D01*
X106679377Y-115623832D01*
X106759522Y-115595789D01*
X106865011Y-115529505D01*
X106930983Y-115510500D01*
X107932513Y-115510500D01*
X107948697Y-115511560D01*
X107980000Y-115515682D01*
X108011302Y-115511560D01*
X108027487Y-115510500D01*
X109821273Y-115510500D01*
X109887245Y-115529506D01*
X109887737Y-115529815D01*
X109887738Y-115529816D01*
X109909820Y-115543691D01*
X110008019Y-115605394D01*
X110040478Y-115625789D01*
X110171444Y-115671616D01*
X110210745Y-115685368D01*
X110210750Y-115685369D01*
X110389996Y-115705565D01*
X110390000Y-115705565D01*
X110390004Y-115705565D01*
X110569249Y-115685369D01*
X110569252Y-115685368D01*
X110569255Y-115685368D01*
X110739522Y-115625789D01*
X110892262Y-115529816D01*
X111019816Y-115402262D01*
X111115789Y-115249522D01*
X111175368Y-115079255D01*
X111184559Y-114997683D01*
X111195565Y-114900003D01*
X111195565Y-114899996D01*
X111175369Y-114720750D01*
X111175368Y-114720745D01*
X111127273Y-114583297D01*
X111115789Y-114550478D01*
X111110520Y-114542093D01*
X111034760Y-114421522D01*
X111019816Y-114397738D01*
X110892262Y-114270184D01*
X110803363Y-114214325D01*
X110733626Y-114170506D01*
X110734893Y-114168488D01*
X110691324Y-114129140D01*
X110673021Y-114061711D01*
X110675135Y-114050000D01*
X113480000Y-114050000D01*
X113480000Y-114347844D01*
X113486401Y-114407372D01*
X113486403Y-114407379D01*
X113536645Y-114542086D01*
X113536649Y-114542093D01*
X113622809Y-114657187D01*
X113622812Y-114657190D01*
X113737906Y-114743350D01*
X113737913Y-114743354D01*
X113872620Y-114793596D01*
X113872627Y-114793598D01*
X113932155Y-114799999D01*
X113932172Y-114800000D01*
X113980000Y-114800000D01*
X113980000Y-114050000D01*
X113480000Y-114050000D01*
X110675135Y-114050000D01*
X110679952Y-114023308D01*
X110695368Y-113979255D01*
X110707715Y-113869676D01*
X110715565Y-113800000D01*
X110715565Y-113799996D01*
X110695369Y-113620750D01*
X110695368Y-113620745D01*
X110670913Y-113550857D01*
X110635789Y-113450478D01*
X110624513Y-113432533D01*
X110605512Y-113365299D01*
X110625410Y-113300000D01*
X112480000Y-113300000D01*
X112480000Y-113347844D01*
X112486401Y-113407372D01*
X112486403Y-113407379D01*
X112536645Y-113542086D01*
X112536649Y-113542093D01*
X112622809Y-113657187D01*
X112622812Y-113657190D01*
X112737906Y-113743350D01*
X112737913Y-113743354D01*
X112872620Y-113793596D01*
X112872627Y-113793598D01*
X112932155Y-113799999D01*
X112932172Y-113800000D01*
X113230000Y-113800000D01*
X113230000Y-113300000D01*
X112480000Y-113300000D01*
X110625410Y-113300000D01*
X110625878Y-113298463D01*
X110641820Y-113278884D01*
X111633887Y-112286819D01*
X111695210Y-112253334D01*
X111721568Y-112250500D01*
X112358153Y-112250500D01*
X112425192Y-112270185D01*
X112470947Y-112322989D01*
X112481442Y-112361244D01*
X112486401Y-112407373D01*
X112486403Y-112407379D01*
X112536645Y-112542086D01*
X112536648Y-112542092D01*
X112561800Y-112575691D01*
X112586216Y-112641155D01*
X112571364Y-112709428D01*
X112561800Y-112724309D01*
X112536648Y-112757907D01*
X112536645Y-112757913D01*
X112486403Y-112892620D01*
X112486401Y-112892627D01*
X112480000Y-112952155D01*
X112480000Y-113000000D01*
X113230000Y-113000000D01*
X113240184Y-112989815D01*
X113249685Y-112957460D01*
X113302489Y-112911705D01*
X113353997Y-112900499D01*
X113406001Y-112900499D01*
X113473039Y-112920184D01*
X113518794Y-112972988D01*
X113530000Y-113024499D01*
X113530000Y-113750000D01*
X114156000Y-113750000D01*
X114223039Y-113769685D01*
X114268794Y-113822489D01*
X114280000Y-113874000D01*
X114280000Y-114800000D01*
X114327828Y-114800000D01*
X114327844Y-114799999D01*
X114387372Y-114793598D01*
X114387379Y-114793596D01*
X114522086Y-114743354D01*
X114522093Y-114743350D01*
X114637187Y-114657190D01*
X114637190Y-114657187D01*
X114723350Y-114542093D01*
X114723355Y-114542084D01*
X114752006Y-114465267D01*
X114793877Y-114409333D01*
X114820744Y-114394034D01*
X114830502Y-114389993D01*
X114831975Y-114393551D01*
X114877763Y-114379205D01*
X114928244Y-114393043D01*
X114929507Y-114389996D01*
X114940784Y-114394667D01*
X114940787Y-114394669D01*
X114940789Y-114394669D01*
X114952072Y-114399343D01*
X114950426Y-114403314D01*
X114991559Y-114424805D01*
X115026163Y-114485504D01*
X115029500Y-114514079D01*
X115029500Y-114669903D01*
X115009815Y-114736942D01*
X114993181Y-114757584D01*
X114592584Y-115158181D01*
X114531261Y-115191666D01*
X114504903Y-115194500D01*
X114173384Y-115194500D01*
X114154145Y-115196248D01*
X114102807Y-115200913D01*
X113940393Y-115251522D01*
X113794811Y-115339530D01*
X113794810Y-115339531D01*
X113775181Y-115359161D01*
X113713858Y-115392646D01*
X113644166Y-115387662D01*
X113599819Y-115359161D01*
X113580188Y-115339530D01*
X113536679Y-115313228D01*
X113434606Y-115251522D01*
X113272196Y-115200914D01*
X113272194Y-115200913D01*
X113272192Y-115200913D01*
X113222778Y-115196423D01*
X113201616Y-115194500D01*
X112538384Y-115194500D01*
X112519145Y-115196248D01*
X112467807Y-115200913D01*
X112305393Y-115251522D01*
X112159811Y-115339530D01*
X112039530Y-115459811D01*
X111951522Y-115605393D01*
X111900913Y-115767807D01*
X111894500Y-115838386D01*
X111894500Y-116351613D01*
X111900913Y-116422192D01*
X111900913Y-116422194D01*
X111900914Y-116422196D01*
X111951522Y-116584606D01*
X112027023Y-116709500D01*
X112039530Y-116730188D01*
X112141661Y-116832319D01*
X112175146Y-116893642D01*
X112170162Y-116963334D01*
X112141658Y-117007685D01*
X112128492Y-117020850D01*
X112067167Y-117054332D01*
X112055764Y-117056261D01*
X112026127Y-117059860D01*
X112026121Y-117059861D01*
X112016647Y-117063454D01*
X111995049Y-117069475D01*
X111985069Y-117071304D01*
X111930227Y-117095987D01*
X111923309Y-117098852D01*
X111867072Y-117120181D01*
X111867063Y-117120185D01*
X111858721Y-117125943D01*
X111839189Y-117136960D01*
X111829946Y-117141120D01*
X111782609Y-117178206D01*
X111776579Y-117182643D01*
X111727072Y-117216816D01*
X111727064Y-117216823D01*
X111687176Y-117261846D01*
X111682044Y-117267298D01*
X110646162Y-118303181D01*
X110584839Y-118336666D01*
X110558481Y-118339500D01*
X110441519Y-118339500D01*
X110374480Y-118319815D01*
X110353838Y-118303181D01*
X109596503Y-117545846D01*
X109563018Y-117484523D01*
X109560865Y-117471143D01*
X109555674Y-117421744D01*
X109497179Y-117241716D01*
X109402533Y-117077784D01*
X109275871Y-116937112D01*
X109269051Y-116932157D01*
X109122734Y-116825851D01*
X109122729Y-116825848D01*
X108949807Y-116748857D01*
X108949802Y-116748855D01*
X108804001Y-116717865D01*
X108764646Y-116709500D01*
X108575354Y-116709500D01*
X108542897Y-116716398D01*
X108390197Y-116748855D01*
X108390192Y-116748857D01*
X108217270Y-116825848D01*
X108217265Y-116825851D01*
X108064129Y-116937111D01*
X107937466Y-117077785D01*
X107842821Y-117241715D01*
X107842818Y-117241722D01*
X107784327Y-117421740D01*
X107784326Y-117421744D01*
X107764540Y-117610000D01*
X107784326Y-117798256D01*
X107784327Y-117798259D01*
X107842818Y-117978277D01*
X107842821Y-117978284D01*
X107937467Y-118142216D01*
X108033394Y-118248753D01*
X108064129Y-118282888D01*
X108217265Y-118394148D01*
X108217270Y-118394151D01*
X108390191Y-118471142D01*
X108390193Y-118471142D01*
X108390197Y-118471144D01*
X108545130Y-118504075D01*
X108606607Y-118537266D01*
X108607026Y-118537683D01*
X109587058Y-119517715D01*
X109592178Y-119523153D01*
X109632071Y-119568183D01*
X109675018Y-119597827D01*
X109681569Y-119602349D01*
X109687601Y-119606788D01*
X109734938Y-119643874D01*
X109734943Y-119643877D01*
X109744174Y-119648031D01*
X109763727Y-119659059D01*
X109772070Y-119664818D01*
X109828322Y-119686151D01*
X109835228Y-119689012D01*
X109890063Y-119713692D01*
X109890064Y-119713692D01*
X109890068Y-119713694D01*
X109900030Y-119715519D01*
X109921651Y-119721546D01*
X109931125Y-119725139D01*
X109931128Y-119725140D01*
X109975234Y-119730495D01*
X109990830Y-119732389D01*
X109998235Y-119733516D01*
X110019400Y-119737394D01*
X110057394Y-119744357D01*
X110117423Y-119740726D01*
X110124910Y-119740500D01*
X110857628Y-119740500D01*
X110875079Y-119740500D01*
X110882566Y-119740725D01*
X110942606Y-119744358D01*
X110952576Y-119742531D01*
X110974927Y-119740500D01*
X114587898Y-119740500D01*
X114654937Y-119760185D01*
X114700692Y-119812989D01*
X114711869Y-119867160D01*
X114701957Y-120329157D01*
X114608149Y-124701616D01*
X114587031Y-124768218D01*
X114533258Y-124812829D01*
X114471576Y-124822314D01*
X114399988Y-124815000D01*
X114000000Y-124815000D01*
X114000000Y-125881981D01*
X113885199Y-125829554D01*
X113783975Y-125815000D01*
X113716025Y-125815000D01*
X113614801Y-125829554D01*
X113500000Y-125881981D01*
X113500000Y-124815000D01*
X113100028Y-124815000D01*
X113100012Y-124815001D01*
X112997302Y-124825494D01*
X112830880Y-124880641D01*
X112830875Y-124880643D01*
X112681654Y-124972684D01*
X112557684Y-125096654D01*
X112465643Y-125245875D01*
X112465641Y-125245880D01*
X112410494Y-125412302D01*
X112410493Y-125412309D01*
X112400000Y-125515013D01*
X112400000Y-126040000D01*
X113346031Y-126040000D01*
X113313481Y-126090649D01*
X113275000Y-126221705D01*
X113275000Y-126358295D01*
X113313481Y-126489351D01*
X113346031Y-126540000D01*
X112400001Y-126540000D01*
X112400001Y-127064986D01*
X112410494Y-127167697D01*
X112465641Y-127334119D01*
X112465643Y-127334124D01*
X112557684Y-127483345D01*
X112681654Y-127607315D01*
X112830875Y-127699356D01*
X112830880Y-127699358D01*
X112997302Y-127754505D01*
X112997309Y-127754506D01*
X113100019Y-127764999D01*
X113499999Y-127764999D01*
X113500000Y-127764998D01*
X113500000Y-126698018D01*
X113614801Y-126750446D01*
X113716025Y-126765000D01*
X113783975Y-126765000D01*
X113885199Y-126750446D01*
X114000000Y-126698018D01*
X114000000Y-127764999D01*
X114399972Y-127764999D01*
X114399993Y-127764997D01*
X114403153Y-127764675D01*
X114471846Y-127777441D01*
X114522733Y-127825320D01*
X114539731Y-127890691D01*
X114537332Y-128002496D01*
X114544484Y-128080855D01*
X114547645Y-128115487D01*
X114558822Y-128169658D01*
X114560253Y-128174035D01*
X114594074Y-128277503D01*
X114671859Y-128398537D01*
X114671867Y-128398548D01*
X114717611Y-128451340D01*
X114717614Y-128451343D01*
X114717618Y-128451347D01*
X114826352Y-128545567D01*
X114826355Y-128545568D01*
X114826356Y-128545569D01*
X114830818Y-128547607D01*
X114957229Y-128605338D01*
X115024268Y-128625023D01*
X115024272Y-128625024D01*
X115166688Y-128645500D01*
X115166691Y-128645500D01*
X123958184Y-128645500D01*
X124039992Y-128638834D01*
X124039997Y-128638833D01*
X124040013Y-128638832D01*
X124079629Y-128632333D01*
X124159296Y-128612508D01*
X124287706Y-128547605D01*
X124344943Y-128507534D01*
X124449866Y-128409083D01*
X124456065Y-128398543D01*
X124522800Y-128285065D01*
X124522799Y-128285065D01*
X124522803Y-128285060D01*
X124549290Y-128220405D01*
X124549290Y-128220403D01*
X124549289Y-128220403D01*
X124549474Y-128219954D01*
X124550059Y-128217337D01*
X124584330Y-128080855D01*
X124696283Y-127000000D01*
X125644341Y-127000000D01*
X125664936Y-127235403D01*
X125664938Y-127235413D01*
X125726094Y-127463655D01*
X125726096Y-127463659D01*
X125726097Y-127463663D01*
X125735275Y-127483345D01*
X125825964Y-127677828D01*
X125825965Y-127677830D01*
X125961505Y-127871402D01*
X126128597Y-128038494D01*
X126322169Y-128174034D01*
X126322171Y-128174035D01*
X126536337Y-128273903D01*
X126536343Y-128273904D01*
X126536344Y-128273905D01*
X126549776Y-128277504D01*
X126764592Y-128335063D01*
X126941032Y-128350499D01*
X126941033Y-128350500D01*
X126941034Y-128350500D01*
X127058967Y-128350500D01*
X127058967Y-128350499D01*
X127235408Y-128335063D01*
X127463663Y-128273903D01*
X127677829Y-128174035D01*
X127871401Y-128038495D01*
X128038495Y-127871401D01*
X128174035Y-127677830D01*
X128273903Y-127463663D01*
X128335063Y-127235408D01*
X128355659Y-127000000D01*
X128335063Y-126764592D01*
X128288626Y-126591285D01*
X128273905Y-126536344D01*
X128273904Y-126536343D01*
X128273903Y-126536337D01*
X128174035Y-126322171D01*
X128174034Y-126322169D01*
X128038494Y-126128597D01*
X127871402Y-125961505D01*
X127677830Y-125825965D01*
X127677828Y-125825964D01*
X127570746Y-125776031D01*
X127463663Y-125726097D01*
X127463659Y-125726096D01*
X127463655Y-125726094D01*
X127235413Y-125664938D01*
X127235403Y-125664936D01*
X127058967Y-125649500D01*
X127058966Y-125649500D01*
X126941034Y-125649500D01*
X126941033Y-125649500D01*
X126764596Y-125664936D01*
X126764586Y-125664938D01*
X126536344Y-125726094D01*
X126536335Y-125726098D01*
X126322171Y-125825964D01*
X126322169Y-125825965D01*
X126128597Y-125961505D01*
X125961506Y-126128597D01*
X125961501Y-126128604D01*
X125825967Y-126322165D01*
X125825965Y-126322169D01*
X125726098Y-126536335D01*
X125726094Y-126536344D01*
X125664938Y-126764586D01*
X125664936Y-126764596D01*
X125644341Y-126999999D01*
X125644341Y-127000000D01*
X124696283Y-127000000D01*
X125581829Y-118450445D01*
X125608316Y-118385791D01*
X125665553Y-118345720D01*
X125730947Y-118341931D01*
X125865354Y-118370500D01*
X125865355Y-118370500D01*
X126054644Y-118370500D01*
X126054646Y-118370500D01*
X126239803Y-118331144D01*
X126412730Y-118254151D01*
X126565871Y-118142888D01*
X126692533Y-118002216D01*
X126787179Y-117838284D01*
X126845674Y-117658256D01*
X126865460Y-117470000D01*
X126845674Y-117281744D01*
X126787179Y-117101716D01*
X126692533Y-116937784D01*
X126692532Y-116937783D01*
X126689284Y-116932157D01*
X126691006Y-116931162D01*
X126670701Y-116874230D01*
X126670500Y-116867168D01*
X126670500Y-116156519D01*
X126690185Y-116089480D01*
X126706821Y-116068836D01*
X126725469Y-116050188D01*
X126725472Y-116050185D01*
X126813478Y-115904606D01*
X126864086Y-115742196D01*
X126870500Y-115671616D01*
X126870500Y-115008384D01*
X126864086Y-114937804D01*
X126813478Y-114775394D01*
X126725472Y-114629815D01*
X126725470Y-114629813D01*
X126725469Y-114629811D01*
X126605188Y-114509530D01*
X126577427Y-114492748D01*
X126459606Y-114421522D01*
X126297196Y-114370914D01*
X126297194Y-114370913D01*
X126297192Y-114370913D01*
X126247778Y-114366423D01*
X126226616Y-114364500D01*
X125713384Y-114364500D01*
X125694145Y-114366248D01*
X125642807Y-114370913D01*
X125480393Y-114421522D01*
X125334811Y-114509530D01*
X125334810Y-114509531D01*
X125232681Y-114611661D01*
X125171358Y-114645146D01*
X125101666Y-114640162D01*
X125057319Y-114611661D01*
X124955188Y-114509530D01*
X124927427Y-114492748D01*
X124809606Y-114421522D01*
X124647196Y-114370914D01*
X124647194Y-114370913D01*
X124647192Y-114370913D01*
X124597778Y-114366423D01*
X124576616Y-114364500D01*
X124576613Y-114364500D01*
X124389432Y-114364500D01*
X124322393Y-114344815D01*
X124318993Y-114342551D01*
X124300768Y-114329972D01*
X124268420Y-114307643D01*
X124262403Y-114303215D01*
X124215060Y-114266124D01*
X124215055Y-114266120D01*
X124205813Y-114261961D01*
X124186266Y-114250936D01*
X124177931Y-114245183D01*
X124177932Y-114245183D01*
X124177930Y-114245182D01*
X124121694Y-114223854D01*
X124114790Y-114220994D01*
X124059932Y-114196305D01*
X124059930Y-114196304D01*
X124049946Y-114194474D01*
X124028343Y-114188451D01*
X124018874Y-114184860D01*
X124018871Y-114184859D01*
X123959171Y-114177610D01*
X123951770Y-114176483D01*
X123892609Y-114165642D01*
X123892603Y-114165642D01*
X123832567Y-114169274D01*
X123825079Y-114169500D01*
X122444000Y-114169500D01*
X122376961Y-114149815D01*
X122331206Y-114097011D01*
X122320000Y-114045500D01*
X122320000Y-114030000D01*
X121244000Y-114030000D01*
X121176961Y-114010315D01*
X121131206Y-113957511D01*
X121120000Y-113906000D01*
X121120000Y-113654000D01*
X121139685Y-113586961D01*
X121192489Y-113541206D01*
X121244000Y-113530000D01*
X122319999Y-113530000D01*
X122319999Y-113481692D01*
X122319998Y-113481682D01*
X122318509Y-113467104D01*
X122331278Y-113398411D01*
X122379158Y-113347526D01*
X122441867Y-113330500D01*
X125027885Y-113330500D01*
X125094924Y-113350185D01*
X125140679Y-113402989D01*
X125144067Y-113411167D01*
X125176202Y-113497328D01*
X125176206Y-113497335D01*
X125262452Y-113612544D01*
X125262455Y-113612547D01*
X125377664Y-113698793D01*
X125377671Y-113698797D01*
X125512517Y-113749091D01*
X125512516Y-113749091D01*
X125519444Y-113749835D01*
X125572127Y-113755500D01*
X126467872Y-113755499D01*
X126527483Y-113749091D01*
X126662331Y-113698796D01*
X126777546Y-113612546D01*
X126863796Y-113497331D01*
X126914091Y-113362483D01*
X126920500Y-113302873D01*
X126920499Y-112157128D01*
X126920498Y-112157111D01*
X126916320Y-112118253D01*
X126916320Y-112091747D01*
X126920500Y-112052873D01*
X126920499Y-111307128D01*
X126914091Y-111247517D01*
X126873955Y-111139908D01*
X126863797Y-111112671D01*
X126863793Y-111112664D01*
X126777547Y-110997455D01*
X126777544Y-110997452D01*
X126662335Y-110911206D01*
X126662328Y-110911202D01*
X126527482Y-110860908D01*
X126527483Y-110860908D01*
X126467883Y-110854501D01*
X126467881Y-110854500D01*
X126467873Y-110854500D01*
X126467864Y-110854500D01*
X125572129Y-110854500D01*
X125572123Y-110854501D01*
X125512516Y-110860908D01*
X125377671Y-110911202D01*
X125377664Y-110911206D01*
X125262456Y-110997452D01*
X125262455Y-110997453D01*
X125262454Y-110997454D01*
X125232606Y-111037326D01*
X125189573Y-111094811D01*
X125133639Y-111136682D01*
X125090306Y-111144500D01*
X121224000Y-111144500D01*
X121156961Y-111124815D01*
X121111206Y-111072011D01*
X121100000Y-111020500D01*
X121100000Y-110720000D01*
X121600000Y-110720000D01*
X122299999Y-110720000D01*
X122299999Y-110671692D01*
X122299998Y-110671677D01*
X122289855Y-110572392D01*
X122236547Y-110411518D01*
X122236544Y-110411511D01*
X122159902Y-110287257D01*
X122141461Y-110219864D01*
X122159902Y-110157061D01*
X122251544Y-110008488D01*
X122251547Y-110008481D01*
X122304855Y-109847606D01*
X122314999Y-109748322D01*
X122315000Y-109748309D01*
X122315000Y-109700000D01*
X121615000Y-109700000D01*
X121615000Y-110401638D01*
X121600000Y-110452721D01*
X121600000Y-110720000D01*
X121100000Y-110720000D01*
X121100000Y-110018362D01*
X121115000Y-109967278D01*
X121115000Y-108475000D01*
X121615000Y-108475000D01*
X121615000Y-109200000D01*
X122314999Y-109200000D01*
X122314999Y-109151692D01*
X122314998Y-109151677D01*
X122304855Y-109052392D01*
X122251547Y-108891518D01*
X122251542Y-108891507D01*
X122162575Y-108747271D01*
X122162572Y-108747267D01*
X122042732Y-108627427D01*
X122042728Y-108627424D01*
X121898492Y-108538457D01*
X121898481Y-108538452D01*
X121737606Y-108485144D01*
X121638322Y-108475000D01*
X121615000Y-108475000D01*
X121115000Y-108475000D01*
X121115000Y-108474999D01*
X121091693Y-108475000D01*
X121091674Y-108475001D01*
X120992392Y-108485144D01*
X120831518Y-108538452D01*
X120831507Y-108538457D01*
X120687271Y-108627424D01*
X120687265Y-108627428D01*
X120678031Y-108636663D01*
X120616707Y-108670146D01*
X120547015Y-108665159D01*
X120502672Y-108636660D01*
X120493044Y-108627032D01*
X120493040Y-108627029D01*
X120348705Y-108538001D01*
X120348699Y-108537998D01*
X120348697Y-108537997D01*
X120311650Y-108525721D01*
X120187709Y-108484651D01*
X120088346Y-108474500D01*
X119541662Y-108474500D01*
X119541644Y-108474501D01*
X119442292Y-108484650D01*
X119442289Y-108484651D01*
X119281303Y-108537997D01*
X119281299Y-108537999D01*
X119272247Y-108543582D01*
X119204853Y-108562019D01*
X119138191Y-108541093D01*
X119119475Y-108525721D01*
X118679663Y-108085909D01*
X118646178Y-108024586D01*
X118644023Y-108011188D01*
X118635674Y-107931745D01*
X118632424Y-107921744D01*
X118577179Y-107751716D01*
X118482533Y-107587784D01*
X118355871Y-107447112D01*
X118355870Y-107447111D01*
X118202734Y-107335851D01*
X118202729Y-107335848D01*
X118029805Y-107258856D01*
X118029727Y-107258831D01*
X118029687Y-107258803D01*
X118023866Y-107256212D01*
X118024339Y-107255147D01*
X117972052Y-107219394D01*
X117944853Y-107155035D01*
X117956767Y-107086189D01*
X118004011Y-107034713D01*
X118068045Y-107016900D01*
X118204223Y-107016900D01*
X118204239Y-107016899D01*
X118263767Y-107010498D01*
X118263771Y-107010497D01*
X118398482Y-106960252D01*
X118406854Y-106953985D01*
X118472317Y-106929564D01*
X118540591Y-106944410D01*
X118562665Y-106960933D01*
X118562986Y-106960543D01*
X118728916Y-107096719D01*
X118728923Y-107096723D01*
X118912848Y-107195033D01*
X118912851Y-107195034D01*
X119070002Y-107242705D01*
X119070002Y-106882250D01*
X119089687Y-106815211D01*
X119142491Y-106769456D01*
X119211649Y-106759512D01*
X119227449Y-106762846D01*
X119243678Y-106767394D01*
X119243680Y-106767394D01*
X119357987Y-106767394D01*
X119429117Y-106757617D01*
X119498212Y-106767989D01*
X119550731Y-106814071D01*
X119570002Y-106880462D01*
X119570002Y-107242705D01*
X119727152Y-107195034D01*
X119727155Y-107195033D01*
X119911080Y-107096723D01*
X119911087Y-107096719D01*
X120072309Y-106964407D01*
X120204621Y-106803185D01*
X120204625Y-106803178D01*
X120302937Y-106619250D01*
X120363482Y-106419659D01*
X120378802Y-106264111D01*
X120378802Y-106170000D01*
X119979299Y-106170000D01*
X119912260Y-106150315D01*
X119866505Y-106097511D01*
X119857893Y-106071232D01*
X119848159Y-106024387D01*
X119848156Y-106024382D01*
X119848156Y-106024380D01*
X119834404Y-105997840D01*
X119820502Y-105940793D01*
X119820502Y-105899208D01*
X119827662Y-105857682D01*
X119865054Y-105752474D01*
X119906053Y-105695898D01*
X119971130Y-105670468D01*
X119981894Y-105670000D01*
X120378802Y-105670000D01*
X120378802Y-105575888D01*
X120363482Y-105420340D01*
X120302937Y-105220749D01*
X120204625Y-105036821D01*
X120204621Y-105036814D01*
X120072309Y-104875592D01*
X119911087Y-104743280D01*
X119911080Y-104743276D01*
X119727154Y-104644965D01*
X119570002Y-104597293D01*
X119570002Y-104957737D01*
X119550317Y-105024776D01*
X119497513Y-105070531D01*
X119428355Y-105080475D01*
X119412549Y-105077139D01*
X119396328Y-105072594D01*
X119396326Y-105072594D01*
X119282017Y-105072594D01*
X119282015Y-105072594D01*
X119210886Y-105082370D01*
X119141791Y-105071997D01*
X119089272Y-105025915D01*
X119070002Y-104959525D01*
X119070002Y-104597293D01*
X119070001Y-104597293D01*
X118912849Y-104644965D01*
X118728923Y-104743276D01*
X118728916Y-104743280D01*
X118562986Y-104879457D01*
X118561954Y-104878200D01*
X118507531Y-104907918D01*
X118437839Y-104902934D01*
X118406861Y-104886018D01*
X118398484Y-104879747D01*
X118398481Y-104879745D01*
X118263774Y-104829503D01*
X118263767Y-104829501D01*
X118204239Y-104823100D01*
X117999995Y-104823100D01*
X117999995Y-105670000D01*
X118660707Y-105670000D01*
X118727746Y-105689685D01*
X118773501Y-105742489D01*
X118782113Y-105768771D01*
X118791843Y-105815594D01*
X118791847Y-105815607D01*
X118805599Y-105842146D01*
X118819502Y-105899195D01*
X118819502Y-105940779D01*
X118812342Y-105982303D01*
X118795721Y-106029069D01*
X118774946Y-106087526D01*
X118733948Y-106144102D01*
X118668870Y-106169532D01*
X118658106Y-106170000D01*
X117623995Y-106170000D01*
X117556956Y-106150315D01*
X117511201Y-106097511D01*
X117499995Y-106046000D01*
X117499995Y-104823100D01*
X117344497Y-104823100D01*
X117277458Y-104803415D01*
X117231703Y-104750611D01*
X117220497Y-104699100D01*
X117220497Y-104344905D01*
X117220723Y-104337418D01*
X117224354Y-104277391D01*
X117224353Y-104277388D01*
X117223714Y-104273903D01*
X117213513Y-104218232D01*
X117212386Y-104210827D01*
X117205137Y-104151126D01*
X117205136Y-104151122D01*
X117201543Y-104141648D01*
X117195516Y-104120026D01*
X117193691Y-104110067D01*
X117193691Y-104110065D01*
X117169007Y-104055220D01*
X117166146Y-104048314D01*
X117144815Y-103992067D01*
X117139055Y-103983723D01*
X117128032Y-103964177D01*
X117123875Y-103954940D01*
X117086760Y-103907566D01*
X117082342Y-103901560D01*
X117048182Y-103852070D01*
X117048180Y-103852068D01*
X117003150Y-103812175D01*
X116997712Y-103807055D01*
X116482940Y-103292283D01*
X116477805Y-103286828D01*
X116437929Y-103241816D01*
X116437924Y-103241812D01*
X116388438Y-103207655D01*
X116382403Y-103203215D01*
X116335060Y-103166124D01*
X116335055Y-103166120D01*
X116325813Y-103161961D01*
X116306266Y-103150936D01*
X116297931Y-103145183D01*
X116297932Y-103145183D01*
X116297930Y-103145182D01*
X116241694Y-103123854D01*
X116234790Y-103120994D01*
X116179932Y-103096305D01*
X116179930Y-103096304D01*
X116169946Y-103094474D01*
X116148343Y-103088451D01*
X116138874Y-103084860D01*
X116138871Y-103084859D01*
X116079171Y-103077610D01*
X116071770Y-103076483D01*
X116012609Y-103065642D01*
X116012603Y-103065642D01*
X115952567Y-103069274D01*
X115945079Y-103069500D01*
X114154921Y-103069500D01*
X114147433Y-103069274D01*
X114087396Y-103065642D01*
X114087388Y-103065642D01*
X114028227Y-103076483D01*
X114020827Y-103077610D01*
X113961128Y-103084860D01*
X113961121Y-103084861D01*
X113951647Y-103088454D01*
X113930049Y-103094475D01*
X113920069Y-103096304D01*
X113865227Y-103120987D01*
X113858309Y-103123852D01*
X113802072Y-103145181D01*
X113802063Y-103145185D01*
X113793721Y-103150943D01*
X113774189Y-103161960D01*
X113764946Y-103166120D01*
X113717609Y-103203206D01*
X113711579Y-103207643D01*
X113662072Y-103241816D01*
X113662064Y-103241823D01*
X113622176Y-103286846D01*
X113617044Y-103292298D01*
X113002293Y-103907048D01*
X112996841Y-103912180D01*
X112951822Y-103952065D01*
X112917652Y-104001566D01*
X112913216Y-104007594D01*
X112876127Y-104054935D01*
X112876122Y-104054945D01*
X112871963Y-104064185D01*
X112860945Y-104083720D01*
X112855190Y-104092058D01*
X112855182Y-104092073D01*
X112833856Y-104148302D01*
X112830992Y-104155217D01*
X112806308Y-104210065D01*
X112804480Y-104220039D01*
X112798456Y-104241650D01*
X112794863Y-104251124D01*
X112794863Y-104251125D01*
X112787613Y-104310824D01*
X112786486Y-104318224D01*
X112775645Y-104377386D01*
X112775645Y-104377392D01*
X112779277Y-104437429D01*
X112779503Y-104444917D01*
X112779503Y-104699100D01*
X112759818Y-104766139D01*
X112707014Y-104811894D01*
X112655503Y-104823100D01*
X112500005Y-104823100D01*
X112500005Y-107016900D01*
X112655503Y-107016900D01*
X112722542Y-107036585D01*
X112768297Y-107089389D01*
X112779503Y-107140900D01*
X112779503Y-107361332D01*
X112759818Y-107428371D01*
X112747653Y-107444304D01*
X112627466Y-107577785D01*
X112532821Y-107741715D01*
X112532818Y-107741722D01*
X112501724Y-107837421D01*
X112474326Y-107921744D01*
X112473275Y-107931744D01*
X112458704Y-108070377D01*
X112432119Y-108134992D01*
X112374821Y-108174976D01*
X112305002Y-108177636D01*
X112247702Y-108145096D01*
X111328411Y-107225805D01*
X111294926Y-107164482D01*
X111299910Y-107094790D01*
X111337427Y-107042271D01*
X111437014Y-106960542D01*
X111438047Y-106961801D01*
X111492449Y-106932085D01*
X111562141Y-106937058D01*
X111593139Y-106953982D01*
X111601514Y-106960252D01*
X111601518Y-106960254D01*
X111736225Y-107010496D01*
X111736232Y-107010498D01*
X111795760Y-107016899D01*
X111795777Y-107016900D01*
X112000005Y-107016900D01*
X112000005Y-106170000D01*
X111339295Y-106170000D01*
X111272256Y-106150315D01*
X111226501Y-106097511D01*
X111217889Y-106071232D01*
X111208155Y-106024387D01*
X111208152Y-106024382D01*
X111208152Y-106024380D01*
X111194400Y-105997840D01*
X111180498Y-105940793D01*
X111180498Y-105899208D01*
X111187658Y-105857682D01*
X111225050Y-105752474D01*
X111266049Y-105695898D01*
X111331126Y-105670468D01*
X111341890Y-105670000D01*
X112000005Y-105670000D01*
X112000005Y-104823100D01*
X111795760Y-104823100D01*
X111736232Y-104829501D01*
X111736225Y-104829503D01*
X111601518Y-104879745D01*
X111601515Y-104879747D01*
X111593131Y-104886023D01*
X111527665Y-104910436D01*
X111459393Y-104895580D01*
X111437334Y-104879066D01*
X111437014Y-104879457D01*
X111271083Y-104743280D01*
X111271076Y-104743276D01*
X111087150Y-104644965D01*
X110929998Y-104597293D01*
X110929998Y-104957737D01*
X110910313Y-105024776D01*
X110857509Y-105070531D01*
X110788351Y-105080475D01*
X110772545Y-105077139D01*
X110756324Y-105072594D01*
X110756322Y-105072594D01*
X110642013Y-105072594D01*
X110642011Y-105072594D01*
X110570882Y-105082370D01*
X110501787Y-105071997D01*
X110449268Y-105025915D01*
X110429998Y-104959525D01*
X110429998Y-104597293D01*
X110429997Y-104597293D01*
X110272845Y-104644965D01*
X110088919Y-104743276D01*
X110088912Y-104743280D01*
X109927690Y-104875592D01*
X109795378Y-105036814D01*
X109795374Y-105036821D01*
X109697062Y-105220749D01*
X109670139Y-105309505D01*
X109631841Y-105367944D01*
X109568029Y-105396400D01*
X109498962Y-105385840D01*
X109463797Y-105361191D01*
X109049312Y-104946706D01*
X109015827Y-104885383D01*
X109020811Y-104815691D01*
X109049311Y-104771345D01*
X109140472Y-104680185D01*
X109228478Y-104534606D01*
X109279086Y-104372196D01*
X109285500Y-104301616D01*
X109285500Y-103788384D01*
X109279086Y-103717804D01*
X109228478Y-103555394D01*
X109140472Y-103409815D01*
X109140470Y-103409813D01*
X109140469Y-103409811D01*
X109037984Y-103307326D01*
X109004499Y-103246003D01*
X109009483Y-103176311D01*
X109037985Y-103131963D01*
X109140071Y-103029878D01*
X109140072Y-103029877D01*
X109228019Y-102884395D01*
X109278590Y-102722106D01*
X109285000Y-102651572D01*
X109285000Y-102645000D01*
X107335001Y-102645000D01*
X107335001Y-102651582D01*
X107341408Y-102722102D01*
X107341409Y-102722107D01*
X107391981Y-102884396D01*
X107479927Y-103029877D01*
X107582015Y-103131965D01*
X107615500Y-103193288D01*
X107610516Y-103262980D01*
X107582015Y-103307327D01*
X107479531Y-103409810D01*
X107479530Y-103409811D01*
X107391522Y-103555393D01*
X107340913Y-103717807D01*
X107334500Y-103788386D01*
X107334500Y-104301613D01*
X107340913Y-104372192D01*
X107391522Y-104534606D01*
X107479530Y-104680188D01*
X107599811Y-104800469D01*
X107599813Y-104800470D01*
X107599815Y-104800472D01*
X107649650Y-104830598D01*
X107696838Y-104882126D01*
X107709500Y-104936715D01*
X107709500Y-105009141D01*
X107708439Y-105025326D01*
X107704318Y-105056627D01*
X107704318Y-105056629D01*
X107709500Y-105095989D01*
X107709500Y-105095990D01*
X107724955Y-105213389D01*
X107724956Y-105213391D01*
X107785464Y-105359470D01*
X107881718Y-105484911D01*
X107881719Y-105484912D01*
X107906769Y-105504133D01*
X107918964Y-105514828D01*
X112241955Y-109837819D01*
X112275440Y-109899142D01*
X112270456Y-109968834D01*
X112228584Y-110024767D01*
X112163120Y-110049184D01*
X112154274Y-110049500D01*
X109775097Y-110049500D01*
X109708058Y-110029815D01*
X109687416Y-110013181D01*
X109261819Y-109587584D01*
X109228334Y-109526261D01*
X109225500Y-109499903D01*
X109225500Y-109168386D01*
X109225500Y-109168384D01*
X109219086Y-109097804D01*
X109168478Y-108935394D01*
X109080472Y-108789815D01*
X109080470Y-108789813D01*
X109080469Y-108789811D01*
X108978339Y-108687681D01*
X108944854Y-108626358D01*
X108949838Y-108556666D01*
X108978339Y-108512319D01*
X109080468Y-108410189D01*
X109080469Y-108410188D01*
X109080472Y-108410185D01*
X109168478Y-108264606D01*
X109219086Y-108102196D01*
X109225500Y-108031616D01*
X109225500Y-107518384D01*
X109219086Y-107447804D01*
X109168478Y-107285394D01*
X109080472Y-107139815D01*
X109080470Y-107139813D01*
X109080469Y-107139811D01*
X108960188Y-107019530D01*
X108955837Y-107016900D01*
X108814606Y-106931522D01*
X108652196Y-106880914D01*
X108652194Y-106880913D01*
X108652192Y-106880913D01*
X108602778Y-106876423D01*
X108581616Y-106874500D01*
X107918384Y-106874500D01*
X107847804Y-106880914D01*
X107843517Y-106882250D01*
X107768672Y-106905572D01*
X107698812Y-106906722D01*
X107644102Y-106874867D01*
X107524510Y-106755275D01*
X107491025Y-106693952D01*
X107488971Y-106681477D01*
X107475369Y-106560749D01*
X107475368Y-106560745D01*
X107415788Y-106390476D01*
X107336387Y-106264111D01*
X107319816Y-106237738D01*
X107192262Y-106110184D01*
X107130264Y-106071228D01*
X107039523Y-106014211D01*
X106869254Y-105954631D01*
X106869249Y-105954630D01*
X106690004Y-105934435D01*
X106689996Y-105934435D01*
X106510750Y-105954630D01*
X106510745Y-105954631D01*
X106340476Y-106014211D01*
X106187737Y-106110184D01*
X106060184Y-106237737D01*
X105964211Y-106390476D01*
X105904631Y-106560745D01*
X105904630Y-106560750D01*
X105884435Y-106739996D01*
X105884435Y-106740003D01*
X105904630Y-106919249D01*
X105904631Y-106919254D01*
X105964211Y-107089523D01*
X106045815Y-107219394D01*
X106060184Y-107242262D01*
X106187738Y-107369816D01*
X106340478Y-107465789D01*
X106510745Y-107525368D01*
X106563858Y-107531352D01*
X106628271Y-107558417D01*
X106637656Y-107566891D01*
X107236799Y-108166034D01*
X107247493Y-108178228D01*
X107266717Y-108203281D01*
X107266718Y-108203282D01*
X107299904Y-108228747D01*
X107330534Y-108262971D01*
X107331521Y-108264604D01*
X107331522Y-108264606D01*
X107419528Y-108410185D01*
X107419530Y-108410187D01*
X107419532Y-108410190D01*
X107521661Y-108512319D01*
X107555146Y-108573642D01*
X107550162Y-108643334D01*
X107521661Y-108687681D01*
X107421161Y-108788181D01*
X107359838Y-108821666D01*
X107333480Y-108824500D01*
X102852487Y-108824500D01*
X102836302Y-108823439D01*
X102805000Y-108819318D01*
X102804999Y-108819318D01*
X102672727Y-108836732D01*
X102659761Y-108838439D01*
X102643576Y-108839500D01*
X101962575Y-108839500D01*
X101805782Y-108854472D01*
X101805778Y-108854473D01*
X101604127Y-108913683D01*
X101417313Y-109009991D01*
X101252116Y-109139905D01*
X101252112Y-109139909D01*
X101114478Y-109298746D01*
X101009398Y-109480750D01*
X100940656Y-109679365D01*
X100940656Y-109679367D01*
X100916453Y-109847708D01*
X100910746Y-109887401D01*
X100920745Y-110097327D01*
X100970296Y-110301578D01*
X100970298Y-110301582D01*
X101057598Y-110492743D01*
X101057601Y-110492748D01*
X101057602Y-110492750D01*
X101057604Y-110492753D01*
X101179514Y-110663952D01*
X101179515Y-110663953D01*
X101179520Y-110663959D01*
X101331619Y-110808984D01*
X101372941Y-110835540D01*
X101418696Y-110888344D01*
X101428640Y-110957503D01*
X101399615Y-111021059D01*
X101382555Y-111037326D01*
X101252112Y-111139909D01*
X101114478Y-111298746D01*
X101009398Y-111480750D01*
X100940656Y-111679365D01*
X100940656Y-111679367D01*
X100911148Y-111884606D01*
X100910746Y-111887401D01*
X100920745Y-112097327D01*
X100970296Y-112301578D01*
X100970298Y-112301582D01*
X101057598Y-112492743D01*
X101057601Y-112492748D01*
X101057602Y-112492750D01*
X101057604Y-112492753D01*
X101179514Y-112663952D01*
X101179515Y-112663953D01*
X101179520Y-112663959D01*
X101331619Y-112808984D01*
X101331621Y-112808985D01*
X101331622Y-112808986D01*
X101366223Y-112831223D01*
X101372941Y-112835540D01*
X101418696Y-112888344D01*
X101428640Y-112957503D01*
X101399615Y-113021059D01*
X101382555Y-113037326D01*
X101252112Y-113139909D01*
X101114478Y-113298746D01*
X101009398Y-113480750D01*
X100940656Y-113679365D01*
X100940656Y-113679367D01*
X100912673Y-113874000D01*
X100910746Y-113887401D01*
X100500500Y-113887401D01*
X100500500Y-103000000D01*
X101644341Y-103000000D01*
X101664936Y-103235403D01*
X101664938Y-103235413D01*
X101726094Y-103463655D01*
X101726096Y-103463659D01*
X101726097Y-103463663D01*
X101768872Y-103555393D01*
X101825964Y-103677828D01*
X101825965Y-103677830D01*
X101961505Y-103871402D01*
X102128597Y-104038494D01*
X102322169Y-104174034D01*
X102322171Y-104174035D01*
X102536337Y-104273903D01*
X102536343Y-104273904D01*
X102536344Y-104273905D01*
X102591285Y-104288626D01*
X102764592Y-104335063D01*
X102941032Y-104350499D01*
X102941033Y-104350500D01*
X102941034Y-104350500D01*
X103058967Y-104350500D01*
X103058967Y-104350499D01*
X103235408Y-104335063D01*
X103463663Y-104273903D01*
X103677829Y-104174035D01*
X103871401Y-104038495D01*
X104038495Y-103871401D01*
X104174035Y-103677830D01*
X104273903Y-103463663D01*
X104335063Y-103235408D01*
X104355659Y-103000000D01*
X104335063Y-102764592D01*
X104273903Y-102536337D01*
X104240220Y-102464105D01*
X109621198Y-102464105D01*
X109636517Y-102619653D01*
X109697062Y-102819244D01*
X109795374Y-103003172D01*
X109795378Y-103003179D01*
X109927690Y-103164401D01*
X110088912Y-103296713D01*
X110088919Y-103296717D01*
X110272844Y-103395027D01*
X110272847Y-103395028D01*
X110429998Y-103442699D01*
X110429998Y-103082250D01*
X110449683Y-103015211D01*
X110502487Y-102969456D01*
X110571645Y-102959512D01*
X110587445Y-102962846D01*
X110603674Y-102967394D01*
X110603676Y-102967394D01*
X110717983Y-102967394D01*
X110789113Y-102957617D01*
X110858208Y-102967989D01*
X110910727Y-103014071D01*
X110929998Y-103080462D01*
X110929998Y-103442699D01*
X111087148Y-103395028D01*
X111087151Y-103395027D01*
X111271076Y-103296717D01*
X111271083Y-103296713D01*
X111432305Y-103164401D01*
X111564617Y-103003179D01*
X111564621Y-103003172D01*
X111662933Y-102819244D01*
X111723478Y-102619653D01*
X111738798Y-102464105D01*
X111738798Y-102369994D01*
X111339294Y-102369994D01*
X111272255Y-102350309D01*
X111226500Y-102297505D01*
X111217887Y-102271222D01*
X111208155Y-102224387D01*
X111194400Y-102197840D01*
X111180498Y-102140793D01*
X111180498Y-102119994D01*
X118433646Y-102119994D01*
X118453015Y-102304280D01*
X118453016Y-102304282D01*
X118510276Y-102480508D01*
X118536619Y-102526135D01*
X118602925Y-102640981D01*
X118629027Y-102669970D01*
X118726908Y-102778680D01*
X118726911Y-102778682D01*
X118726914Y-102778685D01*
X118872411Y-102884395D01*
X118876824Y-102887601D01*
X119046097Y-102962967D01*
X119046100Y-102962967D01*
X119046103Y-102962969D01*
X119227353Y-103001494D01*
X119412651Y-103001494D01*
X119419680Y-103000000D01*
X125644341Y-103000000D01*
X125664936Y-103235403D01*
X125664938Y-103235413D01*
X125726094Y-103463655D01*
X125726096Y-103463659D01*
X125726097Y-103463663D01*
X125768872Y-103555393D01*
X125825964Y-103677828D01*
X125825965Y-103677830D01*
X125961505Y-103871402D01*
X126128597Y-104038494D01*
X126322169Y-104174034D01*
X126322171Y-104174035D01*
X126536337Y-104273903D01*
X126536343Y-104273904D01*
X126536344Y-104273905D01*
X126591285Y-104288626D01*
X126764592Y-104335063D01*
X126941032Y-104350499D01*
X126941033Y-104350500D01*
X126941034Y-104350500D01*
X127058967Y-104350500D01*
X127058967Y-104350499D01*
X127235408Y-104335063D01*
X127463663Y-104273903D01*
X127677829Y-104174035D01*
X127871401Y-104038495D01*
X128038495Y-103871401D01*
X128174035Y-103677830D01*
X128273903Y-103463663D01*
X128335063Y-103235408D01*
X128355659Y-103000000D01*
X128335063Y-102764592D01*
X128273903Y-102536337D01*
X128174035Y-102322171D01*
X128174034Y-102322169D01*
X128038494Y-102128597D01*
X127871402Y-101961505D01*
X127677830Y-101825965D01*
X127677828Y-101825964D01*
X127536629Y-101760122D01*
X127463663Y-101726097D01*
X127463659Y-101726096D01*
X127463655Y-101726094D01*
X127235413Y-101664938D01*
X127235403Y-101664936D01*
X127058967Y-101649500D01*
X127058966Y-101649500D01*
X126941034Y-101649500D01*
X126941033Y-101649500D01*
X126764596Y-101664936D01*
X126764586Y-101664938D01*
X126536344Y-101726094D01*
X126536335Y-101726098D01*
X126322171Y-101825964D01*
X126322169Y-101825965D01*
X126128597Y-101961505D01*
X125961506Y-102128597D01*
X125961501Y-102128604D01*
X125825967Y-102322165D01*
X125825965Y-102322169D01*
X125726098Y-102536335D01*
X125726094Y-102536344D01*
X125664938Y-102764586D01*
X125664936Y-102764596D01*
X125644341Y-102999999D01*
X125644341Y-103000000D01*
X119419680Y-103000000D01*
X119593901Y-102962969D01*
X119593904Y-102962967D01*
X119593906Y-102962967D01*
X119676463Y-102926210D01*
X119763180Y-102887601D01*
X119913090Y-102778685D01*
X119925780Y-102764592D01*
X119964033Y-102722107D01*
X120037079Y-102640981D01*
X120129728Y-102480507D01*
X120186989Y-102304278D01*
X120206358Y-102119994D01*
X120186989Y-101935710D01*
X120129728Y-101759481D01*
X120037079Y-101599007D01*
X119988516Y-101545072D01*
X119913095Y-101461307D01*
X119913092Y-101461305D01*
X119913091Y-101461304D01*
X119913090Y-101461303D01*
X119763180Y-101352387D01*
X119763179Y-101352386D01*
X119593906Y-101277020D01*
X119593898Y-101277018D01*
X119412651Y-101238494D01*
X119227353Y-101238494D01*
X119046105Y-101277018D01*
X119046097Y-101277020D01*
X118876824Y-101352386D01*
X118726911Y-101461305D01*
X118726908Y-101461307D01*
X118602924Y-101599008D01*
X118510276Y-101759479D01*
X118453016Y-101935705D01*
X118453015Y-101935707D01*
X118433646Y-102119994D01*
X111180498Y-102119994D01*
X111180498Y-102099208D01*
X111187658Y-102057682D01*
X111225052Y-101952468D01*
X111266051Y-101895892D01*
X111331128Y-101870462D01*
X111341892Y-101869994D01*
X111738798Y-101869994D01*
X111738798Y-101775882D01*
X111723478Y-101620334D01*
X111662933Y-101420743D01*
X111564621Y-101236815D01*
X111564617Y-101236808D01*
X111432305Y-101075586D01*
X111271083Y-100943274D01*
X111271076Y-100943270D01*
X111087150Y-100844959D01*
X110929998Y-100797287D01*
X110929998Y-101157737D01*
X110910313Y-101224776D01*
X110857509Y-101270531D01*
X110788351Y-101280475D01*
X110772545Y-101277139D01*
X110756324Y-101272594D01*
X110756322Y-101272594D01*
X110642013Y-101272594D01*
X110642011Y-101272594D01*
X110570882Y-101282370D01*
X110501787Y-101271997D01*
X110449268Y-101225915D01*
X110429998Y-101159525D01*
X110429998Y-100797287D01*
X110429997Y-100797287D01*
X110272845Y-100844959D01*
X110088919Y-100943270D01*
X110088912Y-100943274D01*
X109927690Y-101075586D01*
X109795378Y-101236808D01*
X109795374Y-101236815D01*
X109697062Y-101420743D01*
X109636517Y-101620334D01*
X109621198Y-101775882D01*
X109621198Y-101869994D01*
X110020702Y-101869994D01*
X110087741Y-101889679D01*
X110133496Y-101942483D01*
X110142109Y-101968766D01*
X110151841Y-102015601D01*
X110151842Y-102015603D01*
X110165595Y-102042145D01*
X110179498Y-102099194D01*
X110179498Y-102140779D01*
X110172338Y-102182305D01*
X110134944Y-102287520D01*
X110093946Y-102344096D01*
X110028868Y-102369526D01*
X110018104Y-102369994D01*
X109621198Y-102369994D01*
X109621198Y-102464105D01*
X104240220Y-102464105D01*
X104174035Y-102322171D01*
X104174034Y-102322169D01*
X104049979Y-102145000D01*
X107335000Y-102145000D01*
X108060000Y-102145000D01*
X108060000Y-101495000D01*
X108560000Y-101495000D01*
X108560000Y-102145000D01*
X109284999Y-102145000D01*
X109284999Y-102138417D01*
X109278591Y-102067897D01*
X109278590Y-102067892D01*
X109228018Y-101905603D01*
X109140072Y-101760122D01*
X109019877Y-101639927D01*
X108874395Y-101551980D01*
X108874396Y-101551980D01*
X108712105Y-101501409D01*
X108712106Y-101501409D01*
X108641572Y-101495000D01*
X108560000Y-101495000D01*
X108060000Y-101495000D01*
X108059999Y-101494999D01*
X107978417Y-101495000D01*
X107907897Y-101501408D01*
X107907892Y-101501409D01*
X107745603Y-101551981D01*
X107600122Y-101639927D01*
X107479927Y-101760122D01*
X107391980Y-101905604D01*
X107341409Y-102067893D01*
X107335000Y-102138427D01*
X107335000Y-102145000D01*
X104049979Y-102145000D01*
X104038494Y-102128597D01*
X103871402Y-101961505D01*
X103677830Y-101825965D01*
X103677828Y-101825964D01*
X103536629Y-101760122D01*
X103463663Y-101726097D01*
X103463659Y-101726096D01*
X103463655Y-101726094D01*
X103235413Y-101664938D01*
X103235403Y-101664936D01*
X103058967Y-101649500D01*
X103058966Y-101649500D01*
X102941034Y-101649500D01*
X102941033Y-101649500D01*
X102764596Y-101664936D01*
X102764586Y-101664938D01*
X102536344Y-101726094D01*
X102536335Y-101726098D01*
X102322171Y-101825964D01*
X102322169Y-101825965D01*
X102128597Y-101961505D01*
X101961506Y-102128597D01*
X101961501Y-102128604D01*
X101825967Y-102322165D01*
X101825965Y-102322169D01*
X101726098Y-102536335D01*
X101726094Y-102536344D01*
X101664938Y-102764586D01*
X101664936Y-102764596D01*
X101644341Y-102999999D01*
X101644341Y-103000000D01*
X100500500Y-103000000D01*
X100500500Y-100624500D01*
X100520185Y-100557461D01*
X100572989Y-100511706D01*
X100624500Y-100500500D01*
X129375500Y-100500500D01*
X129442539Y-100520185D01*
G37*
%TD.AperFunction*%
%TD*%
M02*
